G04 #@! TF.FileFunction,Copper,L2,Bot,Signal*
%FSLAX46Y46*%
G04 Gerber Fmt 4.6, Leading zero omitted, Abs format (unit mm)*
G04 Created by KiCad (PCBNEW 4.0.7-e2-6376~58~ubuntu14.04.1) date Wed Apr 11 20:24:01 2018*
%MOMM*%
%LPD*%
G01*
G04 APERTURE LIST*
%ADD10C,0.100000*%
%ADD11R,2.032000X2.032000*%
%ADD12O,1.727200X2.032000*%
%ADD13R,1.700000X1.700000*%
%ADD14O,1.700000X1.700000*%
%ADD15R,1.000000X1.250000*%
%ADD16R,1.250000X1.000000*%
%ADD17R,1.800000X1.800000*%
%ADD18C,1.800000*%
%ADD19R,0.800000X0.900000*%
%ADD20R,2.600000X2.600000*%
%ADD21C,2.600000*%
%ADD22C,4.000000*%
%ADD23C,2.000000*%
%ADD24O,1.800000X1.800000*%
%ADD25O,4.000000X3.000000*%
%ADD26O,3.000000X2.500000*%
%ADD27C,0.600000*%
%ADD28C,0.500000*%
%ADD29C,0.250000*%
%ADD30C,0.254000*%
G04 APERTURE END LIST*
D10*
D11*
X242570000Y-89916000D03*
D12*
X240030000Y-89916000D03*
X237490000Y-89916000D03*
X234950000Y-89916000D03*
X232410000Y-89916000D03*
X229870000Y-89916000D03*
X227330000Y-89916000D03*
X224790000Y-89916000D03*
X222250000Y-89916000D03*
X219710000Y-89916000D03*
X217170000Y-89916000D03*
X214630000Y-89916000D03*
X212090000Y-89916000D03*
X209550000Y-89916000D03*
X209550000Y-105156000D03*
X212090000Y-105156000D03*
X214630000Y-105156000D03*
X217170000Y-105156000D03*
X219710000Y-105156000D03*
X222250000Y-105156000D03*
X224790000Y-105156000D03*
X227330000Y-105156000D03*
X229870000Y-105156000D03*
X232410000Y-105156000D03*
X234950000Y-105156000D03*
X237490000Y-105156000D03*
X240030000Y-105156000D03*
X242570000Y-105156000D03*
D13*
X238760000Y-139954000D03*
D14*
X236220000Y-139954000D03*
D15*
X239538000Y-93726000D03*
X241538000Y-93726000D03*
X239538000Y-100584000D03*
X241538000Y-100584000D03*
X239538000Y-97028000D03*
X241538000Y-97028000D03*
D16*
X229616000Y-97520000D03*
X229616000Y-95520000D03*
X235712000Y-99584000D03*
X235712000Y-101584000D03*
D17*
X186182000Y-106934000D03*
D18*
X188722000Y-106934000D03*
D17*
X186182000Y-113030000D03*
D18*
X188722000Y-113030000D03*
D17*
X186182000Y-119126000D03*
D18*
X188722000Y-119126000D03*
D19*
X235392000Y-96758000D03*
X233492000Y-96758000D03*
X234442000Y-94758000D03*
D20*
X233680000Y-131064000D03*
D21*
X239680000Y-131064000D03*
X236680000Y-126364000D03*
D18*
X177800000Y-91520000D03*
X177800000Y-94020000D03*
X177800000Y-96520000D03*
D22*
X170800000Y-89620000D03*
X170800000Y-98420000D03*
D18*
X177800000Y-109300000D03*
X177800000Y-111800000D03*
X177800000Y-114300000D03*
D22*
X170800000Y-107400000D03*
X170800000Y-116200000D03*
D18*
X177800000Y-127080000D03*
X177800000Y-129580000D03*
X177800000Y-132080000D03*
D22*
X170800000Y-125180000D03*
X170800000Y-133980000D03*
D23*
X134692000Y-92710000D03*
X139192000Y-92710000D03*
X134692000Y-86210000D03*
X139192000Y-86210000D03*
X145360000Y-92710000D03*
X149860000Y-92710000D03*
X145360000Y-86210000D03*
X149860000Y-86210000D03*
X155774000Y-92710000D03*
X160274000Y-92710000D03*
X155774000Y-86210000D03*
X160274000Y-86210000D03*
D17*
X229870000Y-141224000D03*
D24*
X229870000Y-138684000D03*
X229870000Y-136144000D03*
D25*
X201140000Y-140666000D03*
X201140000Y-134366000D03*
X201140000Y-128066000D03*
X184940000Y-140666000D03*
X184940000Y-134366000D03*
X184940000Y-128066000D03*
X184940000Y-84124000D03*
X184940000Y-90424000D03*
X184940000Y-96724000D03*
X201140000Y-84124000D03*
X201140000Y-90424000D03*
X201140000Y-96724000D03*
D26*
X143590000Y-111760000D03*
X153590000Y-111760000D03*
X153590000Y-116760000D03*
X143590000Y-116760000D03*
X143590000Y-106760000D03*
X153590000Y-106760000D03*
X148590000Y-106760000D03*
X148590000Y-111760000D03*
X148590000Y-116760000D03*
D13*
X161290000Y-142240000D03*
D14*
X158750000Y-142240000D03*
D13*
X174244000Y-142240000D03*
D14*
X171704000Y-142240000D03*
D13*
X239268000Y-112522000D03*
D14*
X239268000Y-115062000D03*
X239268000Y-117602000D03*
X239268000Y-120142000D03*
D13*
X137922000Y-110490000D03*
D14*
X137922000Y-113030000D03*
D10*
G36*
X218750829Y-114511276D02*
X218397276Y-114864829D01*
X217619459Y-114511276D01*
X218397276Y-113733459D01*
X218750829Y-114511276D01*
X218750829Y-114511276D01*
G37*
G36*
X218244541Y-113580724D02*
X217466724Y-114358541D01*
X217113171Y-113580724D01*
X217466724Y-113227171D01*
X218244541Y-113580724D01*
X218244541Y-113580724D01*
G37*
D27*
X240284000Y-82550000D03*
X220726000Y-98552000D03*
X222758000Y-96520000D03*
X222758000Y-98552000D03*
X220726000Y-96520000D03*
X226314000Y-98298000D03*
X226314000Y-99314000D03*
X240284000Y-86106000D03*
X226060000Y-82296000D03*
X227838000Y-84074000D03*
X224028000Y-82296000D03*
X227076000Y-85344000D03*
X222250000Y-83058000D03*
X225552000Y-86360000D03*
X221234000Y-86360000D03*
X218440000Y-83566000D03*
X219964000Y-87630000D03*
X217678000Y-85344000D03*
X215138000Y-85344000D03*
X217424000Y-87630000D03*
X214376000Y-98298000D03*
X214376000Y-93726000D03*
X215900000Y-95250000D03*
X180340000Y-114554000D03*
X180340000Y-121666000D03*
X202692000Y-103124000D03*
X201422000Y-102108000D03*
X202692000Y-101346000D03*
X224028000Y-111506000D03*
X226314000Y-110744000D03*
X218186000Y-98806000D03*
X233172000Y-103632000D03*
X237490000Y-97028000D03*
X237490000Y-93726000D03*
X237490000Y-100584000D03*
X229870000Y-101346000D03*
X143256000Y-133350000D03*
X165354000Y-101854000D03*
X146177000Y-132969000D03*
X138176000Y-125476000D03*
X243078000Y-134366000D03*
X241808000Y-128016000D03*
X135382000Y-135890000D03*
X145288000Y-131826000D03*
X215900000Y-91948000D03*
X212344000Y-93980000D03*
X185420000Y-100584000D03*
X197104000Y-100584000D03*
X179324000Y-103378000D03*
X148590000Y-127000000D03*
X158496000Y-124206000D03*
X211328000Y-98028000D03*
X226314000Y-102108000D03*
X225806000Y-97282000D03*
X231902000Y-82042000D03*
X229870000Y-99822000D03*
X174498000Y-85090000D03*
X165608000Y-85090000D03*
X198374000Y-83312000D03*
X220980000Y-91948000D03*
X164338000Y-123190000D03*
X161036000Y-119888000D03*
X176530000Y-103378000D03*
X135636000Y-119634000D03*
X140970000Y-114300000D03*
D28*
X242062000Y-86106000D02*
X242570000Y-85598000D01*
X242062000Y-86106000D02*
X242570000Y-86614000D01*
X242570000Y-86614000D02*
X242570000Y-86868000D01*
X242570000Y-86106000D02*
X242570000Y-89916000D01*
X240284000Y-82550000D02*
X242316000Y-82550000D01*
X242316000Y-82550000D02*
X242570000Y-82804000D01*
X242570000Y-82804000D02*
X242570000Y-85598000D01*
X242570000Y-85598000D02*
X242570000Y-86106000D01*
X240284000Y-86106000D02*
X242062000Y-86106000D01*
X242062000Y-86106000D02*
X242570000Y-86106000D01*
X224790000Y-94488000D02*
X222758000Y-96520000D01*
X222758000Y-96520000D02*
X220726000Y-98552000D01*
X222758000Y-98552000D02*
X225552000Y-98552000D01*
X225552000Y-98552000D02*
X226314000Y-99314000D01*
X222758000Y-98552000D02*
X226060000Y-98552000D01*
X220726000Y-96520000D02*
X222758000Y-98552000D01*
X226060000Y-98552000D02*
X226314000Y-98298000D01*
X217424000Y-113792000D02*
X191516000Y-113792000D01*
X191516000Y-113792000D02*
X186182000Y-119126000D01*
X217424000Y-113792000D02*
X217424000Y-113030000D01*
X217424000Y-113030000D02*
X218186000Y-112268000D01*
X217424000Y-113792000D02*
X217424000Y-113284000D01*
X217424000Y-113284000D02*
X216154000Y-112014000D01*
X217424000Y-113792000D02*
X216408000Y-112776000D01*
X217424000Y-113792000D02*
X216916000Y-113792000D01*
X216916000Y-113792000D02*
X215646000Y-115062000D01*
X216916000Y-113792000D02*
X215900000Y-112776000D01*
X217424000Y-113792000D02*
X215646000Y-113792000D01*
X215646000Y-113792000D02*
X215392000Y-113538000D01*
X242570000Y-88646000D02*
X242570000Y-92202000D01*
D29*
X240538000Y-92456000D02*
X241808000Y-92456000D01*
X240538000Y-92456000D02*
X236220000Y-92456000D01*
X242570000Y-91694000D02*
X242570000Y-89916000D01*
X241808000Y-92456000D02*
X242570000Y-91694000D01*
X242570000Y-89916000D02*
X242570000Y-92202000D01*
X242570000Y-92456000D02*
X242570000Y-92694000D01*
X242570000Y-92694000D02*
X241538000Y-93726000D01*
X242570000Y-92202000D02*
X242570000Y-92456000D01*
X242570000Y-86868000D02*
X242570000Y-88646000D01*
X242570000Y-88646000D02*
X242570000Y-89916000D01*
X242570000Y-86106000D02*
X242570000Y-86868000D01*
X231648000Y-92456000D02*
X236220000Y-92456000D01*
X236220000Y-92456000D02*
X235966000Y-92456000D01*
X234442000Y-93980000D02*
X235966000Y-92456000D01*
X234442000Y-94758000D02*
X234442000Y-93980000D01*
X230886000Y-92456000D02*
X230124000Y-92456000D01*
X227838000Y-94742000D02*
X230124000Y-92456000D01*
X227838000Y-96774000D02*
X227838000Y-94742000D01*
X226314000Y-98298000D02*
X227838000Y-96774000D01*
X226314000Y-99314000D02*
X226568000Y-99314000D01*
X228346000Y-94996000D02*
X230886000Y-92456000D01*
X228346000Y-97536000D02*
X228346000Y-94996000D01*
X226568000Y-99314000D02*
X228346000Y-97536000D01*
X229616000Y-94488000D02*
X231648000Y-92456000D01*
X229616000Y-95520000D02*
X229616000Y-94488000D01*
X230886000Y-92456000D02*
X231648000Y-92456000D01*
X233680000Y-138176000D02*
X234188000Y-138684000D01*
X234696000Y-139954000D02*
X236220000Y-139954000D01*
X234188000Y-139446000D02*
X234696000Y-139954000D01*
X234188000Y-138684000D02*
X234188000Y-139446000D01*
X229870000Y-138684000D02*
X233172000Y-138684000D01*
X233680000Y-138176000D02*
X233680000Y-131064000D01*
X233172000Y-138684000D02*
X233680000Y-138176000D01*
X233680000Y-131064000D02*
X235966000Y-131064000D01*
X241538000Y-102378000D02*
X241300000Y-102616000D01*
X241300000Y-102616000D02*
X241300000Y-103886000D01*
X241300000Y-103886000D02*
X241300000Y-108458000D01*
X241300000Y-108458000D02*
X243078000Y-110236000D01*
X243078000Y-110236000D02*
X243078000Y-123952000D01*
X243078000Y-123952000D02*
X239776000Y-127254000D01*
X241538000Y-102378000D02*
X241538000Y-100584000D01*
X235966000Y-131064000D02*
X239776000Y-127254000D01*
X241538000Y-100584000D02*
X241538000Y-97028000D01*
X241538000Y-93726000D02*
X241538000Y-97028000D01*
X226060000Y-82296000D02*
X227838000Y-84074000D01*
X224028000Y-82296000D02*
X227076000Y-85344000D01*
X222250000Y-83058000D02*
X225552000Y-86360000D01*
X218440000Y-83566000D02*
X221234000Y-86360000D01*
X217678000Y-85344000D02*
X219964000Y-87630000D01*
X215138000Y-85344000D02*
X217424000Y-87630000D01*
X215646000Y-97282000D02*
X216662000Y-96266000D01*
X214630000Y-97282000D02*
X215646000Y-97282000D01*
X214376000Y-97536000D02*
X214630000Y-97282000D01*
X214376000Y-98298000D02*
X214376000Y-97536000D01*
X216662000Y-92456000D02*
X216662000Y-92202000D01*
X216662000Y-92456000D02*
X216662000Y-96266000D01*
X217170000Y-91694000D02*
X217170000Y-89916000D01*
X216662000Y-92202000D02*
X217170000Y-91694000D01*
X214376000Y-93726000D02*
X215900000Y-95250000D01*
X180340000Y-121666000D02*
X180340000Y-114554000D01*
X202692000Y-103124000D02*
X210058000Y-103124000D01*
X212090000Y-105156000D02*
X210058000Y-103124000D01*
X213360000Y-103124000D02*
X212344000Y-102108000D01*
X214630000Y-104394000D02*
X213360000Y-103124000D01*
X212344000Y-102108000D02*
X201422000Y-102108000D01*
X214630000Y-104394000D02*
X214630000Y-105156000D01*
X201422000Y-102108000D02*
X201676000Y-102108000D01*
X217170000Y-104394000D02*
X214122000Y-101346000D01*
X202692000Y-101346000D02*
X214122000Y-101346000D01*
X217170000Y-104394000D02*
X217170000Y-105156000D01*
X222250000Y-108966000D02*
X222250000Y-109728000D01*
X222250000Y-108966000D02*
X222250000Y-105156000D01*
X222250000Y-109728000D02*
X224028000Y-111506000D01*
X224790000Y-106426000D02*
X224790000Y-109220000D01*
X224790000Y-105156000D02*
X224790000Y-106426000D01*
X224790000Y-109220000D02*
X226314000Y-110744000D01*
X224790000Y-106172000D02*
X224790000Y-105156000D01*
X217678000Y-101854000D02*
X217678000Y-99314000D01*
X233172000Y-103632000D02*
X227076000Y-103632000D01*
X227076000Y-103632000D02*
X225298000Y-103632000D01*
X225298000Y-103632000D02*
X219456000Y-103632000D01*
X219456000Y-103632000D02*
X217678000Y-101854000D01*
X217678000Y-99314000D02*
X218186000Y-98806000D01*
D28*
X235392000Y-96758000D02*
X237220000Y-96758000D01*
X237220000Y-96758000D02*
X237490000Y-97028000D01*
X237490000Y-93726000D02*
X239538000Y-93726000D01*
X239538000Y-93726000D02*
X239538000Y-97028000D01*
X239538000Y-97028000D02*
X237490000Y-97028000D01*
X237490000Y-97028000D02*
X239538000Y-97028000D01*
X239538000Y-97028000D02*
X239538000Y-100584000D01*
X239538000Y-100584000D02*
X237490000Y-100584000D01*
D29*
X237490000Y-100584000D02*
X239538000Y-100584000D01*
X239538000Y-97028000D02*
X237490000Y-97028000D01*
X239538000Y-97028000D02*
X239538000Y-95250000D01*
X239538000Y-95250000D02*
X239538000Y-93726000D01*
X239538000Y-98044000D02*
X239538000Y-97028000D01*
X239538000Y-98044000D02*
X239538000Y-100584000D01*
X239538000Y-98298000D02*
X239538000Y-98044000D01*
D28*
X218291210Y-114405210D02*
X230780790Y-114405210D01*
X230780790Y-114405210D02*
X240030000Y-105156000D01*
X235474000Y-101346000D02*
X231394000Y-101346000D01*
X231394000Y-101346000D02*
X229870000Y-101346000D01*
X235474000Y-101346000D02*
X235712000Y-101584000D01*
X243078000Y-134366000D02*
X241808000Y-133096000D01*
X241808000Y-133096000D02*
X241808000Y-128016000D01*
D29*
X241808000Y-133096000D02*
X241808000Y-128016000D01*
X139192000Y-131826000D02*
X145288000Y-131826000D01*
X135382000Y-135636000D02*
X135382000Y-135890000D01*
X139192000Y-131826000D02*
X135382000Y-135636000D01*
X213614000Y-92710000D02*
X212344000Y-93980000D01*
X215138000Y-92710000D02*
X213614000Y-92710000D01*
X215900000Y-91948000D02*
X215138000Y-92710000D01*
X197866000Y-100584000D02*
X197104000Y-100584000D01*
X185420000Y-100584000D02*
X184658000Y-100584000D01*
X183388000Y-100584000D02*
X182118000Y-100584000D01*
X183388000Y-100584000D02*
X184658000Y-100584000D01*
X182118000Y-100584000D02*
X179324000Y-103378000D01*
X158496000Y-124206000D02*
X155702000Y-127000000D01*
X155702000Y-127000000D02*
X148590000Y-127000000D01*
X208772000Y-100584000D02*
X197866000Y-100584000D01*
X208772000Y-100584000D02*
X211328000Y-98028000D01*
X231648000Y-98044000D02*
X232918000Y-98044000D01*
X233492000Y-97470000D02*
X233492000Y-96758000D01*
X232918000Y-98044000D02*
X233492000Y-97470000D01*
X226314000Y-102108000D02*
X229616000Y-98806000D01*
X230886000Y-98806000D02*
X231648000Y-98044000D01*
X229616000Y-98806000D02*
X230886000Y-98806000D01*
X231124000Y-97520000D02*
X229616000Y-97520000D01*
X231648000Y-98044000D02*
X231124000Y-97520000D01*
X228600000Y-83312000D02*
X229870000Y-82042000D01*
X229870000Y-82042000D02*
X231902000Y-82042000D01*
X225806000Y-97282000D02*
X226314000Y-97282000D01*
X226314000Y-97282000D02*
X227330000Y-96266000D01*
X227330000Y-96266000D02*
X227330000Y-93726000D01*
X227330000Y-93726000D02*
X228600000Y-92456000D01*
X228600000Y-92456000D02*
X228600000Y-83312000D01*
X229870000Y-99822000D02*
X233934000Y-99822000D01*
X234172000Y-99584000D02*
X235712000Y-99584000D01*
X233934000Y-99822000D02*
X234172000Y-99584000D01*
X218440000Y-82042000D02*
X220980000Y-84582000D01*
X220980000Y-84582000D02*
X222250000Y-85852000D01*
X222250000Y-85852000D02*
X222250000Y-86360000D01*
X165608000Y-85090000D02*
X174498000Y-85090000D01*
X218440000Y-82042000D02*
X200152000Y-82042000D01*
X198374000Y-83312000D02*
X199644000Y-82042000D01*
X199644000Y-82042000D02*
X200152000Y-82042000D01*
X220980000Y-89154000D02*
X220980000Y-91948000D01*
X222250000Y-86360000D02*
X222250000Y-87884000D01*
X222250000Y-87884000D02*
X220980000Y-89154000D01*
X222250000Y-86106000D02*
X222250000Y-86360000D01*
X164338000Y-123190000D02*
X161036000Y-119888000D01*
X184940000Y-96724000D02*
X183184000Y-96724000D01*
X183184000Y-96724000D02*
X176530000Y-103378000D01*
D28*
X135636000Y-119634000D02*
X140970000Y-114300000D01*
D30*
G36*
X243130000Y-88265000D02*
X242855750Y-88265000D01*
X242697000Y-88423750D01*
X242697000Y-88773000D01*
X242443000Y-88773000D01*
X242443000Y-88423750D01*
X242284250Y-88265000D01*
X241427690Y-88265000D01*
X241194301Y-88361673D01*
X241015673Y-88540302D01*
X240989122Y-88604401D01*
X240603489Y-88346729D01*
X240030000Y-88232655D01*
X239456511Y-88346729D01*
X238970330Y-88671585D01*
X238760000Y-88986366D01*
X238549670Y-88671585D01*
X238063489Y-88346729D01*
X237490000Y-88232655D01*
X236916511Y-88346729D01*
X236430330Y-88671585D01*
X236220000Y-88986366D01*
X236009670Y-88671585D01*
X235523489Y-88346729D01*
X234950000Y-88232655D01*
X234376511Y-88346729D01*
X233890330Y-88671585D01*
X233680000Y-88986366D01*
X233469670Y-88671585D01*
X232983489Y-88346729D01*
X232410000Y-88232655D01*
X231836511Y-88346729D01*
X231350330Y-88671585D01*
X231140000Y-88986366D01*
X230929670Y-88671585D01*
X230443489Y-88346729D01*
X229870000Y-88232655D01*
X229360000Y-88334100D01*
X229360000Y-83626802D01*
X230184802Y-82802000D01*
X231339537Y-82802000D01*
X231371673Y-82834192D01*
X231715201Y-82976838D01*
X232087167Y-82977162D01*
X232430943Y-82835117D01*
X232694192Y-82572327D01*
X232836838Y-82228799D01*
X232837162Y-81856833D01*
X232695117Y-81513057D01*
X232432327Y-81249808D01*
X232088799Y-81107162D01*
X231716833Y-81106838D01*
X231373057Y-81248883D01*
X231339882Y-81282000D01*
X229870000Y-81282000D01*
X229579160Y-81339852D01*
X229332599Y-81504599D01*
X228062599Y-82774599D01*
X227897852Y-83021161D01*
X227891566Y-83052764D01*
X226995122Y-82156320D01*
X226995162Y-82110833D01*
X226853117Y-81767057D01*
X226590327Y-81503808D01*
X226246799Y-81361162D01*
X225874833Y-81360838D01*
X225531057Y-81502883D01*
X225267808Y-81765673D01*
X225125162Y-82109201D01*
X225124980Y-82318178D01*
X224963122Y-82156320D01*
X224963162Y-82110833D01*
X224821117Y-81767057D01*
X224558327Y-81503808D01*
X224214799Y-81361162D01*
X223842833Y-81360838D01*
X223499057Y-81502883D01*
X223235808Y-81765673D01*
X223093162Y-82109201D01*
X223092838Y-82481167D01*
X223234883Y-82824943D01*
X223497673Y-83088192D01*
X223841201Y-83230838D01*
X223888077Y-83230879D01*
X226140878Y-85483680D01*
X226140838Y-85529167D01*
X226209402Y-85695105D01*
X226082327Y-85567808D01*
X225738799Y-85425162D01*
X225691923Y-85425121D01*
X223185122Y-82918320D01*
X223185162Y-82872833D01*
X223043117Y-82529057D01*
X222780327Y-82265808D01*
X222436799Y-82123162D01*
X222064833Y-82122838D01*
X221721057Y-82264883D01*
X221457808Y-82527673D01*
X221315162Y-82871201D01*
X221314838Y-83243167D01*
X221456883Y-83586943D01*
X221719673Y-83850192D01*
X222063201Y-83992838D01*
X222110077Y-83992879D01*
X224616878Y-86499680D01*
X224616838Y-86545167D01*
X224758883Y-86888943D01*
X225021673Y-87152192D01*
X225365201Y-87294838D01*
X225737167Y-87295162D01*
X226080943Y-87153117D01*
X226344192Y-86890327D01*
X226486838Y-86546799D01*
X226487162Y-86174833D01*
X226418598Y-86008895D01*
X226545673Y-86136192D01*
X226889201Y-86278838D01*
X227261167Y-86279162D01*
X227604943Y-86137117D01*
X227840000Y-85902470D01*
X227840000Y-88334100D01*
X227330000Y-88232655D01*
X226756511Y-88346729D01*
X226270330Y-88671585D01*
X226060000Y-88986366D01*
X225849670Y-88671585D01*
X225363489Y-88346729D01*
X224790000Y-88232655D01*
X224216511Y-88346729D01*
X223730330Y-88671585D01*
X223520000Y-88986366D01*
X223309670Y-88671585D01*
X222833034Y-88353107D01*
X222952148Y-88174840D01*
X223010000Y-87884000D01*
X223010000Y-85852000D01*
X222952148Y-85561161D01*
X222952148Y-85561160D01*
X222787401Y-85314599D01*
X218977401Y-81504599D01*
X218730839Y-81339852D01*
X218440000Y-81282000D01*
X199644000Y-81282000D01*
X199353160Y-81339852D01*
X199252666Y-81407000D01*
X181610000Y-81407000D01*
X181560590Y-81417006D01*
X181518965Y-81445447D01*
X181491685Y-81487841D01*
X181483000Y-81534000D01*
X181483000Y-85752842D01*
X172823813Y-87917639D01*
X172294557Y-87387458D01*
X171326433Y-86985458D01*
X170278166Y-86984543D01*
X169309342Y-87384853D01*
X168567458Y-88125443D01*
X168170712Y-89080914D01*
X163799198Y-90173792D01*
X163753690Y-90195483D01*
X163720206Y-90233170D01*
X163703000Y-90297000D01*
X163703000Y-121480198D01*
X161971122Y-119748320D01*
X161971162Y-119702833D01*
X161829117Y-119359057D01*
X161566327Y-119095808D01*
X161222799Y-118953162D01*
X160850833Y-118952838D01*
X160507057Y-119094883D01*
X160243808Y-119357673D01*
X160101162Y-119701201D01*
X160100838Y-120073167D01*
X160242883Y-120416943D01*
X160505673Y-120680192D01*
X160849201Y-120822838D01*
X160896077Y-120822879D01*
X161866198Y-121793000D01*
X135128000Y-121793000D01*
X135078590Y-121803006D01*
X135036965Y-121831447D01*
X135009685Y-121873841D01*
X135001000Y-121920000D01*
X135001000Y-131254500D01*
X134035800Y-131978400D01*
X134002275Y-132016051D01*
X133985000Y-132080000D01*
X133985000Y-141732000D01*
X133995006Y-141781410D01*
X134023447Y-141823035D01*
X134065841Y-141850315D01*
X134112000Y-141859000D01*
X142748000Y-141859000D01*
X142797410Y-141848994D01*
X142846035Y-141812735D01*
X146363934Y-137541000D01*
X180213000Y-137541000D01*
X180213000Y-143510000D01*
X180223006Y-143559410D01*
X180251447Y-143601035D01*
X180293841Y-143628315D01*
X180340000Y-143637000D01*
X203962000Y-143637000D01*
X204011410Y-143626994D01*
X204058491Y-143592574D01*
X208299083Y-138637275D01*
X210825000Y-138637275D01*
X210825000Y-138730725D01*
X211006547Y-139643425D01*
X211523550Y-140417175D01*
X212297300Y-140934178D01*
X213210000Y-141115725D01*
X214122700Y-140934178D01*
X214896450Y-140417175D01*
X214958707Y-140324000D01*
X228322560Y-140324000D01*
X228322560Y-142124000D01*
X228366838Y-142359317D01*
X228505910Y-142575441D01*
X228718110Y-142720431D01*
X228970000Y-142771440D01*
X230770000Y-142771440D01*
X231005317Y-142727162D01*
X231221441Y-142588090D01*
X231366431Y-142375890D01*
X231417440Y-142124000D01*
X231417440Y-140324000D01*
X231414974Y-140310892D01*
X234778514Y-140310892D01*
X235024817Y-140835358D01*
X235453076Y-141225645D01*
X235863110Y-141395476D01*
X236093000Y-141274155D01*
X236093000Y-140081000D01*
X234899181Y-140081000D01*
X234778514Y-140310892D01*
X231414974Y-140310892D01*
X231373162Y-140088683D01*
X231234090Y-139872559D01*
X231021890Y-139727569D01*
X230970854Y-139717234D01*
X231101929Y-139597108D01*
X234778514Y-139597108D01*
X234899181Y-139827000D01*
X236093000Y-139827000D01*
X236093000Y-138633845D01*
X236347000Y-138633845D01*
X236347000Y-139827000D01*
X236367000Y-139827000D01*
X236367000Y-140081000D01*
X236347000Y-140081000D01*
X236347000Y-141274155D01*
X236576890Y-141395476D01*
X236986924Y-141225645D01*
X237289937Y-140949499D01*
X237306838Y-141039317D01*
X237445910Y-141255441D01*
X237658110Y-141400431D01*
X237910000Y-141451440D01*
X239610000Y-141451440D01*
X239845317Y-141407162D01*
X240061441Y-141268090D01*
X240206431Y-141055890D01*
X240257440Y-140804000D01*
X240257440Y-139104000D01*
X240213162Y-138868683D01*
X240074090Y-138652559D01*
X239861890Y-138507569D01*
X239610000Y-138456560D01*
X237910000Y-138456560D01*
X237674683Y-138500838D01*
X237458559Y-138639910D01*
X237313569Y-138852110D01*
X237291699Y-138960107D01*
X236986924Y-138682355D01*
X236576890Y-138512524D01*
X236347000Y-138633845D01*
X236093000Y-138633845D01*
X235863110Y-138512524D01*
X235453076Y-138682355D01*
X235024817Y-139072642D01*
X234778514Y-139597108D01*
X231101929Y-139597108D01*
X231107966Y-139591576D01*
X231361046Y-139048742D01*
X231240997Y-138811000D01*
X229997000Y-138811000D01*
X229997000Y-138831000D01*
X229743000Y-138831000D01*
X229743000Y-138811000D01*
X228499003Y-138811000D01*
X228378954Y-139048742D01*
X228632034Y-139591576D01*
X228766538Y-139714844D01*
X228734683Y-139720838D01*
X228518559Y-139859910D01*
X228373569Y-140072110D01*
X228322560Y-140324000D01*
X214958707Y-140324000D01*
X215413453Y-139643425D01*
X215595000Y-138730725D01*
X215595000Y-138637275D01*
X215413453Y-137724575D01*
X214896450Y-136950825D01*
X214122700Y-136433822D01*
X213210000Y-136252275D01*
X212297300Y-136433822D01*
X211523550Y-136950825D01*
X211006547Y-137724575D01*
X210825000Y-138637275D01*
X208299083Y-138637275D01*
X210458485Y-136113928D01*
X228335000Y-136113928D01*
X228335000Y-136174072D01*
X228451845Y-136761491D01*
X228784591Y-137259481D01*
X229022582Y-137418501D01*
X228632034Y-137776424D01*
X228378954Y-138319258D01*
X228499003Y-138557000D01*
X229743000Y-138557000D01*
X229743000Y-138537000D01*
X229997000Y-138537000D01*
X229997000Y-138557000D01*
X231240997Y-138557000D01*
X231361046Y-138319258D01*
X231107966Y-137776424D01*
X230717418Y-137418501D01*
X230955409Y-137259481D01*
X231288155Y-136761491D01*
X231405000Y-136174072D01*
X231405000Y-136113928D01*
X231288155Y-135526509D01*
X230955409Y-135028519D01*
X230457419Y-134695773D01*
X229870000Y-134578928D01*
X229282581Y-134695773D01*
X228784591Y-135028519D01*
X228451845Y-135526509D01*
X228335000Y-136113928D01*
X210458485Y-136113928D01*
X214535522Y-131349750D01*
X231745000Y-131349750D01*
X231745000Y-132490309D01*
X231841673Y-132723698D01*
X232020301Y-132902327D01*
X232253690Y-132999000D01*
X233394250Y-132999000D01*
X233553000Y-132840250D01*
X233553000Y-131191000D01*
X233807000Y-131191000D01*
X233807000Y-132840250D01*
X233965750Y-132999000D01*
X235106310Y-132999000D01*
X235339699Y-132902327D01*
X235518327Y-132723698D01*
X235615000Y-132490309D01*
X235615000Y-131349750D01*
X235456250Y-131191000D01*
X233807000Y-131191000D01*
X233553000Y-131191000D01*
X231903750Y-131191000D01*
X231745000Y-131349750D01*
X214535522Y-131349750D01*
X216000649Y-129637691D01*
X231745000Y-129637691D01*
X231745000Y-130778250D01*
X231903750Y-130937000D01*
X233553000Y-130937000D01*
X233553000Y-129287750D01*
X233807000Y-129287750D01*
X233807000Y-130937000D01*
X235456250Y-130937000D01*
X235615000Y-130778250D01*
X235615000Y-129637691D01*
X235518327Y-129404302D01*
X235339699Y-129225673D01*
X235106310Y-129129000D01*
X233965750Y-129129000D01*
X233807000Y-129287750D01*
X233553000Y-129287750D01*
X233394250Y-129129000D01*
X232253690Y-129129000D01*
X232020301Y-129225673D01*
X231841673Y-129404302D01*
X231745000Y-129637691D01*
X216000649Y-129637691D01*
X218474236Y-126747207D01*
X234744665Y-126747207D01*
X235038630Y-127458658D01*
X235582479Y-128003457D01*
X236293416Y-128298663D01*
X237063207Y-128299335D01*
X237774658Y-128005370D01*
X238319457Y-127461521D01*
X238614663Y-126750584D01*
X238615335Y-125980793D01*
X238321370Y-125269342D01*
X237777521Y-124724543D01*
X237066584Y-124429337D01*
X236296793Y-124428665D01*
X235585342Y-124722630D01*
X235040543Y-125266479D01*
X234745337Y-125977416D01*
X234744665Y-126747207D01*
X218474236Y-126747207D01*
X223821354Y-120498890D01*
X237826524Y-120498890D01*
X237996355Y-120908924D01*
X238386642Y-121337183D01*
X238911108Y-121583486D01*
X239141000Y-121462819D01*
X239141000Y-120269000D01*
X239395000Y-120269000D01*
X239395000Y-121462819D01*
X239624892Y-121583486D01*
X240149358Y-121337183D01*
X240539645Y-120908924D01*
X240709476Y-120498890D01*
X240588155Y-120269000D01*
X239395000Y-120269000D01*
X239141000Y-120269000D01*
X237947845Y-120269000D01*
X237826524Y-120498890D01*
X223821354Y-120498890D01*
X226626473Y-117221000D01*
X237829693Y-117221000D01*
X237753907Y-117602000D01*
X237866946Y-118170285D01*
X238188853Y-118652054D01*
X238529553Y-118879702D01*
X238386642Y-118946817D01*
X237996355Y-119375076D01*
X237826524Y-119785110D01*
X237947845Y-120015000D01*
X239141000Y-120015000D01*
X239141000Y-119995000D01*
X239395000Y-119995000D01*
X239395000Y-120015000D01*
X240588155Y-120015000D01*
X240709476Y-119785110D01*
X240539645Y-119375076D01*
X240149358Y-118946817D01*
X240006447Y-118879702D01*
X240347147Y-118652054D01*
X240669054Y-118170285D01*
X240782093Y-117602000D01*
X240669054Y-117033715D01*
X240347147Y-116551946D01*
X240157000Y-116424894D01*
X240157000Y-116239106D01*
X240347147Y-116112054D01*
X240669054Y-115630285D01*
X240782093Y-115062000D01*
X240669054Y-114493715D01*
X240347147Y-114011946D01*
X240305548Y-113984150D01*
X240353317Y-113975162D01*
X240569441Y-113836090D01*
X240714431Y-113623890D01*
X240765440Y-113372000D01*
X240765440Y-111672000D01*
X240721162Y-111436683D01*
X240582090Y-111220559D01*
X240402162Y-111097619D01*
X240416333Y-111072111D01*
X240431582Y-111024059D01*
X240426935Y-110973861D01*
X240411000Y-110944123D01*
X240411000Y-108990460D01*
X240907959Y-107748062D01*
X241413592Y-106736796D01*
X241427000Y-106680000D01*
X241427000Y-106275703D01*
X241510330Y-106400415D01*
X241996511Y-106725271D01*
X242570000Y-106839345D01*
X243130000Y-106727954D01*
X243130000Y-133166421D01*
X242693000Y-132729420D01*
X242693000Y-128322822D01*
X242742838Y-128202799D01*
X242743162Y-127830833D01*
X242601117Y-127487057D01*
X242338327Y-127223808D01*
X241994799Y-127081162D01*
X241622833Y-127080838D01*
X241279057Y-127222883D01*
X241015808Y-127485673D01*
X240873162Y-127829201D01*
X240872838Y-128201167D01*
X240923000Y-128322569D01*
X240923000Y-129570276D01*
X240777521Y-129424543D01*
X240066584Y-129129337D01*
X239296793Y-129128665D01*
X238585342Y-129422630D01*
X238040543Y-129966479D01*
X237745337Y-130677416D01*
X237744665Y-131447207D01*
X238038630Y-132158658D01*
X238582479Y-132703457D01*
X239293416Y-132998663D01*
X240063207Y-132999335D01*
X240774658Y-132705370D01*
X240923000Y-132557287D01*
X240923000Y-133095995D01*
X240922999Y-133096000D01*
X240979190Y-133378484D01*
X240990367Y-133434675D01*
X241110677Y-133614733D01*
X241182210Y-133721790D01*
X242235255Y-134774834D01*
X242284883Y-134894943D01*
X242547673Y-135158192D01*
X242891201Y-135300838D01*
X243130000Y-135301046D01*
X243130000Y-144070000D01*
X130250000Y-144070000D01*
X130250000Y-142596892D01*
X157308514Y-142596892D01*
X157554817Y-143121358D01*
X157983076Y-143511645D01*
X158393110Y-143681476D01*
X158623000Y-143560155D01*
X158623000Y-142367000D01*
X157429181Y-142367000D01*
X157308514Y-142596892D01*
X130250000Y-142596892D01*
X130250000Y-141883108D01*
X157308514Y-141883108D01*
X157429181Y-142113000D01*
X158623000Y-142113000D01*
X158623000Y-140919845D01*
X158877000Y-140919845D01*
X158877000Y-142113000D01*
X158897000Y-142113000D01*
X158897000Y-142367000D01*
X158877000Y-142367000D01*
X158877000Y-143560155D01*
X159106890Y-143681476D01*
X159516924Y-143511645D01*
X159819937Y-143235499D01*
X159836838Y-143325317D01*
X159975910Y-143541441D01*
X160188110Y-143686431D01*
X160440000Y-143737440D01*
X162140000Y-143737440D01*
X162375317Y-143693162D01*
X162591441Y-143554090D01*
X162736431Y-143341890D01*
X162787440Y-143090000D01*
X162787440Y-142596892D01*
X170262514Y-142596892D01*
X170508817Y-143121358D01*
X170937076Y-143511645D01*
X171347110Y-143681476D01*
X171577000Y-143560155D01*
X171577000Y-142367000D01*
X170383181Y-142367000D01*
X170262514Y-142596892D01*
X162787440Y-142596892D01*
X162787440Y-141883108D01*
X170262514Y-141883108D01*
X170383181Y-142113000D01*
X171577000Y-142113000D01*
X171577000Y-140919845D01*
X171831000Y-140919845D01*
X171831000Y-142113000D01*
X171851000Y-142113000D01*
X171851000Y-142367000D01*
X171831000Y-142367000D01*
X171831000Y-143560155D01*
X172060890Y-143681476D01*
X172470924Y-143511645D01*
X172773937Y-143235499D01*
X172790838Y-143325317D01*
X172929910Y-143541441D01*
X173142110Y-143686431D01*
X173394000Y-143737440D01*
X175094000Y-143737440D01*
X175329317Y-143693162D01*
X175545441Y-143554090D01*
X175690431Y-143341890D01*
X175741440Y-143090000D01*
X175741440Y-141390000D01*
X175697162Y-141154683D01*
X175558090Y-140938559D01*
X175345890Y-140793569D01*
X175094000Y-140742560D01*
X173394000Y-140742560D01*
X173158683Y-140786838D01*
X172942559Y-140925910D01*
X172797569Y-141138110D01*
X172775699Y-141246107D01*
X172470924Y-140968355D01*
X172060890Y-140798524D01*
X171831000Y-140919845D01*
X171577000Y-140919845D01*
X171347110Y-140798524D01*
X170937076Y-140968355D01*
X170508817Y-141358642D01*
X170262514Y-141883108D01*
X162787440Y-141883108D01*
X162787440Y-141390000D01*
X162743162Y-141154683D01*
X162604090Y-140938559D01*
X162391890Y-140793569D01*
X162140000Y-140742560D01*
X160440000Y-140742560D01*
X160204683Y-140786838D01*
X159988559Y-140925910D01*
X159843569Y-141138110D01*
X159821699Y-141246107D01*
X159516924Y-140968355D01*
X159106890Y-140798524D01*
X158877000Y-140919845D01*
X158623000Y-140919845D01*
X158393110Y-140798524D01*
X157983076Y-140968355D01*
X157554817Y-141358642D01*
X157308514Y-141883108D01*
X130250000Y-141883108D01*
X130250000Y-129826219D01*
X130301056Y-119819167D01*
X134700838Y-119819167D01*
X134842883Y-120162943D01*
X135105673Y-120426192D01*
X135449201Y-120568838D01*
X135821167Y-120569162D01*
X136164943Y-120427117D01*
X136428192Y-120164327D01*
X136478566Y-120043014D01*
X139761579Y-116760000D01*
X141413173Y-116760000D01*
X141556660Y-117481358D01*
X141965277Y-118092896D01*
X142576815Y-118501513D01*
X143298173Y-118645000D01*
X143881827Y-118645000D01*
X144603185Y-118501513D01*
X145214723Y-118092896D01*
X145623340Y-117481358D01*
X145766827Y-116760000D01*
X146413173Y-116760000D01*
X146556660Y-117481358D01*
X146965277Y-118092896D01*
X147576815Y-118501513D01*
X148298173Y-118645000D01*
X148881827Y-118645000D01*
X149603185Y-118501513D01*
X150214723Y-118092896D01*
X150623340Y-117481358D01*
X150766827Y-116760000D01*
X151413173Y-116760000D01*
X151556660Y-117481358D01*
X151965277Y-118092896D01*
X152576815Y-118501513D01*
X153298173Y-118645000D01*
X153881827Y-118645000D01*
X154603185Y-118501513D01*
X155214723Y-118092896D01*
X155623340Y-117481358D01*
X155766827Y-116760000D01*
X155623340Y-116038642D01*
X155214723Y-115427104D01*
X154603185Y-115018487D01*
X153881827Y-114875000D01*
X153298173Y-114875000D01*
X152576815Y-115018487D01*
X151965277Y-115427104D01*
X151556660Y-116038642D01*
X151413173Y-116760000D01*
X150766827Y-116760000D01*
X150623340Y-116038642D01*
X150214723Y-115427104D01*
X149603185Y-115018487D01*
X148881827Y-114875000D01*
X148298173Y-114875000D01*
X147576815Y-115018487D01*
X146965277Y-115427104D01*
X146556660Y-116038642D01*
X146413173Y-116760000D01*
X145766827Y-116760000D01*
X145623340Y-116038642D01*
X145214723Y-115427104D01*
X144603185Y-115018487D01*
X143881827Y-114875000D01*
X143298173Y-114875000D01*
X142576815Y-115018487D01*
X141965277Y-115427104D01*
X141556660Y-116038642D01*
X141413173Y-116760000D01*
X139761579Y-116760000D01*
X141378834Y-115142745D01*
X141498943Y-115093117D01*
X141762192Y-114830327D01*
X141904838Y-114486799D01*
X141905162Y-114114833D01*
X141763117Y-113771057D01*
X141500327Y-113507808D01*
X141156799Y-113365162D01*
X140784833Y-113364838D01*
X140441057Y-113506883D01*
X140177808Y-113769673D01*
X140127434Y-113890987D01*
X135227164Y-118791256D01*
X135107057Y-118840883D01*
X134843808Y-119103673D01*
X134701162Y-119447201D01*
X134700838Y-119819167D01*
X130301056Y-119819167D01*
X130335694Y-113030000D01*
X136407907Y-113030000D01*
X136520946Y-113598285D01*
X136842853Y-114080054D01*
X137324622Y-114401961D01*
X137892907Y-114515000D01*
X137951093Y-114515000D01*
X138519378Y-114401961D01*
X139001147Y-114080054D01*
X139323054Y-113598285D01*
X139436093Y-113030000D01*
X139323054Y-112461715D01*
X139001147Y-111979946D01*
X138957223Y-111950597D01*
X139131698Y-111878327D01*
X139250025Y-111760000D01*
X141413173Y-111760000D01*
X141556660Y-112481358D01*
X141965277Y-113092896D01*
X142576815Y-113501513D01*
X143298173Y-113645000D01*
X143881827Y-113645000D01*
X144603185Y-113501513D01*
X145214723Y-113092896D01*
X145623340Y-112481358D01*
X145766827Y-111760000D01*
X146413173Y-111760000D01*
X146556660Y-112481358D01*
X146965277Y-113092896D01*
X147576815Y-113501513D01*
X148298173Y-113645000D01*
X148881827Y-113645000D01*
X149603185Y-113501513D01*
X150214723Y-113092896D01*
X150623340Y-112481358D01*
X150766827Y-111760000D01*
X151413173Y-111760000D01*
X151556660Y-112481358D01*
X151965277Y-113092896D01*
X152576815Y-113501513D01*
X153298173Y-113645000D01*
X153881827Y-113645000D01*
X154603185Y-113501513D01*
X155214723Y-113092896D01*
X155623340Y-112481358D01*
X155766827Y-111760000D01*
X155623340Y-111038642D01*
X155214723Y-110427104D01*
X154603185Y-110018487D01*
X153881827Y-109875000D01*
X153298173Y-109875000D01*
X152576815Y-110018487D01*
X151965277Y-110427104D01*
X151556660Y-111038642D01*
X151413173Y-111760000D01*
X150766827Y-111760000D01*
X150623340Y-111038642D01*
X150214723Y-110427104D01*
X149603185Y-110018487D01*
X148881827Y-109875000D01*
X148298173Y-109875000D01*
X147576815Y-110018487D01*
X146965277Y-110427104D01*
X146556660Y-111038642D01*
X146413173Y-111760000D01*
X145766827Y-111760000D01*
X145623340Y-111038642D01*
X145214723Y-110427104D01*
X144603185Y-110018487D01*
X143881827Y-109875000D01*
X143298173Y-109875000D01*
X142576815Y-110018487D01*
X141965277Y-110427104D01*
X141556660Y-111038642D01*
X141413173Y-111760000D01*
X139250025Y-111760000D01*
X139310327Y-111699699D01*
X139407000Y-111466310D01*
X139407000Y-110775750D01*
X139248250Y-110617000D01*
X138049000Y-110617000D01*
X138049000Y-110637000D01*
X137795000Y-110637000D01*
X137795000Y-110617000D01*
X136595750Y-110617000D01*
X136437000Y-110775750D01*
X136437000Y-111466310D01*
X136533673Y-111699699D01*
X136712302Y-111878327D01*
X136886777Y-111950597D01*
X136842853Y-111979946D01*
X136520946Y-112461715D01*
X136407907Y-113030000D01*
X130335694Y-113030000D01*
X130353634Y-109513690D01*
X136437000Y-109513690D01*
X136437000Y-110204250D01*
X136595750Y-110363000D01*
X137795000Y-110363000D01*
X137795000Y-109163750D01*
X138049000Y-109163750D01*
X138049000Y-110363000D01*
X139248250Y-110363000D01*
X139407000Y-110204250D01*
X139407000Y-109513690D01*
X139310327Y-109280301D01*
X139131698Y-109101673D01*
X138898309Y-109005000D01*
X138207750Y-109005000D01*
X138049000Y-109163750D01*
X137795000Y-109163750D01*
X137636250Y-109005000D01*
X136945691Y-109005000D01*
X136712302Y-109101673D01*
X136533673Y-109280301D01*
X136437000Y-109513690D01*
X130353634Y-109513690D01*
X130367683Y-106760000D01*
X141413173Y-106760000D01*
X141556660Y-107481358D01*
X141965277Y-108092896D01*
X142576815Y-108501513D01*
X143298173Y-108645000D01*
X143881827Y-108645000D01*
X144603185Y-108501513D01*
X145214723Y-108092896D01*
X145623340Y-107481358D01*
X145766827Y-106760000D01*
X146413173Y-106760000D01*
X146556660Y-107481358D01*
X146965277Y-108092896D01*
X147576815Y-108501513D01*
X148298173Y-108645000D01*
X148881827Y-108645000D01*
X149603185Y-108501513D01*
X150214723Y-108092896D01*
X150623340Y-107481358D01*
X150766827Y-106760000D01*
X151413173Y-106760000D01*
X151556660Y-107481358D01*
X151965277Y-108092896D01*
X152576815Y-108501513D01*
X153298173Y-108645000D01*
X153881827Y-108645000D01*
X154603185Y-108501513D01*
X155214723Y-108092896D01*
X155623340Y-107481358D01*
X155766827Y-106760000D01*
X155623340Y-106038642D01*
X155214723Y-105427104D01*
X154603185Y-105018487D01*
X153881827Y-104875000D01*
X153298173Y-104875000D01*
X152576815Y-105018487D01*
X151965277Y-105427104D01*
X151556660Y-106038642D01*
X151413173Y-106760000D01*
X150766827Y-106760000D01*
X150623340Y-106038642D01*
X150214723Y-105427104D01*
X149603185Y-105018487D01*
X148881827Y-104875000D01*
X148298173Y-104875000D01*
X147576815Y-105018487D01*
X146965277Y-105427104D01*
X146556660Y-106038642D01*
X146413173Y-106760000D01*
X145766827Y-106760000D01*
X145623340Y-106038642D01*
X145214723Y-105427104D01*
X144603185Y-105018487D01*
X143881827Y-104875000D01*
X143298173Y-104875000D01*
X142576815Y-105018487D01*
X141965277Y-105427104D01*
X141556660Y-106038642D01*
X141413173Y-106760000D01*
X130367683Y-106760000D01*
X130428998Y-94742648D01*
X130428922Y-94737547D01*
X130369142Y-93033795D01*
X133056716Y-93033795D01*
X133305106Y-93634943D01*
X133764637Y-94095278D01*
X134365352Y-94344716D01*
X135015795Y-94345284D01*
X135616943Y-94096894D01*
X135851715Y-93862532D01*
X138219073Y-93862532D01*
X138317736Y-94129387D01*
X138927461Y-94355908D01*
X139577460Y-94331856D01*
X140066264Y-94129387D01*
X140164927Y-93862532D01*
X139192000Y-92889605D01*
X138219073Y-93862532D01*
X135851715Y-93862532D01*
X136077278Y-93637363D01*
X136326716Y-93036648D01*
X136327232Y-92445461D01*
X137546092Y-92445461D01*
X137570144Y-93095460D01*
X137772613Y-93584264D01*
X138039468Y-93682927D01*
X139012395Y-92710000D01*
X139371605Y-92710000D01*
X140344532Y-93682927D01*
X140611387Y-93584264D01*
X140815893Y-93033795D01*
X143724716Y-93033795D01*
X143973106Y-93634943D01*
X144432637Y-94095278D01*
X145033352Y-94344716D01*
X145683795Y-94345284D01*
X146284943Y-94096894D01*
X146519715Y-93862532D01*
X148887073Y-93862532D01*
X148985736Y-94129387D01*
X149595461Y-94355908D01*
X150245460Y-94331856D01*
X150734264Y-94129387D01*
X150832927Y-93862532D01*
X149860000Y-92889605D01*
X148887073Y-93862532D01*
X146519715Y-93862532D01*
X146745278Y-93637363D01*
X146994716Y-93036648D01*
X146995232Y-92445461D01*
X148214092Y-92445461D01*
X148238144Y-93095460D01*
X148440613Y-93584264D01*
X148707468Y-93682927D01*
X149680395Y-92710000D01*
X150039605Y-92710000D01*
X151012532Y-93682927D01*
X151279387Y-93584264D01*
X151483893Y-93033795D01*
X154138716Y-93033795D01*
X154387106Y-93634943D01*
X154846637Y-94095278D01*
X155447352Y-94344716D01*
X156097795Y-94345284D01*
X156698943Y-94096894D01*
X156933715Y-93862532D01*
X159301073Y-93862532D01*
X159399736Y-94129387D01*
X160009461Y-94355908D01*
X160659460Y-94331856D01*
X161148264Y-94129387D01*
X161246927Y-93862532D01*
X160274000Y-92889605D01*
X159301073Y-93862532D01*
X156933715Y-93862532D01*
X157159278Y-93637363D01*
X157408716Y-93036648D01*
X157409232Y-92445461D01*
X158628092Y-92445461D01*
X158652144Y-93095460D01*
X158854613Y-93584264D01*
X159121468Y-93682927D01*
X160094395Y-92710000D01*
X160453605Y-92710000D01*
X161426532Y-93682927D01*
X161693387Y-93584264D01*
X161919908Y-92974539D01*
X161895856Y-92324540D01*
X161693387Y-91835736D01*
X161426532Y-91737073D01*
X160453605Y-92710000D01*
X160094395Y-92710000D01*
X159121468Y-91737073D01*
X158854613Y-91835736D01*
X158628092Y-92445461D01*
X157409232Y-92445461D01*
X157409284Y-92386205D01*
X157160894Y-91785057D01*
X156933703Y-91557468D01*
X159301073Y-91557468D01*
X160274000Y-92530395D01*
X161246927Y-91557468D01*
X161148264Y-91290613D01*
X160538539Y-91064092D01*
X159888540Y-91088144D01*
X159399736Y-91290613D01*
X159301073Y-91557468D01*
X156933703Y-91557468D01*
X156701363Y-91324722D01*
X156100648Y-91075284D01*
X155450205Y-91074716D01*
X154849057Y-91323106D01*
X154388722Y-91782637D01*
X154139284Y-92383352D01*
X154138716Y-93033795D01*
X151483893Y-93033795D01*
X151505908Y-92974539D01*
X151481856Y-92324540D01*
X151279387Y-91835736D01*
X151012532Y-91737073D01*
X150039605Y-92710000D01*
X149680395Y-92710000D01*
X148707468Y-91737073D01*
X148440613Y-91835736D01*
X148214092Y-92445461D01*
X146995232Y-92445461D01*
X146995284Y-92386205D01*
X146746894Y-91785057D01*
X146519703Y-91557468D01*
X148887073Y-91557468D01*
X149860000Y-92530395D01*
X150832927Y-91557468D01*
X150734264Y-91290613D01*
X150124539Y-91064092D01*
X149474540Y-91088144D01*
X148985736Y-91290613D01*
X148887073Y-91557468D01*
X146519703Y-91557468D01*
X146287363Y-91324722D01*
X145686648Y-91075284D01*
X145036205Y-91074716D01*
X144435057Y-91323106D01*
X143974722Y-91782637D01*
X143725284Y-92383352D01*
X143724716Y-93033795D01*
X140815893Y-93033795D01*
X140837908Y-92974539D01*
X140813856Y-92324540D01*
X140611387Y-91835736D01*
X140344532Y-91737073D01*
X139371605Y-92710000D01*
X139012395Y-92710000D01*
X138039468Y-91737073D01*
X137772613Y-91835736D01*
X137546092Y-92445461D01*
X136327232Y-92445461D01*
X136327284Y-92386205D01*
X136078894Y-91785057D01*
X135851703Y-91557468D01*
X138219073Y-91557468D01*
X139192000Y-92530395D01*
X140164927Y-91557468D01*
X140066264Y-91290613D01*
X139456539Y-91064092D01*
X138806540Y-91088144D01*
X138317736Y-91290613D01*
X138219073Y-91557468D01*
X135851703Y-91557468D01*
X135619363Y-91324722D01*
X135018648Y-91075284D01*
X134368205Y-91074716D01*
X133767057Y-91323106D01*
X133306722Y-91782637D01*
X133057284Y-92383352D01*
X133056716Y-93033795D01*
X130369142Y-93033795D01*
X130250000Y-89638274D01*
X130250000Y-86533795D01*
X133056716Y-86533795D01*
X133305106Y-87134943D01*
X133764637Y-87595278D01*
X134365352Y-87844716D01*
X135015795Y-87845284D01*
X135616943Y-87596894D01*
X135851715Y-87362532D01*
X138219073Y-87362532D01*
X138317736Y-87629387D01*
X138927461Y-87855908D01*
X139577460Y-87831856D01*
X140066264Y-87629387D01*
X140164927Y-87362532D01*
X139192000Y-86389605D01*
X138219073Y-87362532D01*
X135851715Y-87362532D01*
X136077278Y-87137363D01*
X136326716Y-86536648D01*
X136327232Y-85945461D01*
X137546092Y-85945461D01*
X137570144Y-86595460D01*
X137772613Y-87084264D01*
X138039468Y-87182927D01*
X139012395Y-86210000D01*
X139371605Y-86210000D01*
X140344532Y-87182927D01*
X140611387Y-87084264D01*
X140815893Y-86533795D01*
X143724716Y-86533795D01*
X143973106Y-87134943D01*
X144432637Y-87595278D01*
X145033352Y-87844716D01*
X145683795Y-87845284D01*
X146284943Y-87596894D01*
X146519715Y-87362532D01*
X148887073Y-87362532D01*
X148985736Y-87629387D01*
X149595461Y-87855908D01*
X150245460Y-87831856D01*
X150734264Y-87629387D01*
X150832927Y-87362532D01*
X149860000Y-86389605D01*
X148887073Y-87362532D01*
X146519715Y-87362532D01*
X146745278Y-87137363D01*
X146994716Y-86536648D01*
X146995232Y-85945461D01*
X148214092Y-85945461D01*
X148238144Y-86595460D01*
X148440613Y-87084264D01*
X148707468Y-87182927D01*
X149680395Y-86210000D01*
X150039605Y-86210000D01*
X151012532Y-87182927D01*
X151279387Y-87084264D01*
X151483893Y-86533795D01*
X154138716Y-86533795D01*
X154387106Y-87134943D01*
X154846637Y-87595278D01*
X155447352Y-87844716D01*
X156097795Y-87845284D01*
X156698943Y-87596894D01*
X156933715Y-87362532D01*
X159301073Y-87362532D01*
X159399736Y-87629387D01*
X160009461Y-87855908D01*
X160659460Y-87831856D01*
X161148264Y-87629387D01*
X161246927Y-87362532D01*
X160274000Y-86389605D01*
X159301073Y-87362532D01*
X156933715Y-87362532D01*
X157159278Y-87137363D01*
X157408716Y-86536648D01*
X157409232Y-85945461D01*
X158628092Y-85945461D01*
X158652144Y-86595460D01*
X158854613Y-87084264D01*
X159121468Y-87182927D01*
X160094395Y-86210000D01*
X160453605Y-86210000D01*
X161426532Y-87182927D01*
X161693387Y-87084264D01*
X161919908Y-86474539D01*
X161895856Y-85824540D01*
X161693387Y-85335736D01*
X161529566Y-85275167D01*
X164672838Y-85275167D01*
X164814883Y-85618943D01*
X165077673Y-85882192D01*
X165421201Y-86024838D01*
X165793167Y-86025162D01*
X166136943Y-85883117D01*
X166170118Y-85850000D01*
X173935537Y-85850000D01*
X173967673Y-85882192D01*
X174311201Y-86024838D01*
X174683167Y-86025162D01*
X175026943Y-85883117D01*
X175290192Y-85620327D01*
X175432838Y-85276799D01*
X175433162Y-84904833D01*
X175291117Y-84561057D01*
X175028327Y-84297808D01*
X174684799Y-84155162D01*
X174312833Y-84154838D01*
X173969057Y-84296883D01*
X173935882Y-84330000D01*
X166170463Y-84330000D01*
X166138327Y-84297808D01*
X165794799Y-84155162D01*
X165422833Y-84154838D01*
X165079057Y-84296883D01*
X164815808Y-84559673D01*
X164673162Y-84903201D01*
X164672838Y-85275167D01*
X161529566Y-85275167D01*
X161426532Y-85237073D01*
X160453605Y-86210000D01*
X160094395Y-86210000D01*
X159121468Y-85237073D01*
X158854613Y-85335736D01*
X158628092Y-85945461D01*
X157409232Y-85945461D01*
X157409284Y-85886205D01*
X157160894Y-85285057D01*
X156933703Y-85057468D01*
X159301073Y-85057468D01*
X160274000Y-86030395D01*
X161246927Y-85057468D01*
X161148264Y-84790613D01*
X160538539Y-84564092D01*
X159888540Y-84588144D01*
X159399736Y-84790613D01*
X159301073Y-85057468D01*
X156933703Y-85057468D01*
X156701363Y-84824722D01*
X156100648Y-84575284D01*
X155450205Y-84574716D01*
X154849057Y-84823106D01*
X154388722Y-85282637D01*
X154139284Y-85883352D01*
X154138716Y-86533795D01*
X151483893Y-86533795D01*
X151505908Y-86474539D01*
X151481856Y-85824540D01*
X151279387Y-85335736D01*
X151012532Y-85237073D01*
X150039605Y-86210000D01*
X149680395Y-86210000D01*
X148707468Y-85237073D01*
X148440613Y-85335736D01*
X148214092Y-85945461D01*
X146995232Y-85945461D01*
X146995284Y-85886205D01*
X146746894Y-85285057D01*
X146519703Y-85057468D01*
X148887073Y-85057468D01*
X149860000Y-86030395D01*
X150832927Y-85057468D01*
X150734264Y-84790613D01*
X150124539Y-84564092D01*
X149474540Y-84588144D01*
X148985736Y-84790613D01*
X148887073Y-85057468D01*
X146519703Y-85057468D01*
X146287363Y-84824722D01*
X145686648Y-84575284D01*
X145036205Y-84574716D01*
X144435057Y-84823106D01*
X143974722Y-85282637D01*
X143725284Y-85883352D01*
X143724716Y-86533795D01*
X140815893Y-86533795D01*
X140837908Y-86474539D01*
X140813856Y-85824540D01*
X140611387Y-85335736D01*
X140344532Y-85237073D01*
X139371605Y-86210000D01*
X139012395Y-86210000D01*
X138039468Y-85237073D01*
X137772613Y-85335736D01*
X137546092Y-85945461D01*
X136327232Y-85945461D01*
X136327284Y-85886205D01*
X136078894Y-85285057D01*
X135851703Y-85057468D01*
X138219073Y-85057468D01*
X139192000Y-86030395D01*
X140164927Y-85057468D01*
X140066264Y-84790613D01*
X139456539Y-84564092D01*
X138806540Y-84588144D01*
X138317736Y-84790613D01*
X138219073Y-85057468D01*
X135851703Y-85057468D01*
X135619363Y-84824722D01*
X135018648Y-84575284D01*
X134368205Y-84574716D01*
X133767057Y-84823106D01*
X133306722Y-85282637D01*
X133057284Y-85883352D01*
X133056716Y-86533795D01*
X130250000Y-86533795D01*
X130250000Y-80720000D01*
X243130000Y-80720000D01*
X243130000Y-88265000D01*
X243130000Y-88265000D01*
G37*
X243130000Y-88265000D02*
X242855750Y-88265000D01*
X242697000Y-88423750D01*
X242697000Y-88773000D01*
X242443000Y-88773000D01*
X242443000Y-88423750D01*
X242284250Y-88265000D01*
X241427690Y-88265000D01*
X241194301Y-88361673D01*
X241015673Y-88540302D01*
X240989122Y-88604401D01*
X240603489Y-88346729D01*
X240030000Y-88232655D01*
X239456511Y-88346729D01*
X238970330Y-88671585D01*
X238760000Y-88986366D01*
X238549670Y-88671585D01*
X238063489Y-88346729D01*
X237490000Y-88232655D01*
X236916511Y-88346729D01*
X236430330Y-88671585D01*
X236220000Y-88986366D01*
X236009670Y-88671585D01*
X235523489Y-88346729D01*
X234950000Y-88232655D01*
X234376511Y-88346729D01*
X233890330Y-88671585D01*
X233680000Y-88986366D01*
X233469670Y-88671585D01*
X232983489Y-88346729D01*
X232410000Y-88232655D01*
X231836511Y-88346729D01*
X231350330Y-88671585D01*
X231140000Y-88986366D01*
X230929670Y-88671585D01*
X230443489Y-88346729D01*
X229870000Y-88232655D01*
X229360000Y-88334100D01*
X229360000Y-83626802D01*
X230184802Y-82802000D01*
X231339537Y-82802000D01*
X231371673Y-82834192D01*
X231715201Y-82976838D01*
X232087167Y-82977162D01*
X232430943Y-82835117D01*
X232694192Y-82572327D01*
X232836838Y-82228799D01*
X232837162Y-81856833D01*
X232695117Y-81513057D01*
X232432327Y-81249808D01*
X232088799Y-81107162D01*
X231716833Y-81106838D01*
X231373057Y-81248883D01*
X231339882Y-81282000D01*
X229870000Y-81282000D01*
X229579160Y-81339852D01*
X229332599Y-81504599D01*
X228062599Y-82774599D01*
X227897852Y-83021161D01*
X227891566Y-83052764D01*
X226995122Y-82156320D01*
X226995162Y-82110833D01*
X226853117Y-81767057D01*
X226590327Y-81503808D01*
X226246799Y-81361162D01*
X225874833Y-81360838D01*
X225531057Y-81502883D01*
X225267808Y-81765673D01*
X225125162Y-82109201D01*
X225124980Y-82318178D01*
X224963122Y-82156320D01*
X224963162Y-82110833D01*
X224821117Y-81767057D01*
X224558327Y-81503808D01*
X224214799Y-81361162D01*
X223842833Y-81360838D01*
X223499057Y-81502883D01*
X223235808Y-81765673D01*
X223093162Y-82109201D01*
X223092838Y-82481167D01*
X223234883Y-82824943D01*
X223497673Y-83088192D01*
X223841201Y-83230838D01*
X223888077Y-83230879D01*
X226140878Y-85483680D01*
X226140838Y-85529167D01*
X226209402Y-85695105D01*
X226082327Y-85567808D01*
X225738799Y-85425162D01*
X225691923Y-85425121D01*
X223185122Y-82918320D01*
X223185162Y-82872833D01*
X223043117Y-82529057D01*
X222780327Y-82265808D01*
X222436799Y-82123162D01*
X222064833Y-82122838D01*
X221721057Y-82264883D01*
X221457808Y-82527673D01*
X221315162Y-82871201D01*
X221314838Y-83243167D01*
X221456883Y-83586943D01*
X221719673Y-83850192D01*
X222063201Y-83992838D01*
X222110077Y-83992879D01*
X224616878Y-86499680D01*
X224616838Y-86545167D01*
X224758883Y-86888943D01*
X225021673Y-87152192D01*
X225365201Y-87294838D01*
X225737167Y-87295162D01*
X226080943Y-87153117D01*
X226344192Y-86890327D01*
X226486838Y-86546799D01*
X226487162Y-86174833D01*
X226418598Y-86008895D01*
X226545673Y-86136192D01*
X226889201Y-86278838D01*
X227261167Y-86279162D01*
X227604943Y-86137117D01*
X227840000Y-85902470D01*
X227840000Y-88334100D01*
X227330000Y-88232655D01*
X226756511Y-88346729D01*
X226270330Y-88671585D01*
X226060000Y-88986366D01*
X225849670Y-88671585D01*
X225363489Y-88346729D01*
X224790000Y-88232655D01*
X224216511Y-88346729D01*
X223730330Y-88671585D01*
X223520000Y-88986366D01*
X223309670Y-88671585D01*
X222833034Y-88353107D01*
X222952148Y-88174840D01*
X223010000Y-87884000D01*
X223010000Y-85852000D01*
X222952148Y-85561161D01*
X222952148Y-85561160D01*
X222787401Y-85314599D01*
X218977401Y-81504599D01*
X218730839Y-81339852D01*
X218440000Y-81282000D01*
X199644000Y-81282000D01*
X199353160Y-81339852D01*
X199252666Y-81407000D01*
X181610000Y-81407000D01*
X181560590Y-81417006D01*
X181518965Y-81445447D01*
X181491685Y-81487841D01*
X181483000Y-81534000D01*
X181483000Y-85752842D01*
X172823813Y-87917639D01*
X172294557Y-87387458D01*
X171326433Y-86985458D01*
X170278166Y-86984543D01*
X169309342Y-87384853D01*
X168567458Y-88125443D01*
X168170712Y-89080914D01*
X163799198Y-90173792D01*
X163753690Y-90195483D01*
X163720206Y-90233170D01*
X163703000Y-90297000D01*
X163703000Y-121480198D01*
X161971122Y-119748320D01*
X161971162Y-119702833D01*
X161829117Y-119359057D01*
X161566327Y-119095808D01*
X161222799Y-118953162D01*
X160850833Y-118952838D01*
X160507057Y-119094883D01*
X160243808Y-119357673D01*
X160101162Y-119701201D01*
X160100838Y-120073167D01*
X160242883Y-120416943D01*
X160505673Y-120680192D01*
X160849201Y-120822838D01*
X160896077Y-120822879D01*
X161866198Y-121793000D01*
X135128000Y-121793000D01*
X135078590Y-121803006D01*
X135036965Y-121831447D01*
X135009685Y-121873841D01*
X135001000Y-121920000D01*
X135001000Y-131254500D01*
X134035800Y-131978400D01*
X134002275Y-132016051D01*
X133985000Y-132080000D01*
X133985000Y-141732000D01*
X133995006Y-141781410D01*
X134023447Y-141823035D01*
X134065841Y-141850315D01*
X134112000Y-141859000D01*
X142748000Y-141859000D01*
X142797410Y-141848994D01*
X142846035Y-141812735D01*
X146363934Y-137541000D01*
X180213000Y-137541000D01*
X180213000Y-143510000D01*
X180223006Y-143559410D01*
X180251447Y-143601035D01*
X180293841Y-143628315D01*
X180340000Y-143637000D01*
X203962000Y-143637000D01*
X204011410Y-143626994D01*
X204058491Y-143592574D01*
X208299083Y-138637275D01*
X210825000Y-138637275D01*
X210825000Y-138730725D01*
X211006547Y-139643425D01*
X211523550Y-140417175D01*
X212297300Y-140934178D01*
X213210000Y-141115725D01*
X214122700Y-140934178D01*
X214896450Y-140417175D01*
X214958707Y-140324000D01*
X228322560Y-140324000D01*
X228322560Y-142124000D01*
X228366838Y-142359317D01*
X228505910Y-142575441D01*
X228718110Y-142720431D01*
X228970000Y-142771440D01*
X230770000Y-142771440D01*
X231005317Y-142727162D01*
X231221441Y-142588090D01*
X231366431Y-142375890D01*
X231417440Y-142124000D01*
X231417440Y-140324000D01*
X231414974Y-140310892D01*
X234778514Y-140310892D01*
X235024817Y-140835358D01*
X235453076Y-141225645D01*
X235863110Y-141395476D01*
X236093000Y-141274155D01*
X236093000Y-140081000D01*
X234899181Y-140081000D01*
X234778514Y-140310892D01*
X231414974Y-140310892D01*
X231373162Y-140088683D01*
X231234090Y-139872559D01*
X231021890Y-139727569D01*
X230970854Y-139717234D01*
X231101929Y-139597108D01*
X234778514Y-139597108D01*
X234899181Y-139827000D01*
X236093000Y-139827000D01*
X236093000Y-138633845D01*
X236347000Y-138633845D01*
X236347000Y-139827000D01*
X236367000Y-139827000D01*
X236367000Y-140081000D01*
X236347000Y-140081000D01*
X236347000Y-141274155D01*
X236576890Y-141395476D01*
X236986924Y-141225645D01*
X237289937Y-140949499D01*
X237306838Y-141039317D01*
X237445910Y-141255441D01*
X237658110Y-141400431D01*
X237910000Y-141451440D01*
X239610000Y-141451440D01*
X239845317Y-141407162D01*
X240061441Y-141268090D01*
X240206431Y-141055890D01*
X240257440Y-140804000D01*
X240257440Y-139104000D01*
X240213162Y-138868683D01*
X240074090Y-138652559D01*
X239861890Y-138507569D01*
X239610000Y-138456560D01*
X237910000Y-138456560D01*
X237674683Y-138500838D01*
X237458559Y-138639910D01*
X237313569Y-138852110D01*
X237291699Y-138960107D01*
X236986924Y-138682355D01*
X236576890Y-138512524D01*
X236347000Y-138633845D01*
X236093000Y-138633845D01*
X235863110Y-138512524D01*
X235453076Y-138682355D01*
X235024817Y-139072642D01*
X234778514Y-139597108D01*
X231101929Y-139597108D01*
X231107966Y-139591576D01*
X231361046Y-139048742D01*
X231240997Y-138811000D01*
X229997000Y-138811000D01*
X229997000Y-138831000D01*
X229743000Y-138831000D01*
X229743000Y-138811000D01*
X228499003Y-138811000D01*
X228378954Y-139048742D01*
X228632034Y-139591576D01*
X228766538Y-139714844D01*
X228734683Y-139720838D01*
X228518559Y-139859910D01*
X228373569Y-140072110D01*
X228322560Y-140324000D01*
X214958707Y-140324000D01*
X215413453Y-139643425D01*
X215595000Y-138730725D01*
X215595000Y-138637275D01*
X215413453Y-137724575D01*
X214896450Y-136950825D01*
X214122700Y-136433822D01*
X213210000Y-136252275D01*
X212297300Y-136433822D01*
X211523550Y-136950825D01*
X211006547Y-137724575D01*
X210825000Y-138637275D01*
X208299083Y-138637275D01*
X210458485Y-136113928D01*
X228335000Y-136113928D01*
X228335000Y-136174072D01*
X228451845Y-136761491D01*
X228784591Y-137259481D01*
X229022582Y-137418501D01*
X228632034Y-137776424D01*
X228378954Y-138319258D01*
X228499003Y-138557000D01*
X229743000Y-138557000D01*
X229743000Y-138537000D01*
X229997000Y-138537000D01*
X229997000Y-138557000D01*
X231240997Y-138557000D01*
X231361046Y-138319258D01*
X231107966Y-137776424D01*
X230717418Y-137418501D01*
X230955409Y-137259481D01*
X231288155Y-136761491D01*
X231405000Y-136174072D01*
X231405000Y-136113928D01*
X231288155Y-135526509D01*
X230955409Y-135028519D01*
X230457419Y-134695773D01*
X229870000Y-134578928D01*
X229282581Y-134695773D01*
X228784591Y-135028519D01*
X228451845Y-135526509D01*
X228335000Y-136113928D01*
X210458485Y-136113928D01*
X214535522Y-131349750D01*
X231745000Y-131349750D01*
X231745000Y-132490309D01*
X231841673Y-132723698D01*
X232020301Y-132902327D01*
X232253690Y-132999000D01*
X233394250Y-132999000D01*
X233553000Y-132840250D01*
X233553000Y-131191000D01*
X233807000Y-131191000D01*
X233807000Y-132840250D01*
X233965750Y-132999000D01*
X235106310Y-132999000D01*
X235339699Y-132902327D01*
X235518327Y-132723698D01*
X235615000Y-132490309D01*
X235615000Y-131349750D01*
X235456250Y-131191000D01*
X233807000Y-131191000D01*
X233553000Y-131191000D01*
X231903750Y-131191000D01*
X231745000Y-131349750D01*
X214535522Y-131349750D01*
X216000649Y-129637691D01*
X231745000Y-129637691D01*
X231745000Y-130778250D01*
X231903750Y-130937000D01*
X233553000Y-130937000D01*
X233553000Y-129287750D01*
X233807000Y-129287750D01*
X233807000Y-130937000D01*
X235456250Y-130937000D01*
X235615000Y-130778250D01*
X235615000Y-129637691D01*
X235518327Y-129404302D01*
X235339699Y-129225673D01*
X235106310Y-129129000D01*
X233965750Y-129129000D01*
X233807000Y-129287750D01*
X233553000Y-129287750D01*
X233394250Y-129129000D01*
X232253690Y-129129000D01*
X232020301Y-129225673D01*
X231841673Y-129404302D01*
X231745000Y-129637691D01*
X216000649Y-129637691D01*
X218474236Y-126747207D01*
X234744665Y-126747207D01*
X235038630Y-127458658D01*
X235582479Y-128003457D01*
X236293416Y-128298663D01*
X237063207Y-128299335D01*
X237774658Y-128005370D01*
X238319457Y-127461521D01*
X238614663Y-126750584D01*
X238615335Y-125980793D01*
X238321370Y-125269342D01*
X237777521Y-124724543D01*
X237066584Y-124429337D01*
X236296793Y-124428665D01*
X235585342Y-124722630D01*
X235040543Y-125266479D01*
X234745337Y-125977416D01*
X234744665Y-126747207D01*
X218474236Y-126747207D01*
X223821354Y-120498890D01*
X237826524Y-120498890D01*
X237996355Y-120908924D01*
X238386642Y-121337183D01*
X238911108Y-121583486D01*
X239141000Y-121462819D01*
X239141000Y-120269000D01*
X239395000Y-120269000D01*
X239395000Y-121462819D01*
X239624892Y-121583486D01*
X240149358Y-121337183D01*
X240539645Y-120908924D01*
X240709476Y-120498890D01*
X240588155Y-120269000D01*
X239395000Y-120269000D01*
X239141000Y-120269000D01*
X237947845Y-120269000D01*
X237826524Y-120498890D01*
X223821354Y-120498890D01*
X226626473Y-117221000D01*
X237829693Y-117221000D01*
X237753907Y-117602000D01*
X237866946Y-118170285D01*
X238188853Y-118652054D01*
X238529553Y-118879702D01*
X238386642Y-118946817D01*
X237996355Y-119375076D01*
X237826524Y-119785110D01*
X237947845Y-120015000D01*
X239141000Y-120015000D01*
X239141000Y-119995000D01*
X239395000Y-119995000D01*
X239395000Y-120015000D01*
X240588155Y-120015000D01*
X240709476Y-119785110D01*
X240539645Y-119375076D01*
X240149358Y-118946817D01*
X240006447Y-118879702D01*
X240347147Y-118652054D01*
X240669054Y-118170285D01*
X240782093Y-117602000D01*
X240669054Y-117033715D01*
X240347147Y-116551946D01*
X240157000Y-116424894D01*
X240157000Y-116239106D01*
X240347147Y-116112054D01*
X240669054Y-115630285D01*
X240782093Y-115062000D01*
X240669054Y-114493715D01*
X240347147Y-114011946D01*
X240305548Y-113984150D01*
X240353317Y-113975162D01*
X240569441Y-113836090D01*
X240714431Y-113623890D01*
X240765440Y-113372000D01*
X240765440Y-111672000D01*
X240721162Y-111436683D01*
X240582090Y-111220559D01*
X240402162Y-111097619D01*
X240416333Y-111072111D01*
X240431582Y-111024059D01*
X240426935Y-110973861D01*
X240411000Y-110944123D01*
X240411000Y-108990460D01*
X240907959Y-107748062D01*
X241413592Y-106736796D01*
X241427000Y-106680000D01*
X241427000Y-106275703D01*
X241510330Y-106400415D01*
X241996511Y-106725271D01*
X242570000Y-106839345D01*
X243130000Y-106727954D01*
X243130000Y-133166421D01*
X242693000Y-132729420D01*
X242693000Y-128322822D01*
X242742838Y-128202799D01*
X242743162Y-127830833D01*
X242601117Y-127487057D01*
X242338327Y-127223808D01*
X241994799Y-127081162D01*
X241622833Y-127080838D01*
X241279057Y-127222883D01*
X241015808Y-127485673D01*
X240873162Y-127829201D01*
X240872838Y-128201167D01*
X240923000Y-128322569D01*
X240923000Y-129570276D01*
X240777521Y-129424543D01*
X240066584Y-129129337D01*
X239296793Y-129128665D01*
X238585342Y-129422630D01*
X238040543Y-129966479D01*
X237745337Y-130677416D01*
X237744665Y-131447207D01*
X238038630Y-132158658D01*
X238582479Y-132703457D01*
X239293416Y-132998663D01*
X240063207Y-132999335D01*
X240774658Y-132705370D01*
X240923000Y-132557287D01*
X240923000Y-133095995D01*
X240922999Y-133096000D01*
X240979190Y-133378484D01*
X240990367Y-133434675D01*
X241110677Y-133614733D01*
X241182210Y-133721790D01*
X242235255Y-134774834D01*
X242284883Y-134894943D01*
X242547673Y-135158192D01*
X242891201Y-135300838D01*
X243130000Y-135301046D01*
X243130000Y-144070000D01*
X130250000Y-144070000D01*
X130250000Y-142596892D01*
X157308514Y-142596892D01*
X157554817Y-143121358D01*
X157983076Y-143511645D01*
X158393110Y-143681476D01*
X158623000Y-143560155D01*
X158623000Y-142367000D01*
X157429181Y-142367000D01*
X157308514Y-142596892D01*
X130250000Y-142596892D01*
X130250000Y-141883108D01*
X157308514Y-141883108D01*
X157429181Y-142113000D01*
X158623000Y-142113000D01*
X158623000Y-140919845D01*
X158877000Y-140919845D01*
X158877000Y-142113000D01*
X158897000Y-142113000D01*
X158897000Y-142367000D01*
X158877000Y-142367000D01*
X158877000Y-143560155D01*
X159106890Y-143681476D01*
X159516924Y-143511645D01*
X159819937Y-143235499D01*
X159836838Y-143325317D01*
X159975910Y-143541441D01*
X160188110Y-143686431D01*
X160440000Y-143737440D01*
X162140000Y-143737440D01*
X162375317Y-143693162D01*
X162591441Y-143554090D01*
X162736431Y-143341890D01*
X162787440Y-143090000D01*
X162787440Y-142596892D01*
X170262514Y-142596892D01*
X170508817Y-143121358D01*
X170937076Y-143511645D01*
X171347110Y-143681476D01*
X171577000Y-143560155D01*
X171577000Y-142367000D01*
X170383181Y-142367000D01*
X170262514Y-142596892D01*
X162787440Y-142596892D01*
X162787440Y-141883108D01*
X170262514Y-141883108D01*
X170383181Y-142113000D01*
X171577000Y-142113000D01*
X171577000Y-140919845D01*
X171831000Y-140919845D01*
X171831000Y-142113000D01*
X171851000Y-142113000D01*
X171851000Y-142367000D01*
X171831000Y-142367000D01*
X171831000Y-143560155D01*
X172060890Y-143681476D01*
X172470924Y-143511645D01*
X172773937Y-143235499D01*
X172790838Y-143325317D01*
X172929910Y-143541441D01*
X173142110Y-143686431D01*
X173394000Y-143737440D01*
X175094000Y-143737440D01*
X175329317Y-143693162D01*
X175545441Y-143554090D01*
X175690431Y-143341890D01*
X175741440Y-143090000D01*
X175741440Y-141390000D01*
X175697162Y-141154683D01*
X175558090Y-140938559D01*
X175345890Y-140793569D01*
X175094000Y-140742560D01*
X173394000Y-140742560D01*
X173158683Y-140786838D01*
X172942559Y-140925910D01*
X172797569Y-141138110D01*
X172775699Y-141246107D01*
X172470924Y-140968355D01*
X172060890Y-140798524D01*
X171831000Y-140919845D01*
X171577000Y-140919845D01*
X171347110Y-140798524D01*
X170937076Y-140968355D01*
X170508817Y-141358642D01*
X170262514Y-141883108D01*
X162787440Y-141883108D01*
X162787440Y-141390000D01*
X162743162Y-141154683D01*
X162604090Y-140938559D01*
X162391890Y-140793569D01*
X162140000Y-140742560D01*
X160440000Y-140742560D01*
X160204683Y-140786838D01*
X159988559Y-140925910D01*
X159843569Y-141138110D01*
X159821699Y-141246107D01*
X159516924Y-140968355D01*
X159106890Y-140798524D01*
X158877000Y-140919845D01*
X158623000Y-140919845D01*
X158393110Y-140798524D01*
X157983076Y-140968355D01*
X157554817Y-141358642D01*
X157308514Y-141883108D01*
X130250000Y-141883108D01*
X130250000Y-129826219D01*
X130301056Y-119819167D01*
X134700838Y-119819167D01*
X134842883Y-120162943D01*
X135105673Y-120426192D01*
X135449201Y-120568838D01*
X135821167Y-120569162D01*
X136164943Y-120427117D01*
X136428192Y-120164327D01*
X136478566Y-120043014D01*
X139761579Y-116760000D01*
X141413173Y-116760000D01*
X141556660Y-117481358D01*
X141965277Y-118092896D01*
X142576815Y-118501513D01*
X143298173Y-118645000D01*
X143881827Y-118645000D01*
X144603185Y-118501513D01*
X145214723Y-118092896D01*
X145623340Y-117481358D01*
X145766827Y-116760000D01*
X146413173Y-116760000D01*
X146556660Y-117481358D01*
X146965277Y-118092896D01*
X147576815Y-118501513D01*
X148298173Y-118645000D01*
X148881827Y-118645000D01*
X149603185Y-118501513D01*
X150214723Y-118092896D01*
X150623340Y-117481358D01*
X150766827Y-116760000D01*
X151413173Y-116760000D01*
X151556660Y-117481358D01*
X151965277Y-118092896D01*
X152576815Y-118501513D01*
X153298173Y-118645000D01*
X153881827Y-118645000D01*
X154603185Y-118501513D01*
X155214723Y-118092896D01*
X155623340Y-117481358D01*
X155766827Y-116760000D01*
X155623340Y-116038642D01*
X155214723Y-115427104D01*
X154603185Y-115018487D01*
X153881827Y-114875000D01*
X153298173Y-114875000D01*
X152576815Y-115018487D01*
X151965277Y-115427104D01*
X151556660Y-116038642D01*
X151413173Y-116760000D01*
X150766827Y-116760000D01*
X150623340Y-116038642D01*
X150214723Y-115427104D01*
X149603185Y-115018487D01*
X148881827Y-114875000D01*
X148298173Y-114875000D01*
X147576815Y-115018487D01*
X146965277Y-115427104D01*
X146556660Y-116038642D01*
X146413173Y-116760000D01*
X145766827Y-116760000D01*
X145623340Y-116038642D01*
X145214723Y-115427104D01*
X144603185Y-115018487D01*
X143881827Y-114875000D01*
X143298173Y-114875000D01*
X142576815Y-115018487D01*
X141965277Y-115427104D01*
X141556660Y-116038642D01*
X141413173Y-116760000D01*
X139761579Y-116760000D01*
X141378834Y-115142745D01*
X141498943Y-115093117D01*
X141762192Y-114830327D01*
X141904838Y-114486799D01*
X141905162Y-114114833D01*
X141763117Y-113771057D01*
X141500327Y-113507808D01*
X141156799Y-113365162D01*
X140784833Y-113364838D01*
X140441057Y-113506883D01*
X140177808Y-113769673D01*
X140127434Y-113890987D01*
X135227164Y-118791256D01*
X135107057Y-118840883D01*
X134843808Y-119103673D01*
X134701162Y-119447201D01*
X134700838Y-119819167D01*
X130301056Y-119819167D01*
X130335694Y-113030000D01*
X136407907Y-113030000D01*
X136520946Y-113598285D01*
X136842853Y-114080054D01*
X137324622Y-114401961D01*
X137892907Y-114515000D01*
X137951093Y-114515000D01*
X138519378Y-114401961D01*
X139001147Y-114080054D01*
X139323054Y-113598285D01*
X139436093Y-113030000D01*
X139323054Y-112461715D01*
X139001147Y-111979946D01*
X138957223Y-111950597D01*
X139131698Y-111878327D01*
X139250025Y-111760000D01*
X141413173Y-111760000D01*
X141556660Y-112481358D01*
X141965277Y-113092896D01*
X142576815Y-113501513D01*
X143298173Y-113645000D01*
X143881827Y-113645000D01*
X144603185Y-113501513D01*
X145214723Y-113092896D01*
X145623340Y-112481358D01*
X145766827Y-111760000D01*
X146413173Y-111760000D01*
X146556660Y-112481358D01*
X146965277Y-113092896D01*
X147576815Y-113501513D01*
X148298173Y-113645000D01*
X148881827Y-113645000D01*
X149603185Y-113501513D01*
X150214723Y-113092896D01*
X150623340Y-112481358D01*
X150766827Y-111760000D01*
X151413173Y-111760000D01*
X151556660Y-112481358D01*
X151965277Y-113092896D01*
X152576815Y-113501513D01*
X153298173Y-113645000D01*
X153881827Y-113645000D01*
X154603185Y-113501513D01*
X155214723Y-113092896D01*
X155623340Y-112481358D01*
X155766827Y-111760000D01*
X155623340Y-111038642D01*
X155214723Y-110427104D01*
X154603185Y-110018487D01*
X153881827Y-109875000D01*
X153298173Y-109875000D01*
X152576815Y-110018487D01*
X151965277Y-110427104D01*
X151556660Y-111038642D01*
X151413173Y-111760000D01*
X150766827Y-111760000D01*
X150623340Y-111038642D01*
X150214723Y-110427104D01*
X149603185Y-110018487D01*
X148881827Y-109875000D01*
X148298173Y-109875000D01*
X147576815Y-110018487D01*
X146965277Y-110427104D01*
X146556660Y-111038642D01*
X146413173Y-111760000D01*
X145766827Y-111760000D01*
X145623340Y-111038642D01*
X145214723Y-110427104D01*
X144603185Y-110018487D01*
X143881827Y-109875000D01*
X143298173Y-109875000D01*
X142576815Y-110018487D01*
X141965277Y-110427104D01*
X141556660Y-111038642D01*
X141413173Y-111760000D01*
X139250025Y-111760000D01*
X139310327Y-111699699D01*
X139407000Y-111466310D01*
X139407000Y-110775750D01*
X139248250Y-110617000D01*
X138049000Y-110617000D01*
X138049000Y-110637000D01*
X137795000Y-110637000D01*
X137795000Y-110617000D01*
X136595750Y-110617000D01*
X136437000Y-110775750D01*
X136437000Y-111466310D01*
X136533673Y-111699699D01*
X136712302Y-111878327D01*
X136886777Y-111950597D01*
X136842853Y-111979946D01*
X136520946Y-112461715D01*
X136407907Y-113030000D01*
X130335694Y-113030000D01*
X130353634Y-109513690D01*
X136437000Y-109513690D01*
X136437000Y-110204250D01*
X136595750Y-110363000D01*
X137795000Y-110363000D01*
X137795000Y-109163750D01*
X138049000Y-109163750D01*
X138049000Y-110363000D01*
X139248250Y-110363000D01*
X139407000Y-110204250D01*
X139407000Y-109513690D01*
X139310327Y-109280301D01*
X139131698Y-109101673D01*
X138898309Y-109005000D01*
X138207750Y-109005000D01*
X138049000Y-109163750D01*
X137795000Y-109163750D01*
X137636250Y-109005000D01*
X136945691Y-109005000D01*
X136712302Y-109101673D01*
X136533673Y-109280301D01*
X136437000Y-109513690D01*
X130353634Y-109513690D01*
X130367683Y-106760000D01*
X141413173Y-106760000D01*
X141556660Y-107481358D01*
X141965277Y-108092896D01*
X142576815Y-108501513D01*
X143298173Y-108645000D01*
X143881827Y-108645000D01*
X144603185Y-108501513D01*
X145214723Y-108092896D01*
X145623340Y-107481358D01*
X145766827Y-106760000D01*
X146413173Y-106760000D01*
X146556660Y-107481358D01*
X146965277Y-108092896D01*
X147576815Y-108501513D01*
X148298173Y-108645000D01*
X148881827Y-108645000D01*
X149603185Y-108501513D01*
X150214723Y-108092896D01*
X150623340Y-107481358D01*
X150766827Y-106760000D01*
X151413173Y-106760000D01*
X151556660Y-107481358D01*
X151965277Y-108092896D01*
X152576815Y-108501513D01*
X153298173Y-108645000D01*
X153881827Y-108645000D01*
X154603185Y-108501513D01*
X155214723Y-108092896D01*
X155623340Y-107481358D01*
X155766827Y-106760000D01*
X155623340Y-106038642D01*
X155214723Y-105427104D01*
X154603185Y-105018487D01*
X153881827Y-104875000D01*
X153298173Y-104875000D01*
X152576815Y-105018487D01*
X151965277Y-105427104D01*
X151556660Y-106038642D01*
X151413173Y-106760000D01*
X150766827Y-106760000D01*
X150623340Y-106038642D01*
X150214723Y-105427104D01*
X149603185Y-105018487D01*
X148881827Y-104875000D01*
X148298173Y-104875000D01*
X147576815Y-105018487D01*
X146965277Y-105427104D01*
X146556660Y-106038642D01*
X146413173Y-106760000D01*
X145766827Y-106760000D01*
X145623340Y-106038642D01*
X145214723Y-105427104D01*
X144603185Y-105018487D01*
X143881827Y-104875000D01*
X143298173Y-104875000D01*
X142576815Y-105018487D01*
X141965277Y-105427104D01*
X141556660Y-106038642D01*
X141413173Y-106760000D01*
X130367683Y-106760000D01*
X130428998Y-94742648D01*
X130428922Y-94737547D01*
X130369142Y-93033795D01*
X133056716Y-93033795D01*
X133305106Y-93634943D01*
X133764637Y-94095278D01*
X134365352Y-94344716D01*
X135015795Y-94345284D01*
X135616943Y-94096894D01*
X135851715Y-93862532D01*
X138219073Y-93862532D01*
X138317736Y-94129387D01*
X138927461Y-94355908D01*
X139577460Y-94331856D01*
X140066264Y-94129387D01*
X140164927Y-93862532D01*
X139192000Y-92889605D01*
X138219073Y-93862532D01*
X135851715Y-93862532D01*
X136077278Y-93637363D01*
X136326716Y-93036648D01*
X136327232Y-92445461D01*
X137546092Y-92445461D01*
X137570144Y-93095460D01*
X137772613Y-93584264D01*
X138039468Y-93682927D01*
X139012395Y-92710000D01*
X139371605Y-92710000D01*
X140344532Y-93682927D01*
X140611387Y-93584264D01*
X140815893Y-93033795D01*
X143724716Y-93033795D01*
X143973106Y-93634943D01*
X144432637Y-94095278D01*
X145033352Y-94344716D01*
X145683795Y-94345284D01*
X146284943Y-94096894D01*
X146519715Y-93862532D01*
X148887073Y-93862532D01*
X148985736Y-94129387D01*
X149595461Y-94355908D01*
X150245460Y-94331856D01*
X150734264Y-94129387D01*
X150832927Y-93862532D01*
X149860000Y-92889605D01*
X148887073Y-93862532D01*
X146519715Y-93862532D01*
X146745278Y-93637363D01*
X146994716Y-93036648D01*
X146995232Y-92445461D01*
X148214092Y-92445461D01*
X148238144Y-93095460D01*
X148440613Y-93584264D01*
X148707468Y-93682927D01*
X149680395Y-92710000D01*
X150039605Y-92710000D01*
X151012532Y-93682927D01*
X151279387Y-93584264D01*
X151483893Y-93033795D01*
X154138716Y-93033795D01*
X154387106Y-93634943D01*
X154846637Y-94095278D01*
X155447352Y-94344716D01*
X156097795Y-94345284D01*
X156698943Y-94096894D01*
X156933715Y-93862532D01*
X159301073Y-93862532D01*
X159399736Y-94129387D01*
X160009461Y-94355908D01*
X160659460Y-94331856D01*
X161148264Y-94129387D01*
X161246927Y-93862532D01*
X160274000Y-92889605D01*
X159301073Y-93862532D01*
X156933715Y-93862532D01*
X157159278Y-93637363D01*
X157408716Y-93036648D01*
X157409232Y-92445461D01*
X158628092Y-92445461D01*
X158652144Y-93095460D01*
X158854613Y-93584264D01*
X159121468Y-93682927D01*
X160094395Y-92710000D01*
X160453605Y-92710000D01*
X161426532Y-93682927D01*
X161693387Y-93584264D01*
X161919908Y-92974539D01*
X161895856Y-92324540D01*
X161693387Y-91835736D01*
X161426532Y-91737073D01*
X160453605Y-92710000D01*
X160094395Y-92710000D01*
X159121468Y-91737073D01*
X158854613Y-91835736D01*
X158628092Y-92445461D01*
X157409232Y-92445461D01*
X157409284Y-92386205D01*
X157160894Y-91785057D01*
X156933703Y-91557468D01*
X159301073Y-91557468D01*
X160274000Y-92530395D01*
X161246927Y-91557468D01*
X161148264Y-91290613D01*
X160538539Y-91064092D01*
X159888540Y-91088144D01*
X159399736Y-91290613D01*
X159301073Y-91557468D01*
X156933703Y-91557468D01*
X156701363Y-91324722D01*
X156100648Y-91075284D01*
X155450205Y-91074716D01*
X154849057Y-91323106D01*
X154388722Y-91782637D01*
X154139284Y-92383352D01*
X154138716Y-93033795D01*
X151483893Y-93033795D01*
X151505908Y-92974539D01*
X151481856Y-92324540D01*
X151279387Y-91835736D01*
X151012532Y-91737073D01*
X150039605Y-92710000D01*
X149680395Y-92710000D01*
X148707468Y-91737073D01*
X148440613Y-91835736D01*
X148214092Y-92445461D01*
X146995232Y-92445461D01*
X146995284Y-92386205D01*
X146746894Y-91785057D01*
X146519703Y-91557468D01*
X148887073Y-91557468D01*
X149860000Y-92530395D01*
X150832927Y-91557468D01*
X150734264Y-91290613D01*
X150124539Y-91064092D01*
X149474540Y-91088144D01*
X148985736Y-91290613D01*
X148887073Y-91557468D01*
X146519703Y-91557468D01*
X146287363Y-91324722D01*
X145686648Y-91075284D01*
X145036205Y-91074716D01*
X144435057Y-91323106D01*
X143974722Y-91782637D01*
X143725284Y-92383352D01*
X143724716Y-93033795D01*
X140815893Y-93033795D01*
X140837908Y-92974539D01*
X140813856Y-92324540D01*
X140611387Y-91835736D01*
X140344532Y-91737073D01*
X139371605Y-92710000D01*
X139012395Y-92710000D01*
X138039468Y-91737073D01*
X137772613Y-91835736D01*
X137546092Y-92445461D01*
X136327232Y-92445461D01*
X136327284Y-92386205D01*
X136078894Y-91785057D01*
X135851703Y-91557468D01*
X138219073Y-91557468D01*
X139192000Y-92530395D01*
X140164927Y-91557468D01*
X140066264Y-91290613D01*
X139456539Y-91064092D01*
X138806540Y-91088144D01*
X138317736Y-91290613D01*
X138219073Y-91557468D01*
X135851703Y-91557468D01*
X135619363Y-91324722D01*
X135018648Y-91075284D01*
X134368205Y-91074716D01*
X133767057Y-91323106D01*
X133306722Y-91782637D01*
X133057284Y-92383352D01*
X133056716Y-93033795D01*
X130369142Y-93033795D01*
X130250000Y-89638274D01*
X130250000Y-86533795D01*
X133056716Y-86533795D01*
X133305106Y-87134943D01*
X133764637Y-87595278D01*
X134365352Y-87844716D01*
X135015795Y-87845284D01*
X135616943Y-87596894D01*
X135851715Y-87362532D01*
X138219073Y-87362532D01*
X138317736Y-87629387D01*
X138927461Y-87855908D01*
X139577460Y-87831856D01*
X140066264Y-87629387D01*
X140164927Y-87362532D01*
X139192000Y-86389605D01*
X138219073Y-87362532D01*
X135851715Y-87362532D01*
X136077278Y-87137363D01*
X136326716Y-86536648D01*
X136327232Y-85945461D01*
X137546092Y-85945461D01*
X137570144Y-86595460D01*
X137772613Y-87084264D01*
X138039468Y-87182927D01*
X139012395Y-86210000D01*
X139371605Y-86210000D01*
X140344532Y-87182927D01*
X140611387Y-87084264D01*
X140815893Y-86533795D01*
X143724716Y-86533795D01*
X143973106Y-87134943D01*
X144432637Y-87595278D01*
X145033352Y-87844716D01*
X145683795Y-87845284D01*
X146284943Y-87596894D01*
X146519715Y-87362532D01*
X148887073Y-87362532D01*
X148985736Y-87629387D01*
X149595461Y-87855908D01*
X150245460Y-87831856D01*
X150734264Y-87629387D01*
X150832927Y-87362532D01*
X149860000Y-86389605D01*
X148887073Y-87362532D01*
X146519715Y-87362532D01*
X146745278Y-87137363D01*
X146994716Y-86536648D01*
X146995232Y-85945461D01*
X148214092Y-85945461D01*
X148238144Y-86595460D01*
X148440613Y-87084264D01*
X148707468Y-87182927D01*
X149680395Y-86210000D01*
X150039605Y-86210000D01*
X151012532Y-87182927D01*
X151279387Y-87084264D01*
X151483893Y-86533795D01*
X154138716Y-86533795D01*
X154387106Y-87134943D01*
X154846637Y-87595278D01*
X155447352Y-87844716D01*
X156097795Y-87845284D01*
X156698943Y-87596894D01*
X156933715Y-87362532D01*
X159301073Y-87362532D01*
X159399736Y-87629387D01*
X160009461Y-87855908D01*
X160659460Y-87831856D01*
X161148264Y-87629387D01*
X161246927Y-87362532D01*
X160274000Y-86389605D01*
X159301073Y-87362532D01*
X156933715Y-87362532D01*
X157159278Y-87137363D01*
X157408716Y-86536648D01*
X157409232Y-85945461D01*
X158628092Y-85945461D01*
X158652144Y-86595460D01*
X158854613Y-87084264D01*
X159121468Y-87182927D01*
X160094395Y-86210000D01*
X160453605Y-86210000D01*
X161426532Y-87182927D01*
X161693387Y-87084264D01*
X161919908Y-86474539D01*
X161895856Y-85824540D01*
X161693387Y-85335736D01*
X161529566Y-85275167D01*
X164672838Y-85275167D01*
X164814883Y-85618943D01*
X165077673Y-85882192D01*
X165421201Y-86024838D01*
X165793167Y-86025162D01*
X166136943Y-85883117D01*
X166170118Y-85850000D01*
X173935537Y-85850000D01*
X173967673Y-85882192D01*
X174311201Y-86024838D01*
X174683167Y-86025162D01*
X175026943Y-85883117D01*
X175290192Y-85620327D01*
X175432838Y-85276799D01*
X175433162Y-84904833D01*
X175291117Y-84561057D01*
X175028327Y-84297808D01*
X174684799Y-84155162D01*
X174312833Y-84154838D01*
X173969057Y-84296883D01*
X173935882Y-84330000D01*
X166170463Y-84330000D01*
X166138327Y-84297808D01*
X165794799Y-84155162D01*
X165422833Y-84154838D01*
X165079057Y-84296883D01*
X164815808Y-84559673D01*
X164673162Y-84903201D01*
X164672838Y-85275167D01*
X161529566Y-85275167D01*
X161426532Y-85237073D01*
X160453605Y-86210000D01*
X160094395Y-86210000D01*
X159121468Y-85237073D01*
X158854613Y-85335736D01*
X158628092Y-85945461D01*
X157409232Y-85945461D01*
X157409284Y-85886205D01*
X157160894Y-85285057D01*
X156933703Y-85057468D01*
X159301073Y-85057468D01*
X160274000Y-86030395D01*
X161246927Y-85057468D01*
X161148264Y-84790613D01*
X160538539Y-84564092D01*
X159888540Y-84588144D01*
X159399736Y-84790613D01*
X159301073Y-85057468D01*
X156933703Y-85057468D01*
X156701363Y-84824722D01*
X156100648Y-84575284D01*
X155450205Y-84574716D01*
X154849057Y-84823106D01*
X154388722Y-85282637D01*
X154139284Y-85883352D01*
X154138716Y-86533795D01*
X151483893Y-86533795D01*
X151505908Y-86474539D01*
X151481856Y-85824540D01*
X151279387Y-85335736D01*
X151012532Y-85237073D01*
X150039605Y-86210000D01*
X149680395Y-86210000D01*
X148707468Y-85237073D01*
X148440613Y-85335736D01*
X148214092Y-85945461D01*
X146995232Y-85945461D01*
X146995284Y-85886205D01*
X146746894Y-85285057D01*
X146519703Y-85057468D01*
X148887073Y-85057468D01*
X149860000Y-86030395D01*
X150832927Y-85057468D01*
X150734264Y-84790613D01*
X150124539Y-84564092D01*
X149474540Y-84588144D01*
X148985736Y-84790613D01*
X148887073Y-85057468D01*
X146519703Y-85057468D01*
X146287363Y-84824722D01*
X145686648Y-84575284D01*
X145036205Y-84574716D01*
X144435057Y-84823106D01*
X143974722Y-85282637D01*
X143725284Y-85883352D01*
X143724716Y-86533795D01*
X140815893Y-86533795D01*
X140837908Y-86474539D01*
X140813856Y-85824540D01*
X140611387Y-85335736D01*
X140344532Y-85237073D01*
X139371605Y-86210000D01*
X139012395Y-86210000D01*
X138039468Y-85237073D01*
X137772613Y-85335736D01*
X137546092Y-85945461D01*
X136327232Y-85945461D01*
X136327284Y-85886205D01*
X136078894Y-85285057D01*
X135851703Y-85057468D01*
X138219073Y-85057468D01*
X139192000Y-86030395D01*
X140164927Y-85057468D01*
X140066264Y-84790613D01*
X139456539Y-84564092D01*
X138806540Y-84588144D01*
X138317736Y-84790613D01*
X138219073Y-85057468D01*
X135851703Y-85057468D01*
X135619363Y-84824722D01*
X135018648Y-84575284D01*
X134368205Y-84574716D01*
X133767057Y-84823106D01*
X133306722Y-85282637D01*
X133057284Y-85883352D01*
X133056716Y-86533795D01*
X130250000Y-86533795D01*
X130250000Y-80720000D01*
X243130000Y-80720000D01*
X243130000Y-88265000D01*
G36*
X217647808Y-83035673D02*
X217505162Y-83379201D01*
X217504838Y-83751167D01*
X217646883Y-84094943D01*
X217909673Y-84358192D01*
X218253201Y-84500838D01*
X218300077Y-84500879D01*
X220298878Y-86499680D01*
X220298838Y-86545167D01*
X220404310Y-86800430D01*
X220150799Y-86695162D01*
X220103923Y-86695121D01*
X218613122Y-85204320D01*
X218613162Y-85158833D01*
X218471117Y-84815057D01*
X218208327Y-84551808D01*
X217864799Y-84409162D01*
X217492833Y-84408838D01*
X217149057Y-84550883D01*
X216885808Y-84813673D01*
X216743162Y-85157201D01*
X216742838Y-85529167D01*
X216884883Y-85872943D01*
X217147673Y-86136192D01*
X217491201Y-86278838D01*
X217538077Y-86278879D01*
X219028878Y-87769680D01*
X219028838Y-87815167D01*
X219170883Y-88158943D01*
X219321591Y-88309914D01*
X219136511Y-88346729D01*
X218650330Y-88671585D01*
X218440000Y-88986366D01*
X218229670Y-88671585D01*
X217894161Y-88447405D01*
X217952943Y-88423117D01*
X218216192Y-88160327D01*
X218358838Y-87816799D01*
X218359162Y-87444833D01*
X218217117Y-87101057D01*
X217954327Y-86837808D01*
X217610799Y-86695162D01*
X217563923Y-86695121D01*
X216073122Y-85204320D01*
X216073162Y-85158833D01*
X215931117Y-84815057D01*
X215668327Y-84551808D01*
X215324799Y-84409162D01*
X214952833Y-84408838D01*
X214609057Y-84550883D01*
X214345808Y-84813673D01*
X214203162Y-85157201D01*
X214202838Y-85529167D01*
X214344883Y-85872943D01*
X214607673Y-86136192D01*
X214951201Y-86278838D01*
X214998077Y-86278879D01*
X216488878Y-87769680D01*
X216488838Y-87815167D01*
X216630883Y-88158943D01*
X216781591Y-88309914D01*
X216596511Y-88346729D01*
X216110330Y-88671585D01*
X215900000Y-88986366D01*
X215689670Y-88671585D01*
X215203489Y-88346729D01*
X214630000Y-88232655D01*
X214056511Y-88346729D01*
X213570330Y-88671585D01*
X213360000Y-88986366D01*
X213149670Y-88671585D01*
X212663489Y-88346729D01*
X212090000Y-88232655D01*
X211516511Y-88346729D01*
X211030330Y-88671585D01*
X210820000Y-88986366D01*
X210609670Y-88671585D01*
X210123489Y-88346729D01*
X209550000Y-88232655D01*
X208976511Y-88346729D01*
X208490330Y-88671585D01*
X208165474Y-89157766D01*
X208051400Y-89731255D01*
X208051400Y-90100745D01*
X208165474Y-90674234D01*
X208490330Y-91160415D01*
X208976511Y-91485271D01*
X209550000Y-91599345D01*
X210123489Y-91485271D01*
X210609670Y-91160415D01*
X210820000Y-90845634D01*
X211030330Y-91160415D01*
X211516511Y-91485271D01*
X212090000Y-91599345D01*
X212663489Y-91485271D01*
X213149670Y-91160415D01*
X213360000Y-90845634D01*
X213570330Y-91160415D01*
X214056511Y-91485271D01*
X214630000Y-91599345D01*
X215068597Y-91512103D01*
X214965162Y-91761201D01*
X214965121Y-91808077D01*
X214823198Y-91950000D01*
X213614000Y-91950000D01*
X213323160Y-92007852D01*
X213076599Y-92172599D01*
X212204320Y-93044878D01*
X212158833Y-93044838D01*
X211815057Y-93186883D01*
X211551808Y-93449673D01*
X211409162Y-93793201D01*
X211408838Y-94165167D01*
X211550883Y-94508943D01*
X211813673Y-94772192D01*
X212157201Y-94914838D01*
X212529167Y-94915162D01*
X212872943Y-94773117D01*
X213136192Y-94510327D01*
X213278838Y-94166799D01*
X213278879Y-94119923D01*
X213454521Y-93944281D01*
X213582883Y-94254943D01*
X213845673Y-94518192D01*
X214189201Y-94660838D01*
X214236077Y-94660879D01*
X214964878Y-95389680D01*
X214964838Y-95435167D01*
X215106883Y-95778943D01*
X215369673Y-96042192D01*
X215681517Y-96171681D01*
X215331198Y-96522000D01*
X214630000Y-96522000D01*
X214339160Y-96579852D01*
X214092599Y-96744599D01*
X213838599Y-96998599D01*
X213673852Y-97245161D01*
X213616000Y-97536000D01*
X213616000Y-97735537D01*
X213583808Y-97767673D01*
X213441162Y-98111201D01*
X213440838Y-98483167D01*
X213582883Y-98826943D01*
X213845673Y-99090192D01*
X214189201Y-99232838D01*
X214561167Y-99233162D01*
X214904943Y-99091117D01*
X215168192Y-98828327D01*
X215310838Y-98484799D01*
X215311162Y-98112833D01*
X215281894Y-98042000D01*
X215646000Y-98042000D01*
X215936839Y-97984148D01*
X216183401Y-97819401D01*
X217199401Y-96803401D01*
X217364148Y-96556839D01*
X217422000Y-96266000D01*
X217422000Y-92516802D01*
X217707401Y-92231401D01*
X217872147Y-91984840D01*
X217872148Y-91984839D01*
X217930000Y-91694000D01*
X217930000Y-91360648D01*
X218229670Y-91160415D01*
X218440000Y-90845634D01*
X218650330Y-91160415D01*
X219136511Y-91485271D01*
X219710000Y-91599345D01*
X220148597Y-91512103D01*
X220045162Y-91761201D01*
X220044838Y-92133167D01*
X220186883Y-92476943D01*
X220449673Y-92740192D01*
X220793201Y-92882838D01*
X221165167Y-92883162D01*
X221508943Y-92741117D01*
X221772192Y-92478327D01*
X221914838Y-92134799D01*
X221915162Y-91762833D01*
X221811577Y-91512137D01*
X222250000Y-91599345D01*
X222823489Y-91485271D01*
X223309670Y-91160415D01*
X223520000Y-90845634D01*
X223730330Y-91160415D01*
X224216511Y-91485271D01*
X224790000Y-91599345D01*
X225363489Y-91485271D01*
X225849670Y-91160415D01*
X226060000Y-90845634D01*
X226270330Y-91160415D01*
X226756511Y-91485271D01*
X227330000Y-91599345D01*
X227840000Y-91497900D01*
X227840000Y-92141198D01*
X226792599Y-93188599D01*
X226627852Y-93435161D01*
X226570000Y-93726000D01*
X226570000Y-95951198D01*
X226120860Y-96400338D01*
X225992799Y-96347162D01*
X225620833Y-96346838D01*
X225277057Y-96488883D01*
X225013808Y-96751673D01*
X224871162Y-97095201D01*
X224870838Y-97467167D01*
X225012883Y-97810943D01*
X225275673Y-98074192D01*
X225619201Y-98216838D01*
X225991167Y-98217162D01*
X226334943Y-98075117D01*
X226381585Y-98028556D01*
X226604839Y-97984148D01*
X226851401Y-97819401D01*
X227198912Y-97471890D01*
X227919303Y-96871564D01*
X227950856Y-96832246D01*
X227965000Y-96774000D01*
X227965000Y-96657333D01*
X228032148Y-96556839D01*
X228090000Y-96266000D01*
X228090000Y-94181691D01*
X233407000Y-94181691D01*
X233407000Y-94472250D01*
X233565750Y-94631000D01*
X234315000Y-94631000D01*
X234315000Y-93831750D01*
X234569000Y-93831750D01*
X234569000Y-94631000D01*
X235318250Y-94631000D01*
X235477000Y-94472250D01*
X235477000Y-94181691D01*
X235380327Y-93948302D01*
X235201699Y-93769673D01*
X234968310Y-93673000D01*
X234727750Y-93673000D01*
X234569000Y-93831750D01*
X234315000Y-93831750D01*
X234156250Y-93673000D01*
X233915690Y-93673000D01*
X233682301Y-93769673D01*
X233503673Y-93948302D01*
X233407000Y-94181691D01*
X228090000Y-94181691D01*
X228090000Y-94040802D01*
X229137401Y-92993401D01*
X229302148Y-92746840D01*
X229360000Y-92456000D01*
X229360000Y-91497900D01*
X229870000Y-91599345D01*
X230443489Y-91485271D01*
X230929670Y-91160415D01*
X231140000Y-90845634D01*
X231350330Y-91160415D01*
X231836511Y-91485271D01*
X232410000Y-91599345D01*
X232983489Y-91485271D01*
X233469670Y-91160415D01*
X233680000Y-90845634D01*
X233890330Y-91160415D01*
X234376511Y-91485271D01*
X234950000Y-91599345D01*
X235523489Y-91485271D01*
X236009670Y-91160415D01*
X236220000Y-90845634D01*
X236430330Y-91160415D01*
X236916511Y-91485271D01*
X237490000Y-91599345D01*
X238063489Y-91485271D01*
X238549670Y-91160415D01*
X238760000Y-90845634D01*
X238970330Y-91160415D01*
X239456511Y-91485271D01*
X240030000Y-91599345D01*
X240603489Y-91485271D01*
X240989122Y-91227599D01*
X241015673Y-91291698D01*
X241194301Y-91470327D01*
X241313015Y-91519500D01*
X241331970Y-91541081D01*
X241377354Y-91563031D01*
X241408857Y-91567000D01*
X241427000Y-91567000D01*
X241427463Y-91566906D01*
X241427690Y-91567000D01*
X242284250Y-91567000D01*
X242443000Y-91408250D01*
X242443000Y-91059000D01*
X242697000Y-91059000D01*
X242697000Y-91408250D01*
X242855750Y-91567000D01*
X243130000Y-91567000D01*
X243130000Y-103584046D01*
X242570000Y-103472655D01*
X241996511Y-103586729D01*
X241510330Y-103911585D01*
X241427000Y-104036297D01*
X241427000Y-101600000D01*
X241416994Y-101550590D01*
X241411000Y-101541817D01*
X241411000Y-100711000D01*
X241665000Y-100711000D01*
X241665000Y-101685250D01*
X241823750Y-101844000D01*
X242164309Y-101844000D01*
X242397698Y-101747327D01*
X242576327Y-101568699D01*
X242673000Y-101335310D01*
X242673000Y-100869750D01*
X242514250Y-100711000D01*
X241665000Y-100711000D01*
X241411000Y-100711000D01*
X241391000Y-100711000D01*
X241391000Y-100457000D01*
X241411000Y-100457000D01*
X241411000Y-99482750D01*
X241665000Y-99482750D01*
X241665000Y-100457000D01*
X242514250Y-100457000D01*
X242673000Y-100298250D01*
X242673000Y-99832690D01*
X242576327Y-99599301D01*
X242397698Y-99420673D01*
X242164309Y-99324000D01*
X241823750Y-99324000D01*
X241665000Y-99482750D01*
X241411000Y-99482750D01*
X241252250Y-99324000D01*
X240919000Y-99324000D01*
X240919000Y-98288000D01*
X241252250Y-98288000D01*
X241411000Y-98129250D01*
X241411000Y-97155000D01*
X241665000Y-97155000D01*
X241665000Y-98129250D01*
X241823750Y-98288000D01*
X242164309Y-98288000D01*
X242397698Y-98191327D01*
X242576327Y-98012699D01*
X242673000Y-97779310D01*
X242673000Y-97313750D01*
X242514250Y-97155000D01*
X241665000Y-97155000D01*
X241411000Y-97155000D01*
X241391000Y-97155000D01*
X241391000Y-96901000D01*
X241411000Y-96901000D01*
X241411000Y-95926750D01*
X241665000Y-95926750D01*
X241665000Y-96901000D01*
X242514250Y-96901000D01*
X242673000Y-96742250D01*
X242673000Y-96276690D01*
X242576327Y-96043301D01*
X242397698Y-95864673D01*
X242164309Y-95768000D01*
X241823750Y-95768000D01*
X241665000Y-95926750D01*
X241411000Y-95926750D01*
X241252250Y-95768000D01*
X240911691Y-95768000D01*
X240678302Y-95864673D01*
X240537064Y-96005910D01*
X240502090Y-95951559D01*
X240423000Y-95897519D01*
X240423000Y-94857844D01*
X240489441Y-94815090D01*
X240535969Y-94746994D01*
X240678302Y-94889327D01*
X240911691Y-94986000D01*
X241252250Y-94986000D01*
X241411000Y-94827250D01*
X241411000Y-93853000D01*
X241665000Y-93853000D01*
X241665000Y-94827250D01*
X241823750Y-94986000D01*
X242164309Y-94986000D01*
X242397698Y-94889327D01*
X242576327Y-94710699D01*
X242673000Y-94477310D01*
X242673000Y-94011750D01*
X242514250Y-93853000D01*
X241665000Y-93853000D01*
X241411000Y-93853000D01*
X241391000Y-93853000D01*
X241391000Y-93599000D01*
X241411000Y-93599000D01*
X241411000Y-92624750D01*
X241665000Y-92624750D01*
X241665000Y-93599000D01*
X242514250Y-93599000D01*
X242673000Y-93440250D01*
X242673000Y-92974690D01*
X242576327Y-92741301D01*
X242397698Y-92562673D01*
X242164309Y-92466000D01*
X241823750Y-92466000D01*
X241665000Y-92624750D01*
X241411000Y-92624750D01*
X241252250Y-92466000D01*
X240911691Y-92466000D01*
X240678302Y-92562673D01*
X240537064Y-92703910D01*
X240502090Y-92649559D01*
X240289890Y-92504569D01*
X240038000Y-92453560D01*
X239038000Y-92453560D01*
X238802683Y-92497838D01*
X238586559Y-92636910D01*
X238447110Y-92841000D01*
X237796822Y-92841000D01*
X237676799Y-92791162D01*
X237304833Y-92790838D01*
X236961057Y-92932883D01*
X236697808Y-93195673D01*
X236555162Y-93539201D01*
X236554838Y-93911167D01*
X236696883Y-94254943D01*
X236959673Y-94518192D01*
X237303201Y-94660838D01*
X237675167Y-94661162D01*
X237796569Y-94611000D01*
X238450721Y-94611000D01*
X238573910Y-94802441D01*
X238653000Y-94856481D01*
X238653000Y-95896156D01*
X238586559Y-95938910D01*
X238447110Y-96143000D01*
X237856580Y-96143000D01*
X237845790Y-96132210D01*
X237756701Y-96072683D01*
X237558675Y-95940367D01*
X237490218Y-95926750D01*
X237220000Y-95872999D01*
X237219995Y-95873000D01*
X236266669Y-95873000D01*
X236256090Y-95856559D01*
X236043890Y-95711569D01*
X235792000Y-95660560D01*
X235287466Y-95660560D01*
X235380327Y-95567698D01*
X235477000Y-95334309D01*
X235477000Y-95043750D01*
X235318250Y-94885000D01*
X234569000Y-94885000D01*
X234569000Y-95684250D01*
X234655012Y-95770262D01*
X234540559Y-95843910D01*
X234441367Y-95989083D01*
X234356090Y-95856559D01*
X234229314Y-95769936D01*
X234315000Y-95684250D01*
X234315000Y-94885000D01*
X233565750Y-94885000D01*
X233407000Y-95043750D01*
X233407000Y-95334309D01*
X233503673Y-95567698D01*
X233596534Y-95660560D01*
X233092000Y-95660560D01*
X232856683Y-95704838D01*
X232640559Y-95843910D01*
X232495569Y-96056110D01*
X232444560Y-96308000D01*
X232444560Y-97208000D01*
X232458860Y-97284000D01*
X231962802Y-97284000D01*
X231661401Y-96982599D01*
X231414839Y-96817852D01*
X231124000Y-96760000D01*
X230828279Y-96760000D01*
X230705090Y-96568559D01*
X230636994Y-96522031D01*
X230779327Y-96379698D01*
X230876000Y-96146309D01*
X230876000Y-95805750D01*
X230717250Y-95647000D01*
X229743000Y-95647000D01*
X229743000Y-95667000D01*
X229489000Y-95667000D01*
X229489000Y-95647000D01*
X229091187Y-95647000D01*
X229143886Y-95591201D01*
X229170538Y-95548409D01*
X229178442Y-95498620D01*
X229166352Y-95449678D01*
X229136173Y-95409296D01*
X229108323Y-95393000D01*
X229489000Y-95393000D01*
X229489000Y-95373000D01*
X229743000Y-95373000D01*
X229743000Y-95393000D01*
X230717250Y-95393000D01*
X230876000Y-95234250D01*
X230876000Y-94893691D01*
X230779327Y-94660302D01*
X230600699Y-94481673D01*
X230367310Y-94385000D01*
X229901750Y-94385000D01*
X229768661Y-94518089D01*
X229768778Y-94517034D01*
X229764290Y-94466821D01*
X229743002Y-94426789D01*
X229743002Y-94385000D01*
X229678059Y-94385000D01*
X229639963Y-94376035D01*
X229613408Y-94376577D01*
X229575779Y-94385000D01*
X229488998Y-94385000D01*
X229488998Y-94543748D01*
X229330250Y-94385000D01*
X228864690Y-94385000D01*
X228631301Y-94481673D01*
X228452673Y-94660302D01*
X228356000Y-94893691D01*
X228356000Y-95234250D01*
X228514750Y-95393000D01*
X228832103Y-95393000D01*
X228799251Y-95415447D01*
X228771971Y-95457841D01*
X228763334Y-95507509D01*
X228786942Y-95577817D01*
X228836358Y-95647000D01*
X228514750Y-95647000D01*
X228356000Y-95805750D01*
X228356000Y-96146309D01*
X228452673Y-96379698D01*
X228593910Y-96520936D01*
X228539559Y-96555910D01*
X228394569Y-96768110D01*
X228343560Y-97020000D01*
X228343560Y-98020000D01*
X228387838Y-98255317D01*
X228473000Y-98387662D01*
X228473000Y-98753394D01*
X227785394Y-99441000D01*
X218873336Y-99441000D01*
X218978192Y-99336327D01*
X219120838Y-98992799D01*
X219121162Y-98620833D01*
X218979117Y-98277057D01*
X218716327Y-98013808D01*
X218372799Y-97871162D01*
X218000833Y-97870838D01*
X217889112Y-97917000D01*
X217724181Y-97917000D01*
X217674771Y-97927006D01*
X217633146Y-97955447D01*
X217608564Y-97991447D01*
X217550445Y-98119309D01*
X217393808Y-98275673D01*
X217251162Y-98619201D01*
X217251121Y-98666077D01*
X217140599Y-98776599D01*
X216975852Y-99023161D01*
X216918000Y-99314000D01*
X216918000Y-99510688D01*
X216592119Y-100227627D01*
X216580782Y-100276749D01*
X216585744Y-100315493D01*
X216918000Y-101463286D01*
X216918000Y-101854000D01*
X216975852Y-102144839D01*
X217140599Y-102391401D01*
X217205433Y-102456235D01*
X217519801Y-103542235D01*
X217361561Y-103510759D01*
X214659401Y-100808599D01*
X214412839Y-100643852D01*
X214122000Y-100586000D01*
X209844802Y-100586000D01*
X211467680Y-98963122D01*
X211513167Y-98963162D01*
X211856943Y-98821117D01*
X212120192Y-98558327D01*
X212262838Y-98214799D01*
X212263162Y-97842833D01*
X212121117Y-97499057D01*
X211858327Y-97235808D01*
X211514799Y-97093162D01*
X211142833Y-97092838D01*
X210799057Y-97234883D01*
X210535808Y-97497673D01*
X210393162Y-97841201D01*
X210393121Y-97888077D01*
X208457198Y-99824000D01*
X197666463Y-99824000D01*
X197634327Y-99791808D01*
X197290799Y-99649162D01*
X196918833Y-99648838D01*
X196575057Y-99790883D01*
X196311808Y-100053673D01*
X196169162Y-100397201D01*
X196168838Y-100769167D01*
X196310883Y-101112943D01*
X196573673Y-101376192D01*
X196917201Y-101518838D01*
X197289167Y-101519162D01*
X197632943Y-101377117D01*
X197666118Y-101344000D01*
X200863889Y-101344000D01*
X200629808Y-101577673D01*
X200487162Y-101921201D01*
X200486838Y-102293167D01*
X200628883Y-102636943D01*
X200891673Y-102900192D01*
X201235201Y-103042838D01*
X201607167Y-103043162D01*
X201757124Y-102981201D01*
X201756838Y-103309167D01*
X201898883Y-103652943D01*
X202161673Y-103916192D01*
X202505201Y-104058838D01*
X202877167Y-104059162D01*
X203220943Y-103917117D01*
X203254118Y-103884000D01*
X208531614Y-103884000D01*
X208490330Y-103911585D01*
X208165474Y-104397766D01*
X208051400Y-104971255D01*
X208051400Y-105340745D01*
X208165474Y-105914234D01*
X208490330Y-106400415D01*
X208976511Y-106725271D01*
X209550000Y-106839345D01*
X210123489Y-106725271D01*
X210609670Y-106400415D01*
X210820000Y-106085634D01*
X211030330Y-106400415D01*
X211516511Y-106725271D01*
X212090000Y-106839345D01*
X212663489Y-106725271D01*
X213149670Y-106400415D01*
X213360000Y-106085634D01*
X213570330Y-106400415D01*
X214056511Y-106725271D01*
X214630000Y-106839345D01*
X215203489Y-106725271D01*
X215689670Y-106400415D01*
X215900000Y-106085634D01*
X216110330Y-106400415D01*
X216596511Y-106725271D01*
X217170000Y-106839345D01*
X217743489Y-106725271D01*
X218229670Y-106400415D01*
X218440000Y-106085634D01*
X218650330Y-106400415D01*
X219136511Y-106725271D01*
X219710000Y-106839345D01*
X220283489Y-106725271D01*
X220769670Y-106400415D01*
X220980000Y-106085634D01*
X221190330Y-106400415D01*
X221490000Y-106600648D01*
X221490000Y-109049478D01*
X218014299Y-112764882D01*
X217734636Y-112637763D01*
X217475668Y-112579793D01*
X217223097Y-112627317D01*
X217008915Y-112769362D01*
X216921941Y-112856336D01*
X217442123Y-113376518D01*
X217268505Y-113562110D01*
X216742336Y-113035941D01*
X216655362Y-113122915D01*
X216510152Y-113345040D01*
X216465967Y-113598216D01*
X216523763Y-113848636D01*
X216679646Y-114191580D01*
X206954899Y-124587000D01*
X180975000Y-124587000D01*
X180975000Y-122353245D01*
X181132192Y-122196327D01*
X181274838Y-121852799D01*
X181275162Y-121480833D01*
X181133117Y-121137057D01*
X181100000Y-121103882D01*
X181100000Y-119411750D01*
X184647000Y-119411750D01*
X184647000Y-120152310D01*
X184743673Y-120385699D01*
X184922302Y-120564327D01*
X185155691Y-120661000D01*
X185896250Y-120661000D01*
X186055000Y-120502250D01*
X186055000Y-119253000D01*
X184805750Y-119253000D01*
X184647000Y-119411750D01*
X181100000Y-119411750D01*
X181100000Y-118099690D01*
X184647000Y-118099690D01*
X184647000Y-118840250D01*
X184805750Y-118999000D01*
X186055000Y-118999000D01*
X186055000Y-117749750D01*
X186309000Y-117749750D01*
X186309000Y-118999000D01*
X186329000Y-118999000D01*
X186329000Y-119253000D01*
X186309000Y-119253000D01*
X186309000Y-120502250D01*
X186467750Y-120661000D01*
X187208309Y-120661000D01*
X187441698Y-120564327D01*
X187620327Y-120385699D01*
X187676119Y-120251006D01*
X187851357Y-120426551D01*
X188415330Y-120660733D01*
X189025991Y-120661265D01*
X189590371Y-120428068D01*
X190022551Y-119996643D01*
X190256733Y-119432670D01*
X190257265Y-118822009D01*
X190024068Y-118257629D01*
X189592643Y-117825449D01*
X189028670Y-117591267D01*
X188418009Y-117590735D01*
X187853629Y-117823932D01*
X187676159Y-118001092D01*
X187620327Y-117866301D01*
X187441698Y-117687673D01*
X187208309Y-117591000D01*
X186467750Y-117591000D01*
X186309000Y-117749750D01*
X186055000Y-117749750D01*
X185896250Y-117591000D01*
X185155691Y-117591000D01*
X184922302Y-117687673D01*
X184743673Y-117866301D01*
X184647000Y-118099690D01*
X181100000Y-118099690D01*
X181100000Y-115116463D01*
X181132192Y-115084327D01*
X181274838Y-114740799D01*
X181275162Y-114368833D01*
X181133117Y-114025057D01*
X180975000Y-113866664D01*
X180975000Y-113315750D01*
X184647000Y-113315750D01*
X184647000Y-114056310D01*
X184743673Y-114289699D01*
X184922302Y-114468327D01*
X185155691Y-114565000D01*
X185896250Y-114565000D01*
X186055000Y-114406250D01*
X186055000Y-113157000D01*
X184805750Y-113157000D01*
X184647000Y-113315750D01*
X180975000Y-113315750D01*
X180975000Y-112003690D01*
X184647000Y-112003690D01*
X184647000Y-112744250D01*
X184805750Y-112903000D01*
X186055000Y-112903000D01*
X186055000Y-111653750D01*
X186309000Y-111653750D01*
X186309000Y-112903000D01*
X186329000Y-112903000D01*
X186329000Y-113157000D01*
X186309000Y-113157000D01*
X186309000Y-114406250D01*
X186467750Y-114565000D01*
X187208309Y-114565000D01*
X187441698Y-114468327D01*
X187620327Y-114289699D01*
X187676119Y-114155006D01*
X187851357Y-114330551D01*
X188415330Y-114564733D01*
X189025991Y-114565265D01*
X189590371Y-114332068D01*
X190022551Y-113900643D01*
X190256733Y-113336670D01*
X190257265Y-112726009D01*
X190024068Y-112161629D01*
X189592643Y-111729449D01*
X189028670Y-111495267D01*
X188418009Y-111494735D01*
X187853629Y-111727932D01*
X187676159Y-111905092D01*
X187620327Y-111770301D01*
X187441698Y-111591673D01*
X187208309Y-111495000D01*
X186467750Y-111495000D01*
X186309000Y-111653750D01*
X186055000Y-111653750D01*
X185896250Y-111495000D01*
X185155691Y-111495000D01*
X184922302Y-111591673D01*
X184743673Y-111770301D01*
X184647000Y-112003690D01*
X180975000Y-112003690D01*
X180975000Y-107219750D01*
X184647000Y-107219750D01*
X184647000Y-107960310D01*
X184743673Y-108193699D01*
X184922302Y-108372327D01*
X185155691Y-108469000D01*
X185896250Y-108469000D01*
X186055000Y-108310250D01*
X186055000Y-107061000D01*
X184805750Y-107061000D01*
X184647000Y-107219750D01*
X180975000Y-107219750D01*
X180975000Y-105918000D01*
X180972913Y-105907690D01*
X184647000Y-105907690D01*
X184647000Y-106648250D01*
X184805750Y-106807000D01*
X186055000Y-106807000D01*
X186055000Y-105557750D01*
X186309000Y-105557750D01*
X186309000Y-106807000D01*
X186329000Y-106807000D01*
X186329000Y-107061000D01*
X186309000Y-107061000D01*
X186309000Y-108310250D01*
X186467750Y-108469000D01*
X187208309Y-108469000D01*
X187441698Y-108372327D01*
X187620327Y-108193699D01*
X187676119Y-108059006D01*
X187851357Y-108234551D01*
X188415330Y-108468733D01*
X189025991Y-108469265D01*
X189590371Y-108236068D01*
X190022551Y-107804643D01*
X190256733Y-107240670D01*
X190257265Y-106630009D01*
X190024068Y-106065629D01*
X189592643Y-105633449D01*
X189028670Y-105399267D01*
X188418009Y-105398735D01*
X187853629Y-105631932D01*
X187676159Y-105809092D01*
X187620327Y-105674301D01*
X187441698Y-105495673D01*
X187208309Y-105399000D01*
X186467750Y-105399000D01*
X186309000Y-105557750D01*
X186055000Y-105557750D01*
X185896250Y-105399000D01*
X185155691Y-105399000D01*
X184922302Y-105495673D01*
X184743673Y-105674301D01*
X184647000Y-105907690D01*
X180972913Y-105907690D01*
X180964994Y-105868590D01*
X180936553Y-105826965D01*
X180894159Y-105799685D01*
X180848000Y-105791000D01*
X174625000Y-105791000D01*
X174625000Y-103684606D01*
X174746439Y-103563167D01*
X175594838Y-103563167D01*
X175736883Y-103906943D01*
X175999673Y-104170192D01*
X176343201Y-104312838D01*
X176715167Y-104313162D01*
X177058943Y-104171117D01*
X177322192Y-103908327D01*
X177464838Y-103564799D01*
X177464839Y-103563167D01*
X178388838Y-103563167D01*
X178530883Y-103906943D01*
X178793673Y-104170192D01*
X179137201Y-104312838D01*
X179509167Y-104313162D01*
X179852943Y-104171117D01*
X180116192Y-103908327D01*
X180258838Y-103564799D01*
X180258879Y-103517923D01*
X182432802Y-101344000D01*
X184857537Y-101344000D01*
X184889673Y-101376192D01*
X185233201Y-101518838D01*
X185605167Y-101519162D01*
X185948943Y-101377117D01*
X186212192Y-101114327D01*
X186354838Y-100770799D01*
X186355162Y-100398833D01*
X186213117Y-100055057D01*
X185950327Y-99791808D01*
X185606799Y-99649162D01*
X185234833Y-99648838D01*
X184891057Y-99790883D01*
X184857882Y-99824000D01*
X182118000Y-99824000D01*
X181827161Y-99881852D01*
X181580599Y-100046599D01*
X179184320Y-102442878D01*
X179138833Y-102442838D01*
X178795057Y-102584883D01*
X178531808Y-102847673D01*
X178389162Y-103191201D01*
X178388838Y-103563167D01*
X177464839Y-103563167D01*
X177464879Y-103517923D01*
X182826804Y-98155998D01*
X182878704Y-98233673D01*
X183571348Y-98696483D01*
X184388377Y-98859000D01*
X185491623Y-98859000D01*
X186308652Y-98696483D01*
X187001296Y-98233673D01*
X187464106Y-97541029D01*
X187626623Y-96724000D01*
X187464106Y-95906971D01*
X187001296Y-95214327D01*
X186308652Y-94751517D01*
X185491623Y-94589000D01*
X184388377Y-94589000D01*
X183571348Y-94751517D01*
X182878704Y-95214327D01*
X182415894Y-95906971D01*
X182289177Y-96544021D01*
X176390320Y-102442878D01*
X176344833Y-102442838D01*
X176001057Y-102584883D01*
X175737808Y-102847673D01*
X175595162Y-103191201D01*
X175594838Y-103563167D01*
X174746439Y-103563167D01*
X175603803Y-102705803D01*
X175607619Y-102701817D01*
X178401619Y-99653817D01*
X178401972Y-99653429D01*
X183444180Y-94107000D01*
X196469000Y-94107000D01*
X196469000Y-98298000D01*
X196479006Y-98347410D01*
X196507447Y-98389035D01*
X196549841Y-98416315D01*
X196596000Y-98425000D01*
X199365045Y-98425000D01*
X199771348Y-98696483D01*
X200588377Y-98859000D01*
X201691623Y-98859000D01*
X202508652Y-98696483D01*
X202914955Y-98425000D01*
X204724000Y-98425000D01*
X204773410Y-98414994D01*
X204815035Y-98386553D01*
X204842315Y-98344159D01*
X204851000Y-98298000D01*
X204851000Y-82802000D01*
X217881889Y-82802000D01*
X217647808Y-83035673D01*
X217647808Y-83035673D01*
G37*
X217647808Y-83035673D02*
X217505162Y-83379201D01*
X217504838Y-83751167D01*
X217646883Y-84094943D01*
X217909673Y-84358192D01*
X218253201Y-84500838D01*
X218300077Y-84500879D01*
X220298878Y-86499680D01*
X220298838Y-86545167D01*
X220404310Y-86800430D01*
X220150799Y-86695162D01*
X220103923Y-86695121D01*
X218613122Y-85204320D01*
X218613162Y-85158833D01*
X218471117Y-84815057D01*
X218208327Y-84551808D01*
X217864799Y-84409162D01*
X217492833Y-84408838D01*
X217149057Y-84550883D01*
X216885808Y-84813673D01*
X216743162Y-85157201D01*
X216742838Y-85529167D01*
X216884883Y-85872943D01*
X217147673Y-86136192D01*
X217491201Y-86278838D01*
X217538077Y-86278879D01*
X219028878Y-87769680D01*
X219028838Y-87815167D01*
X219170883Y-88158943D01*
X219321591Y-88309914D01*
X219136511Y-88346729D01*
X218650330Y-88671585D01*
X218440000Y-88986366D01*
X218229670Y-88671585D01*
X217894161Y-88447405D01*
X217952943Y-88423117D01*
X218216192Y-88160327D01*
X218358838Y-87816799D01*
X218359162Y-87444833D01*
X218217117Y-87101057D01*
X217954327Y-86837808D01*
X217610799Y-86695162D01*
X217563923Y-86695121D01*
X216073122Y-85204320D01*
X216073162Y-85158833D01*
X215931117Y-84815057D01*
X215668327Y-84551808D01*
X215324799Y-84409162D01*
X214952833Y-84408838D01*
X214609057Y-84550883D01*
X214345808Y-84813673D01*
X214203162Y-85157201D01*
X214202838Y-85529167D01*
X214344883Y-85872943D01*
X214607673Y-86136192D01*
X214951201Y-86278838D01*
X214998077Y-86278879D01*
X216488878Y-87769680D01*
X216488838Y-87815167D01*
X216630883Y-88158943D01*
X216781591Y-88309914D01*
X216596511Y-88346729D01*
X216110330Y-88671585D01*
X215900000Y-88986366D01*
X215689670Y-88671585D01*
X215203489Y-88346729D01*
X214630000Y-88232655D01*
X214056511Y-88346729D01*
X213570330Y-88671585D01*
X213360000Y-88986366D01*
X213149670Y-88671585D01*
X212663489Y-88346729D01*
X212090000Y-88232655D01*
X211516511Y-88346729D01*
X211030330Y-88671585D01*
X210820000Y-88986366D01*
X210609670Y-88671585D01*
X210123489Y-88346729D01*
X209550000Y-88232655D01*
X208976511Y-88346729D01*
X208490330Y-88671585D01*
X208165474Y-89157766D01*
X208051400Y-89731255D01*
X208051400Y-90100745D01*
X208165474Y-90674234D01*
X208490330Y-91160415D01*
X208976511Y-91485271D01*
X209550000Y-91599345D01*
X210123489Y-91485271D01*
X210609670Y-91160415D01*
X210820000Y-90845634D01*
X211030330Y-91160415D01*
X211516511Y-91485271D01*
X212090000Y-91599345D01*
X212663489Y-91485271D01*
X213149670Y-91160415D01*
X213360000Y-90845634D01*
X213570330Y-91160415D01*
X214056511Y-91485271D01*
X214630000Y-91599345D01*
X215068597Y-91512103D01*
X214965162Y-91761201D01*
X214965121Y-91808077D01*
X214823198Y-91950000D01*
X213614000Y-91950000D01*
X213323160Y-92007852D01*
X213076599Y-92172599D01*
X212204320Y-93044878D01*
X212158833Y-93044838D01*
X211815057Y-93186883D01*
X211551808Y-93449673D01*
X211409162Y-93793201D01*
X211408838Y-94165167D01*
X211550883Y-94508943D01*
X211813673Y-94772192D01*
X212157201Y-94914838D01*
X212529167Y-94915162D01*
X212872943Y-94773117D01*
X213136192Y-94510327D01*
X213278838Y-94166799D01*
X213278879Y-94119923D01*
X213454521Y-93944281D01*
X213582883Y-94254943D01*
X213845673Y-94518192D01*
X214189201Y-94660838D01*
X214236077Y-94660879D01*
X214964878Y-95389680D01*
X214964838Y-95435167D01*
X215106883Y-95778943D01*
X215369673Y-96042192D01*
X215681517Y-96171681D01*
X215331198Y-96522000D01*
X214630000Y-96522000D01*
X214339160Y-96579852D01*
X214092599Y-96744599D01*
X213838599Y-96998599D01*
X213673852Y-97245161D01*
X213616000Y-97536000D01*
X213616000Y-97735537D01*
X213583808Y-97767673D01*
X213441162Y-98111201D01*
X213440838Y-98483167D01*
X213582883Y-98826943D01*
X213845673Y-99090192D01*
X214189201Y-99232838D01*
X214561167Y-99233162D01*
X214904943Y-99091117D01*
X215168192Y-98828327D01*
X215310838Y-98484799D01*
X215311162Y-98112833D01*
X215281894Y-98042000D01*
X215646000Y-98042000D01*
X215936839Y-97984148D01*
X216183401Y-97819401D01*
X217199401Y-96803401D01*
X217364148Y-96556839D01*
X217422000Y-96266000D01*
X217422000Y-92516802D01*
X217707401Y-92231401D01*
X217872147Y-91984840D01*
X217872148Y-91984839D01*
X217930000Y-91694000D01*
X217930000Y-91360648D01*
X218229670Y-91160415D01*
X218440000Y-90845634D01*
X218650330Y-91160415D01*
X219136511Y-91485271D01*
X219710000Y-91599345D01*
X220148597Y-91512103D01*
X220045162Y-91761201D01*
X220044838Y-92133167D01*
X220186883Y-92476943D01*
X220449673Y-92740192D01*
X220793201Y-92882838D01*
X221165167Y-92883162D01*
X221508943Y-92741117D01*
X221772192Y-92478327D01*
X221914838Y-92134799D01*
X221915162Y-91762833D01*
X221811577Y-91512137D01*
X222250000Y-91599345D01*
X222823489Y-91485271D01*
X223309670Y-91160415D01*
X223520000Y-90845634D01*
X223730330Y-91160415D01*
X224216511Y-91485271D01*
X224790000Y-91599345D01*
X225363489Y-91485271D01*
X225849670Y-91160415D01*
X226060000Y-90845634D01*
X226270330Y-91160415D01*
X226756511Y-91485271D01*
X227330000Y-91599345D01*
X227840000Y-91497900D01*
X227840000Y-92141198D01*
X226792599Y-93188599D01*
X226627852Y-93435161D01*
X226570000Y-93726000D01*
X226570000Y-95951198D01*
X226120860Y-96400338D01*
X225992799Y-96347162D01*
X225620833Y-96346838D01*
X225277057Y-96488883D01*
X225013808Y-96751673D01*
X224871162Y-97095201D01*
X224870838Y-97467167D01*
X225012883Y-97810943D01*
X225275673Y-98074192D01*
X225619201Y-98216838D01*
X225991167Y-98217162D01*
X226334943Y-98075117D01*
X226381585Y-98028556D01*
X226604839Y-97984148D01*
X226851401Y-97819401D01*
X227198912Y-97471890D01*
X227919303Y-96871564D01*
X227950856Y-96832246D01*
X227965000Y-96774000D01*
X227965000Y-96657333D01*
X228032148Y-96556839D01*
X228090000Y-96266000D01*
X228090000Y-94181691D01*
X233407000Y-94181691D01*
X233407000Y-94472250D01*
X233565750Y-94631000D01*
X234315000Y-94631000D01*
X234315000Y-93831750D01*
X234569000Y-93831750D01*
X234569000Y-94631000D01*
X235318250Y-94631000D01*
X235477000Y-94472250D01*
X235477000Y-94181691D01*
X235380327Y-93948302D01*
X235201699Y-93769673D01*
X234968310Y-93673000D01*
X234727750Y-93673000D01*
X234569000Y-93831750D01*
X234315000Y-93831750D01*
X234156250Y-93673000D01*
X233915690Y-93673000D01*
X233682301Y-93769673D01*
X233503673Y-93948302D01*
X233407000Y-94181691D01*
X228090000Y-94181691D01*
X228090000Y-94040802D01*
X229137401Y-92993401D01*
X229302148Y-92746840D01*
X229360000Y-92456000D01*
X229360000Y-91497900D01*
X229870000Y-91599345D01*
X230443489Y-91485271D01*
X230929670Y-91160415D01*
X231140000Y-90845634D01*
X231350330Y-91160415D01*
X231836511Y-91485271D01*
X232410000Y-91599345D01*
X232983489Y-91485271D01*
X233469670Y-91160415D01*
X233680000Y-90845634D01*
X233890330Y-91160415D01*
X234376511Y-91485271D01*
X234950000Y-91599345D01*
X235523489Y-91485271D01*
X236009670Y-91160415D01*
X236220000Y-90845634D01*
X236430330Y-91160415D01*
X236916511Y-91485271D01*
X237490000Y-91599345D01*
X238063489Y-91485271D01*
X238549670Y-91160415D01*
X238760000Y-90845634D01*
X238970330Y-91160415D01*
X239456511Y-91485271D01*
X240030000Y-91599345D01*
X240603489Y-91485271D01*
X240989122Y-91227599D01*
X241015673Y-91291698D01*
X241194301Y-91470327D01*
X241313015Y-91519500D01*
X241331970Y-91541081D01*
X241377354Y-91563031D01*
X241408857Y-91567000D01*
X241427000Y-91567000D01*
X241427463Y-91566906D01*
X241427690Y-91567000D01*
X242284250Y-91567000D01*
X242443000Y-91408250D01*
X242443000Y-91059000D01*
X242697000Y-91059000D01*
X242697000Y-91408250D01*
X242855750Y-91567000D01*
X243130000Y-91567000D01*
X243130000Y-103584046D01*
X242570000Y-103472655D01*
X241996511Y-103586729D01*
X241510330Y-103911585D01*
X241427000Y-104036297D01*
X241427000Y-101600000D01*
X241416994Y-101550590D01*
X241411000Y-101541817D01*
X241411000Y-100711000D01*
X241665000Y-100711000D01*
X241665000Y-101685250D01*
X241823750Y-101844000D01*
X242164309Y-101844000D01*
X242397698Y-101747327D01*
X242576327Y-101568699D01*
X242673000Y-101335310D01*
X242673000Y-100869750D01*
X242514250Y-100711000D01*
X241665000Y-100711000D01*
X241411000Y-100711000D01*
X241391000Y-100711000D01*
X241391000Y-100457000D01*
X241411000Y-100457000D01*
X241411000Y-99482750D01*
X241665000Y-99482750D01*
X241665000Y-100457000D01*
X242514250Y-100457000D01*
X242673000Y-100298250D01*
X242673000Y-99832690D01*
X242576327Y-99599301D01*
X242397698Y-99420673D01*
X242164309Y-99324000D01*
X241823750Y-99324000D01*
X241665000Y-99482750D01*
X241411000Y-99482750D01*
X241252250Y-99324000D01*
X240919000Y-99324000D01*
X240919000Y-98288000D01*
X241252250Y-98288000D01*
X241411000Y-98129250D01*
X241411000Y-97155000D01*
X241665000Y-97155000D01*
X241665000Y-98129250D01*
X241823750Y-98288000D01*
X242164309Y-98288000D01*
X242397698Y-98191327D01*
X242576327Y-98012699D01*
X242673000Y-97779310D01*
X242673000Y-97313750D01*
X242514250Y-97155000D01*
X241665000Y-97155000D01*
X241411000Y-97155000D01*
X241391000Y-97155000D01*
X241391000Y-96901000D01*
X241411000Y-96901000D01*
X241411000Y-95926750D01*
X241665000Y-95926750D01*
X241665000Y-96901000D01*
X242514250Y-96901000D01*
X242673000Y-96742250D01*
X242673000Y-96276690D01*
X242576327Y-96043301D01*
X242397698Y-95864673D01*
X242164309Y-95768000D01*
X241823750Y-95768000D01*
X241665000Y-95926750D01*
X241411000Y-95926750D01*
X241252250Y-95768000D01*
X240911691Y-95768000D01*
X240678302Y-95864673D01*
X240537064Y-96005910D01*
X240502090Y-95951559D01*
X240423000Y-95897519D01*
X240423000Y-94857844D01*
X240489441Y-94815090D01*
X240535969Y-94746994D01*
X240678302Y-94889327D01*
X240911691Y-94986000D01*
X241252250Y-94986000D01*
X241411000Y-94827250D01*
X241411000Y-93853000D01*
X241665000Y-93853000D01*
X241665000Y-94827250D01*
X241823750Y-94986000D01*
X242164309Y-94986000D01*
X242397698Y-94889327D01*
X242576327Y-94710699D01*
X242673000Y-94477310D01*
X242673000Y-94011750D01*
X242514250Y-93853000D01*
X241665000Y-93853000D01*
X241411000Y-93853000D01*
X241391000Y-93853000D01*
X241391000Y-93599000D01*
X241411000Y-93599000D01*
X241411000Y-92624750D01*
X241665000Y-92624750D01*
X241665000Y-93599000D01*
X242514250Y-93599000D01*
X242673000Y-93440250D01*
X242673000Y-92974690D01*
X242576327Y-92741301D01*
X242397698Y-92562673D01*
X242164309Y-92466000D01*
X241823750Y-92466000D01*
X241665000Y-92624750D01*
X241411000Y-92624750D01*
X241252250Y-92466000D01*
X240911691Y-92466000D01*
X240678302Y-92562673D01*
X240537064Y-92703910D01*
X240502090Y-92649559D01*
X240289890Y-92504569D01*
X240038000Y-92453560D01*
X239038000Y-92453560D01*
X238802683Y-92497838D01*
X238586559Y-92636910D01*
X238447110Y-92841000D01*
X237796822Y-92841000D01*
X237676799Y-92791162D01*
X237304833Y-92790838D01*
X236961057Y-92932883D01*
X236697808Y-93195673D01*
X236555162Y-93539201D01*
X236554838Y-93911167D01*
X236696883Y-94254943D01*
X236959673Y-94518192D01*
X237303201Y-94660838D01*
X237675167Y-94661162D01*
X237796569Y-94611000D01*
X238450721Y-94611000D01*
X238573910Y-94802441D01*
X238653000Y-94856481D01*
X238653000Y-95896156D01*
X238586559Y-95938910D01*
X238447110Y-96143000D01*
X237856580Y-96143000D01*
X237845790Y-96132210D01*
X237756701Y-96072683D01*
X237558675Y-95940367D01*
X237490218Y-95926750D01*
X237220000Y-95872999D01*
X237219995Y-95873000D01*
X236266669Y-95873000D01*
X236256090Y-95856559D01*
X236043890Y-95711569D01*
X235792000Y-95660560D01*
X235287466Y-95660560D01*
X235380327Y-95567698D01*
X235477000Y-95334309D01*
X235477000Y-95043750D01*
X235318250Y-94885000D01*
X234569000Y-94885000D01*
X234569000Y-95684250D01*
X234655012Y-95770262D01*
X234540559Y-95843910D01*
X234441367Y-95989083D01*
X234356090Y-95856559D01*
X234229314Y-95769936D01*
X234315000Y-95684250D01*
X234315000Y-94885000D01*
X233565750Y-94885000D01*
X233407000Y-95043750D01*
X233407000Y-95334309D01*
X233503673Y-95567698D01*
X233596534Y-95660560D01*
X233092000Y-95660560D01*
X232856683Y-95704838D01*
X232640559Y-95843910D01*
X232495569Y-96056110D01*
X232444560Y-96308000D01*
X232444560Y-97208000D01*
X232458860Y-97284000D01*
X231962802Y-97284000D01*
X231661401Y-96982599D01*
X231414839Y-96817852D01*
X231124000Y-96760000D01*
X230828279Y-96760000D01*
X230705090Y-96568559D01*
X230636994Y-96522031D01*
X230779327Y-96379698D01*
X230876000Y-96146309D01*
X230876000Y-95805750D01*
X230717250Y-95647000D01*
X229743000Y-95647000D01*
X229743000Y-95667000D01*
X229489000Y-95667000D01*
X229489000Y-95647000D01*
X229091187Y-95647000D01*
X229143886Y-95591201D01*
X229170538Y-95548409D01*
X229178442Y-95498620D01*
X229166352Y-95449678D01*
X229136173Y-95409296D01*
X229108323Y-95393000D01*
X229489000Y-95393000D01*
X229489000Y-95373000D01*
X229743000Y-95373000D01*
X229743000Y-95393000D01*
X230717250Y-95393000D01*
X230876000Y-95234250D01*
X230876000Y-94893691D01*
X230779327Y-94660302D01*
X230600699Y-94481673D01*
X230367310Y-94385000D01*
X229901750Y-94385000D01*
X229768661Y-94518089D01*
X229768778Y-94517034D01*
X229764290Y-94466821D01*
X229743002Y-94426789D01*
X229743002Y-94385000D01*
X229678059Y-94385000D01*
X229639963Y-94376035D01*
X229613408Y-94376577D01*
X229575779Y-94385000D01*
X229488998Y-94385000D01*
X229488998Y-94543748D01*
X229330250Y-94385000D01*
X228864690Y-94385000D01*
X228631301Y-94481673D01*
X228452673Y-94660302D01*
X228356000Y-94893691D01*
X228356000Y-95234250D01*
X228514750Y-95393000D01*
X228832103Y-95393000D01*
X228799251Y-95415447D01*
X228771971Y-95457841D01*
X228763334Y-95507509D01*
X228786942Y-95577817D01*
X228836358Y-95647000D01*
X228514750Y-95647000D01*
X228356000Y-95805750D01*
X228356000Y-96146309D01*
X228452673Y-96379698D01*
X228593910Y-96520936D01*
X228539559Y-96555910D01*
X228394569Y-96768110D01*
X228343560Y-97020000D01*
X228343560Y-98020000D01*
X228387838Y-98255317D01*
X228473000Y-98387662D01*
X228473000Y-98753394D01*
X227785394Y-99441000D01*
X218873336Y-99441000D01*
X218978192Y-99336327D01*
X219120838Y-98992799D01*
X219121162Y-98620833D01*
X218979117Y-98277057D01*
X218716327Y-98013808D01*
X218372799Y-97871162D01*
X218000833Y-97870838D01*
X217889112Y-97917000D01*
X217724181Y-97917000D01*
X217674771Y-97927006D01*
X217633146Y-97955447D01*
X217608564Y-97991447D01*
X217550445Y-98119309D01*
X217393808Y-98275673D01*
X217251162Y-98619201D01*
X217251121Y-98666077D01*
X217140599Y-98776599D01*
X216975852Y-99023161D01*
X216918000Y-99314000D01*
X216918000Y-99510688D01*
X216592119Y-100227627D01*
X216580782Y-100276749D01*
X216585744Y-100315493D01*
X216918000Y-101463286D01*
X216918000Y-101854000D01*
X216975852Y-102144839D01*
X217140599Y-102391401D01*
X217205433Y-102456235D01*
X217519801Y-103542235D01*
X217361561Y-103510759D01*
X214659401Y-100808599D01*
X214412839Y-100643852D01*
X214122000Y-100586000D01*
X209844802Y-100586000D01*
X211467680Y-98963122D01*
X211513167Y-98963162D01*
X211856943Y-98821117D01*
X212120192Y-98558327D01*
X212262838Y-98214799D01*
X212263162Y-97842833D01*
X212121117Y-97499057D01*
X211858327Y-97235808D01*
X211514799Y-97093162D01*
X211142833Y-97092838D01*
X210799057Y-97234883D01*
X210535808Y-97497673D01*
X210393162Y-97841201D01*
X210393121Y-97888077D01*
X208457198Y-99824000D01*
X197666463Y-99824000D01*
X197634327Y-99791808D01*
X197290799Y-99649162D01*
X196918833Y-99648838D01*
X196575057Y-99790883D01*
X196311808Y-100053673D01*
X196169162Y-100397201D01*
X196168838Y-100769167D01*
X196310883Y-101112943D01*
X196573673Y-101376192D01*
X196917201Y-101518838D01*
X197289167Y-101519162D01*
X197632943Y-101377117D01*
X197666118Y-101344000D01*
X200863889Y-101344000D01*
X200629808Y-101577673D01*
X200487162Y-101921201D01*
X200486838Y-102293167D01*
X200628883Y-102636943D01*
X200891673Y-102900192D01*
X201235201Y-103042838D01*
X201607167Y-103043162D01*
X201757124Y-102981201D01*
X201756838Y-103309167D01*
X201898883Y-103652943D01*
X202161673Y-103916192D01*
X202505201Y-104058838D01*
X202877167Y-104059162D01*
X203220943Y-103917117D01*
X203254118Y-103884000D01*
X208531614Y-103884000D01*
X208490330Y-103911585D01*
X208165474Y-104397766D01*
X208051400Y-104971255D01*
X208051400Y-105340745D01*
X208165474Y-105914234D01*
X208490330Y-106400415D01*
X208976511Y-106725271D01*
X209550000Y-106839345D01*
X210123489Y-106725271D01*
X210609670Y-106400415D01*
X210820000Y-106085634D01*
X211030330Y-106400415D01*
X211516511Y-106725271D01*
X212090000Y-106839345D01*
X212663489Y-106725271D01*
X213149670Y-106400415D01*
X213360000Y-106085634D01*
X213570330Y-106400415D01*
X214056511Y-106725271D01*
X214630000Y-106839345D01*
X215203489Y-106725271D01*
X215689670Y-106400415D01*
X215900000Y-106085634D01*
X216110330Y-106400415D01*
X216596511Y-106725271D01*
X217170000Y-106839345D01*
X217743489Y-106725271D01*
X218229670Y-106400415D01*
X218440000Y-106085634D01*
X218650330Y-106400415D01*
X219136511Y-106725271D01*
X219710000Y-106839345D01*
X220283489Y-106725271D01*
X220769670Y-106400415D01*
X220980000Y-106085634D01*
X221190330Y-106400415D01*
X221490000Y-106600648D01*
X221490000Y-109049478D01*
X218014299Y-112764882D01*
X217734636Y-112637763D01*
X217475668Y-112579793D01*
X217223097Y-112627317D01*
X217008915Y-112769362D01*
X216921941Y-112856336D01*
X217442123Y-113376518D01*
X217268505Y-113562110D01*
X216742336Y-113035941D01*
X216655362Y-113122915D01*
X216510152Y-113345040D01*
X216465967Y-113598216D01*
X216523763Y-113848636D01*
X216679646Y-114191580D01*
X206954899Y-124587000D01*
X180975000Y-124587000D01*
X180975000Y-122353245D01*
X181132192Y-122196327D01*
X181274838Y-121852799D01*
X181275162Y-121480833D01*
X181133117Y-121137057D01*
X181100000Y-121103882D01*
X181100000Y-119411750D01*
X184647000Y-119411750D01*
X184647000Y-120152310D01*
X184743673Y-120385699D01*
X184922302Y-120564327D01*
X185155691Y-120661000D01*
X185896250Y-120661000D01*
X186055000Y-120502250D01*
X186055000Y-119253000D01*
X184805750Y-119253000D01*
X184647000Y-119411750D01*
X181100000Y-119411750D01*
X181100000Y-118099690D01*
X184647000Y-118099690D01*
X184647000Y-118840250D01*
X184805750Y-118999000D01*
X186055000Y-118999000D01*
X186055000Y-117749750D01*
X186309000Y-117749750D01*
X186309000Y-118999000D01*
X186329000Y-118999000D01*
X186329000Y-119253000D01*
X186309000Y-119253000D01*
X186309000Y-120502250D01*
X186467750Y-120661000D01*
X187208309Y-120661000D01*
X187441698Y-120564327D01*
X187620327Y-120385699D01*
X187676119Y-120251006D01*
X187851357Y-120426551D01*
X188415330Y-120660733D01*
X189025991Y-120661265D01*
X189590371Y-120428068D01*
X190022551Y-119996643D01*
X190256733Y-119432670D01*
X190257265Y-118822009D01*
X190024068Y-118257629D01*
X189592643Y-117825449D01*
X189028670Y-117591267D01*
X188418009Y-117590735D01*
X187853629Y-117823932D01*
X187676159Y-118001092D01*
X187620327Y-117866301D01*
X187441698Y-117687673D01*
X187208309Y-117591000D01*
X186467750Y-117591000D01*
X186309000Y-117749750D01*
X186055000Y-117749750D01*
X185896250Y-117591000D01*
X185155691Y-117591000D01*
X184922302Y-117687673D01*
X184743673Y-117866301D01*
X184647000Y-118099690D01*
X181100000Y-118099690D01*
X181100000Y-115116463D01*
X181132192Y-115084327D01*
X181274838Y-114740799D01*
X181275162Y-114368833D01*
X181133117Y-114025057D01*
X180975000Y-113866664D01*
X180975000Y-113315750D01*
X184647000Y-113315750D01*
X184647000Y-114056310D01*
X184743673Y-114289699D01*
X184922302Y-114468327D01*
X185155691Y-114565000D01*
X185896250Y-114565000D01*
X186055000Y-114406250D01*
X186055000Y-113157000D01*
X184805750Y-113157000D01*
X184647000Y-113315750D01*
X180975000Y-113315750D01*
X180975000Y-112003690D01*
X184647000Y-112003690D01*
X184647000Y-112744250D01*
X184805750Y-112903000D01*
X186055000Y-112903000D01*
X186055000Y-111653750D01*
X186309000Y-111653750D01*
X186309000Y-112903000D01*
X186329000Y-112903000D01*
X186329000Y-113157000D01*
X186309000Y-113157000D01*
X186309000Y-114406250D01*
X186467750Y-114565000D01*
X187208309Y-114565000D01*
X187441698Y-114468327D01*
X187620327Y-114289699D01*
X187676119Y-114155006D01*
X187851357Y-114330551D01*
X188415330Y-114564733D01*
X189025991Y-114565265D01*
X189590371Y-114332068D01*
X190022551Y-113900643D01*
X190256733Y-113336670D01*
X190257265Y-112726009D01*
X190024068Y-112161629D01*
X189592643Y-111729449D01*
X189028670Y-111495267D01*
X188418009Y-111494735D01*
X187853629Y-111727932D01*
X187676159Y-111905092D01*
X187620327Y-111770301D01*
X187441698Y-111591673D01*
X187208309Y-111495000D01*
X186467750Y-111495000D01*
X186309000Y-111653750D01*
X186055000Y-111653750D01*
X185896250Y-111495000D01*
X185155691Y-111495000D01*
X184922302Y-111591673D01*
X184743673Y-111770301D01*
X184647000Y-112003690D01*
X180975000Y-112003690D01*
X180975000Y-107219750D01*
X184647000Y-107219750D01*
X184647000Y-107960310D01*
X184743673Y-108193699D01*
X184922302Y-108372327D01*
X185155691Y-108469000D01*
X185896250Y-108469000D01*
X186055000Y-108310250D01*
X186055000Y-107061000D01*
X184805750Y-107061000D01*
X184647000Y-107219750D01*
X180975000Y-107219750D01*
X180975000Y-105918000D01*
X180972913Y-105907690D01*
X184647000Y-105907690D01*
X184647000Y-106648250D01*
X184805750Y-106807000D01*
X186055000Y-106807000D01*
X186055000Y-105557750D01*
X186309000Y-105557750D01*
X186309000Y-106807000D01*
X186329000Y-106807000D01*
X186329000Y-107061000D01*
X186309000Y-107061000D01*
X186309000Y-108310250D01*
X186467750Y-108469000D01*
X187208309Y-108469000D01*
X187441698Y-108372327D01*
X187620327Y-108193699D01*
X187676119Y-108059006D01*
X187851357Y-108234551D01*
X188415330Y-108468733D01*
X189025991Y-108469265D01*
X189590371Y-108236068D01*
X190022551Y-107804643D01*
X190256733Y-107240670D01*
X190257265Y-106630009D01*
X190024068Y-106065629D01*
X189592643Y-105633449D01*
X189028670Y-105399267D01*
X188418009Y-105398735D01*
X187853629Y-105631932D01*
X187676159Y-105809092D01*
X187620327Y-105674301D01*
X187441698Y-105495673D01*
X187208309Y-105399000D01*
X186467750Y-105399000D01*
X186309000Y-105557750D01*
X186055000Y-105557750D01*
X185896250Y-105399000D01*
X185155691Y-105399000D01*
X184922302Y-105495673D01*
X184743673Y-105674301D01*
X184647000Y-105907690D01*
X180972913Y-105907690D01*
X180964994Y-105868590D01*
X180936553Y-105826965D01*
X180894159Y-105799685D01*
X180848000Y-105791000D01*
X174625000Y-105791000D01*
X174625000Y-103684606D01*
X174746439Y-103563167D01*
X175594838Y-103563167D01*
X175736883Y-103906943D01*
X175999673Y-104170192D01*
X176343201Y-104312838D01*
X176715167Y-104313162D01*
X177058943Y-104171117D01*
X177322192Y-103908327D01*
X177464838Y-103564799D01*
X177464839Y-103563167D01*
X178388838Y-103563167D01*
X178530883Y-103906943D01*
X178793673Y-104170192D01*
X179137201Y-104312838D01*
X179509167Y-104313162D01*
X179852943Y-104171117D01*
X180116192Y-103908327D01*
X180258838Y-103564799D01*
X180258879Y-103517923D01*
X182432802Y-101344000D01*
X184857537Y-101344000D01*
X184889673Y-101376192D01*
X185233201Y-101518838D01*
X185605167Y-101519162D01*
X185948943Y-101377117D01*
X186212192Y-101114327D01*
X186354838Y-100770799D01*
X186355162Y-100398833D01*
X186213117Y-100055057D01*
X185950327Y-99791808D01*
X185606799Y-99649162D01*
X185234833Y-99648838D01*
X184891057Y-99790883D01*
X184857882Y-99824000D01*
X182118000Y-99824000D01*
X181827161Y-99881852D01*
X181580599Y-100046599D01*
X179184320Y-102442878D01*
X179138833Y-102442838D01*
X178795057Y-102584883D01*
X178531808Y-102847673D01*
X178389162Y-103191201D01*
X178388838Y-103563167D01*
X177464839Y-103563167D01*
X177464879Y-103517923D01*
X182826804Y-98155998D01*
X182878704Y-98233673D01*
X183571348Y-98696483D01*
X184388377Y-98859000D01*
X185491623Y-98859000D01*
X186308652Y-98696483D01*
X187001296Y-98233673D01*
X187464106Y-97541029D01*
X187626623Y-96724000D01*
X187464106Y-95906971D01*
X187001296Y-95214327D01*
X186308652Y-94751517D01*
X185491623Y-94589000D01*
X184388377Y-94589000D01*
X183571348Y-94751517D01*
X182878704Y-95214327D01*
X182415894Y-95906971D01*
X182289177Y-96544021D01*
X176390320Y-102442878D01*
X176344833Y-102442838D01*
X176001057Y-102584883D01*
X175737808Y-102847673D01*
X175595162Y-103191201D01*
X175594838Y-103563167D01*
X174746439Y-103563167D01*
X175603803Y-102705803D01*
X175607619Y-102701817D01*
X178401619Y-99653817D01*
X178401972Y-99653429D01*
X183444180Y-94107000D01*
X196469000Y-94107000D01*
X196469000Y-98298000D01*
X196479006Y-98347410D01*
X196507447Y-98389035D01*
X196549841Y-98416315D01*
X196596000Y-98425000D01*
X199365045Y-98425000D01*
X199771348Y-98696483D01*
X200588377Y-98859000D01*
X201691623Y-98859000D01*
X202508652Y-98696483D01*
X202914955Y-98425000D01*
X204724000Y-98425000D01*
X204773410Y-98414994D01*
X204815035Y-98386553D01*
X204842315Y-98344159D01*
X204851000Y-98298000D01*
X204851000Y-82802000D01*
X217881889Y-82802000D01*
X217647808Y-83035673D01*
G36*
X183505638Y-82200118D02*
X182840524Y-82704130D01*
X182418916Y-83424304D01*
X182354887Y-83665167D01*
X182467835Y-83997000D01*
X184813000Y-83997000D01*
X184813000Y-83977000D01*
X185067000Y-83977000D01*
X185067000Y-83997000D01*
X187412165Y-83997000D01*
X187525113Y-83665167D01*
X187461084Y-83424304D01*
X187039476Y-82704130D01*
X186374362Y-82200118D01*
X186255360Y-82169000D01*
X198442198Y-82169000D01*
X198234320Y-82376878D01*
X198188833Y-82376838D01*
X197845057Y-82518883D01*
X197581808Y-82781673D01*
X197439162Y-83125201D01*
X197438838Y-83497167D01*
X197580883Y-83840943D01*
X197843673Y-84104192D01*
X198187201Y-84246838D01*
X198505000Y-84247115D01*
X198505000Y-84251002D01*
X198667834Y-84251002D01*
X198554887Y-84582833D01*
X198618916Y-84823696D01*
X199040524Y-85543870D01*
X199705638Y-86047882D01*
X200513000Y-86259000D01*
X201013000Y-86259000D01*
X201013000Y-84251000D01*
X201267000Y-84251000D01*
X201267000Y-86259000D01*
X201767000Y-86259000D01*
X202574362Y-86047882D01*
X203239476Y-85543870D01*
X203661084Y-84823696D01*
X203725113Y-84582833D01*
X203612165Y-84251000D01*
X201267000Y-84251000D01*
X201013000Y-84251000D01*
X200993000Y-84251000D01*
X200993000Y-83997000D01*
X201013000Y-83997000D01*
X201013000Y-83977000D01*
X201267000Y-83977000D01*
X201267000Y-83997000D01*
X203612165Y-83997000D01*
X203725113Y-83665167D01*
X203661084Y-83424304D01*
X203296772Y-82802000D01*
X204089000Y-82802000D01*
X204089000Y-96901000D01*
X203629184Y-96901000D01*
X203612165Y-96851000D01*
X201267000Y-96851000D01*
X201267000Y-96871000D01*
X201013000Y-96871000D01*
X201013000Y-96851000D01*
X198667835Y-96851000D01*
X198650816Y-96901000D01*
X197485000Y-96901000D01*
X197485000Y-96265167D01*
X198554887Y-96265167D01*
X198667835Y-96597000D01*
X201013000Y-96597000D01*
X201013000Y-94589000D01*
X201267000Y-94589000D01*
X201267000Y-96597000D01*
X203612165Y-96597000D01*
X203725113Y-96265167D01*
X203661084Y-96024304D01*
X203239476Y-95304130D01*
X202574362Y-94800118D01*
X201767000Y-94589000D01*
X201267000Y-94589000D01*
X201013000Y-94589000D01*
X200513000Y-94589000D01*
X199705638Y-94800118D01*
X199040524Y-95304130D01*
X198618916Y-96024304D01*
X198554887Y-96265167D01*
X197485000Y-96265167D01*
X197485000Y-93218000D01*
X197474994Y-93168590D01*
X197446553Y-93126965D01*
X197404159Y-93099685D01*
X197358000Y-93091000D01*
X183134000Y-93091000D01*
X183084590Y-93101006D01*
X183041519Y-93130959D01*
X179169118Y-97245385D01*
X179346458Y-96760664D01*
X179320839Y-96150540D01*
X179136643Y-95705852D01*
X178880159Y-95619446D01*
X177979605Y-96520000D01*
X177993748Y-96534143D01*
X177814143Y-96713748D01*
X177800000Y-96699605D01*
X176899446Y-97600159D01*
X176985852Y-97856643D01*
X177559336Y-98066458D01*
X178169460Y-98040839D01*
X178580826Y-97870446D01*
X174914863Y-101765531D01*
X173900197Y-102780197D01*
X173872334Y-102822211D01*
X173863000Y-102870000D01*
X173863000Y-106934000D01*
X173873006Y-106983410D01*
X173901447Y-107025035D01*
X173943841Y-107052315D01*
X173990000Y-107061000D01*
X179705000Y-107061000D01*
X179705000Y-113866755D01*
X179547808Y-114023673D01*
X179405162Y-114367201D01*
X179404838Y-114739167D01*
X179546883Y-115082943D01*
X179580000Y-115116118D01*
X179580000Y-121103537D01*
X179547808Y-121135673D01*
X179405162Y-121479201D01*
X179404838Y-121851167D01*
X179546883Y-122194943D01*
X179705000Y-122353336D01*
X179705000Y-125222000D01*
X179715006Y-125271410D01*
X179743447Y-125313035D01*
X179785841Y-125340315D01*
X179832000Y-125349000D01*
X207772000Y-125349000D01*
X207821410Y-125338994D01*
X207866206Y-125307172D01*
X216974253Y-115233120D01*
X217642905Y-115233120D01*
X218129364Y-115454237D01*
X218388332Y-115512207D01*
X218640903Y-115464683D01*
X218855085Y-115322638D01*
X218942059Y-115235664D01*
X218291210Y-114584815D01*
X217642905Y-115233120D01*
X216974253Y-115233120D01*
X217195855Y-114988015D01*
X217351547Y-115100684D01*
X217415967Y-115129966D01*
X217401408Y-115115407D01*
X217523207Y-114993608D01*
X217710351Y-114958395D01*
X217924533Y-114816350D01*
X218335673Y-114405210D01*
X218470815Y-114405210D01*
X219121664Y-115056059D01*
X219208638Y-114969085D01*
X219353848Y-114746960D01*
X219398033Y-114493784D01*
X219340237Y-114243364D01*
X219119120Y-113756905D01*
X218470815Y-114405210D01*
X218335673Y-114405210D01*
X218702350Y-114038533D01*
X218826322Y-113864818D01*
X218887600Y-113629215D01*
X219001407Y-113515408D01*
X219015966Y-113529967D01*
X218986684Y-113465547D01*
X218867558Y-113288472D01*
X218784973Y-113230354D01*
X221607638Y-110108315D01*
X221712599Y-110265401D01*
X223092878Y-111645680D01*
X223092838Y-111691167D01*
X223234883Y-112034943D01*
X223497673Y-112298192D01*
X223841201Y-112440838D01*
X224213167Y-112441162D01*
X224556943Y-112299117D01*
X224820192Y-112036327D01*
X224962838Y-111692799D01*
X224963162Y-111320833D01*
X224821117Y-110977057D01*
X224558327Y-110713808D01*
X224214799Y-110571162D01*
X224167923Y-110571121D01*
X223010000Y-109413198D01*
X223010000Y-108557218D01*
X224030000Y-107429036D01*
X224030000Y-109220000D01*
X224087852Y-109510839D01*
X224252599Y-109757401D01*
X225378878Y-110883680D01*
X225378838Y-110929167D01*
X225520883Y-111272943D01*
X225783673Y-111536192D01*
X226127201Y-111678838D01*
X226499167Y-111679162D01*
X226842943Y-111537117D01*
X227106192Y-111274327D01*
X227248838Y-110930799D01*
X227249162Y-110558833D01*
X227107117Y-110215057D01*
X226844327Y-109951808D01*
X226500799Y-109809162D01*
X226453923Y-109809121D01*
X225550000Y-108905198D01*
X225550000Y-106807000D01*
X227167391Y-106807000D01*
X227330000Y-106839345D01*
X227492609Y-106807000D01*
X229707391Y-106807000D01*
X229870000Y-106839345D01*
X230443489Y-106725271D01*
X230929670Y-106400415D01*
X231140000Y-106085634D01*
X231350330Y-106400415D01*
X231836511Y-106725271D01*
X232410000Y-106839345D01*
X232983489Y-106725271D01*
X233469670Y-106400415D01*
X233680000Y-106085634D01*
X233890330Y-106400415D01*
X234376511Y-106725271D01*
X234950000Y-106839345D01*
X235523489Y-106725271D01*
X236009670Y-106400415D01*
X236220000Y-106085634D01*
X236430330Y-106400415D01*
X236916511Y-106725271D01*
X237490000Y-106839345D01*
X238063489Y-106725271D01*
X238549670Y-106400415D01*
X238756461Y-106090931D01*
X239127964Y-106506732D01*
X239655209Y-106760709D01*
X239670974Y-106763358D01*
X239903000Y-106642217D01*
X239903000Y-105283000D01*
X239883000Y-105283000D01*
X239883000Y-105029000D01*
X239903000Y-105029000D01*
X239903000Y-103669783D01*
X239670974Y-103548642D01*
X239655209Y-103551291D01*
X239127964Y-103805268D01*
X238756461Y-104221069D01*
X238549670Y-103911585D01*
X238063489Y-103586729D01*
X237490000Y-103472655D01*
X236916511Y-103586729D01*
X236430330Y-103911585D01*
X236220000Y-104226366D01*
X236009670Y-103911585D01*
X235523489Y-103586729D01*
X234950000Y-103472655D01*
X234376511Y-103586729D01*
X234106883Y-103766889D01*
X234107162Y-103446833D01*
X234014411Y-103222357D01*
X234016923Y-103220191D01*
X234047814Y-103180351D01*
X234060771Y-103131631D01*
X234053752Y-103081709D01*
X234027863Y-103038451D01*
X233987185Y-103008673D01*
X233934000Y-102997000D01*
X233859245Y-102997000D01*
X233702327Y-102839808D01*
X233358799Y-102697162D01*
X232986833Y-102696838D01*
X232643057Y-102838883D01*
X232609882Y-102872000D01*
X226872111Y-102872000D01*
X227106192Y-102638327D01*
X227248838Y-102294799D01*
X227248879Y-102247923D01*
X227627052Y-101869750D01*
X234452000Y-101869750D01*
X234452000Y-102210309D01*
X234548673Y-102443698D01*
X234727301Y-102622327D01*
X234960690Y-102719000D01*
X235426250Y-102719000D01*
X235585000Y-102560250D01*
X235585000Y-101711000D01*
X235839000Y-101711000D01*
X235839000Y-102560250D01*
X235997750Y-102719000D01*
X236463310Y-102719000D01*
X236696699Y-102622327D01*
X236875327Y-102443698D01*
X236972000Y-102210309D01*
X236972000Y-101869750D01*
X236813250Y-101711000D01*
X235839000Y-101711000D01*
X235585000Y-101711000D01*
X234610750Y-101711000D01*
X234452000Y-101869750D01*
X227627052Y-101869750D01*
X229111341Y-100385461D01*
X229339673Y-100614192D01*
X229683201Y-100756838D01*
X230055167Y-100757162D01*
X230398943Y-100615117D01*
X230432118Y-100582000D01*
X233934000Y-100582000D01*
X234224839Y-100524148D01*
X234471401Y-100359401D01*
X234486802Y-100344000D01*
X234499721Y-100344000D01*
X234622910Y-100535441D01*
X234691006Y-100581969D01*
X234548673Y-100724302D01*
X234452000Y-100957691D01*
X234452000Y-101298250D01*
X234610750Y-101457000D01*
X235585000Y-101457000D01*
X235585000Y-101437000D01*
X235839000Y-101437000D01*
X235839000Y-101457000D01*
X236813250Y-101457000D01*
X236926894Y-101343356D01*
X236959673Y-101376192D01*
X237303201Y-101518838D01*
X237675167Y-101519162D01*
X237696858Y-101510200D01*
X238699193Y-101746043D01*
X238786110Y-101805431D01*
X239038000Y-101856440D01*
X239168380Y-101856440D01*
X240665000Y-102208586D01*
X240665000Y-102224667D01*
X240597852Y-102325161D01*
X240540000Y-102616000D01*
X240540000Y-103616422D01*
X240404791Y-103551291D01*
X240389026Y-103548642D01*
X240157000Y-103669783D01*
X240157000Y-105029000D01*
X240177000Y-105029000D01*
X240177000Y-105283000D01*
X240157000Y-105283000D01*
X240157000Y-106642217D01*
X240211238Y-106670535D01*
X239424436Y-107614697D01*
X239400491Y-107659060D01*
X239395062Y-107692033D01*
X239290921Y-111024560D01*
X238418000Y-111024560D01*
X238182683Y-111068838D01*
X237966559Y-111207910D01*
X237821569Y-111420110D01*
X237770560Y-111672000D01*
X237770560Y-113372000D01*
X237814838Y-113607317D01*
X237953910Y-113823441D01*
X238166110Y-113968431D01*
X238233541Y-113982086D01*
X238188853Y-114011946D01*
X237866946Y-114493715D01*
X237753907Y-115062000D01*
X237866946Y-115630285D01*
X237911523Y-115697000D01*
X226314000Y-115697000D01*
X226264590Y-115707006D01*
X226217702Y-115741201D01*
X202887707Y-142875000D01*
X181229000Y-142875000D01*
X181229000Y-141124833D01*
X182354887Y-141124833D01*
X182418916Y-141365696D01*
X182840524Y-142085870D01*
X183505638Y-142589882D01*
X184313000Y-142801000D01*
X184813000Y-142801000D01*
X184813000Y-140793000D01*
X185067000Y-140793000D01*
X185067000Y-142801000D01*
X185567000Y-142801000D01*
X186374362Y-142589882D01*
X187039476Y-142085870D01*
X187461084Y-141365696D01*
X187525113Y-141124833D01*
X198554887Y-141124833D01*
X198618916Y-141365696D01*
X199040524Y-142085870D01*
X199705638Y-142589882D01*
X200513000Y-142801000D01*
X201013000Y-142801000D01*
X201013000Y-140793000D01*
X201267000Y-140793000D01*
X201267000Y-142801000D01*
X201767000Y-142801000D01*
X202574362Y-142589882D01*
X203239476Y-142085870D01*
X203661084Y-141365696D01*
X203725113Y-141124833D01*
X203612165Y-140793000D01*
X201267000Y-140793000D01*
X201013000Y-140793000D01*
X198667835Y-140793000D01*
X198554887Y-141124833D01*
X187525113Y-141124833D01*
X187412165Y-140793000D01*
X185067000Y-140793000D01*
X184813000Y-140793000D01*
X182467835Y-140793000D01*
X182354887Y-141124833D01*
X181229000Y-141124833D01*
X181229000Y-140207167D01*
X182354887Y-140207167D01*
X182467835Y-140539000D01*
X184813000Y-140539000D01*
X184813000Y-138531000D01*
X185067000Y-138531000D01*
X185067000Y-140539000D01*
X187412165Y-140539000D01*
X187525113Y-140207167D01*
X198554887Y-140207167D01*
X198667835Y-140539000D01*
X201013000Y-140539000D01*
X201013000Y-138531000D01*
X201267000Y-138531000D01*
X201267000Y-140539000D01*
X203612165Y-140539000D01*
X203725113Y-140207167D01*
X203661084Y-139966304D01*
X203239476Y-139246130D01*
X202574362Y-138742118D01*
X201767000Y-138531000D01*
X201267000Y-138531000D01*
X201013000Y-138531000D01*
X200513000Y-138531000D01*
X199705638Y-138742118D01*
X199040524Y-139246130D01*
X198618916Y-139966304D01*
X198554887Y-140207167D01*
X187525113Y-140207167D01*
X187461084Y-139966304D01*
X187039476Y-139246130D01*
X186374362Y-138742118D01*
X185567000Y-138531000D01*
X185067000Y-138531000D01*
X184813000Y-138531000D01*
X184313000Y-138531000D01*
X183505638Y-138742118D01*
X182840524Y-139246130D01*
X182418916Y-139966304D01*
X182354887Y-140207167D01*
X181229000Y-140207167D01*
X181229000Y-136652000D01*
X181218994Y-136602590D01*
X181190553Y-136560965D01*
X181148159Y-136533685D01*
X181102000Y-136525000D01*
X171540757Y-136525000D01*
X172290658Y-136215147D01*
X173032542Y-135474557D01*
X173302330Y-134824833D01*
X182354887Y-134824833D01*
X182418916Y-135065696D01*
X182840524Y-135785870D01*
X183505638Y-136289882D01*
X184313000Y-136501000D01*
X184813000Y-136501000D01*
X184813000Y-134493000D01*
X185067000Y-134493000D01*
X185067000Y-136501000D01*
X185567000Y-136501000D01*
X186374362Y-136289882D01*
X187039476Y-135785870D01*
X187461084Y-135065696D01*
X187525113Y-134824833D01*
X198554887Y-134824833D01*
X198618916Y-135065696D01*
X199040524Y-135785870D01*
X199705638Y-136289882D01*
X200513000Y-136501000D01*
X201013000Y-136501000D01*
X201013000Y-134493000D01*
X201267000Y-134493000D01*
X201267000Y-136501000D01*
X201767000Y-136501000D01*
X202574362Y-136289882D01*
X203239476Y-135785870D01*
X203661084Y-135065696D01*
X203725113Y-134824833D01*
X203612165Y-134493000D01*
X201267000Y-134493000D01*
X201013000Y-134493000D01*
X198667835Y-134493000D01*
X198554887Y-134824833D01*
X187525113Y-134824833D01*
X187412165Y-134493000D01*
X185067000Y-134493000D01*
X184813000Y-134493000D01*
X182467835Y-134493000D01*
X182354887Y-134824833D01*
X173302330Y-134824833D01*
X173434542Y-134506433D01*
X173435065Y-133907167D01*
X182354887Y-133907167D01*
X182467835Y-134239000D01*
X184813000Y-134239000D01*
X184813000Y-132231000D01*
X185067000Y-132231000D01*
X185067000Y-134239000D01*
X187412165Y-134239000D01*
X187525113Y-133907167D01*
X198554887Y-133907167D01*
X198667835Y-134239000D01*
X201013000Y-134239000D01*
X201013000Y-132231000D01*
X201267000Y-132231000D01*
X201267000Y-134239000D01*
X203612165Y-134239000D01*
X203725113Y-133907167D01*
X203661084Y-133666304D01*
X203239476Y-132946130D01*
X202574362Y-132442118D01*
X201767000Y-132231000D01*
X201267000Y-132231000D01*
X201013000Y-132231000D01*
X200513000Y-132231000D01*
X199705638Y-132442118D01*
X199040524Y-132946130D01*
X198618916Y-133666304D01*
X198554887Y-133907167D01*
X187525113Y-133907167D01*
X187461084Y-133666304D01*
X187039476Y-132946130D01*
X186374362Y-132442118D01*
X185567000Y-132231000D01*
X185067000Y-132231000D01*
X184813000Y-132231000D01*
X184313000Y-132231000D01*
X183505638Y-132442118D01*
X182840524Y-132946130D01*
X182418916Y-133666304D01*
X182354887Y-133907167D01*
X173435065Y-133907167D01*
X173435457Y-133458166D01*
X173312323Y-133160159D01*
X176899446Y-133160159D01*
X176985852Y-133416643D01*
X177559336Y-133626458D01*
X178169460Y-133600839D01*
X178614148Y-133416643D01*
X178700554Y-133160159D01*
X177800000Y-132259605D01*
X176899446Y-133160159D01*
X173312323Y-133160159D01*
X173035147Y-132489342D01*
X172386275Y-131839336D01*
X176253542Y-131839336D01*
X176279161Y-132449460D01*
X176463357Y-132894148D01*
X176719841Y-132980554D01*
X177620395Y-132080000D01*
X177979605Y-132080000D01*
X178880159Y-132980554D01*
X179136643Y-132894148D01*
X179346458Y-132320664D01*
X179320839Y-131710540D01*
X179136643Y-131265852D01*
X178880159Y-131179446D01*
X177979605Y-132080000D01*
X177620395Y-132080000D01*
X176719841Y-131179446D01*
X176463357Y-131265852D01*
X176253542Y-131839336D01*
X172386275Y-131839336D01*
X172294557Y-131747458D01*
X171326433Y-131345458D01*
X170278166Y-131344543D01*
X169309342Y-131744853D01*
X168567458Y-132485443D01*
X168165458Y-133453567D01*
X168164543Y-134501834D01*
X168564853Y-135470658D01*
X169305443Y-136212542D01*
X170057926Y-136525000D01*
X146092333Y-136525000D01*
X146042923Y-136535006D01*
X145994769Y-136570697D01*
X142434517Y-140843000D01*
X134747000Y-140843000D01*
X134747000Y-136577336D01*
X134851673Y-136682192D01*
X135195201Y-136824838D01*
X135567167Y-136825162D01*
X135910943Y-136683117D01*
X136174192Y-136420327D01*
X136316838Y-136076799D01*
X136317100Y-135775702D01*
X139506802Y-132586000D01*
X144725537Y-132586000D01*
X144757673Y-132618192D01*
X145101201Y-132760838D01*
X145473167Y-132761162D01*
X145816943Y-132619117D01*
X146080192Y-132356327D01*
X146222838Y-132012799D01*
X146223162Y-131640833D01*
X146081117Y-131297057D01*
X145818327Y-131033808D01*
X145474799Y-130891162D01*
X145102833Y-130890838D01*
X144759057Y-131032883D01*
X144725882Y-131066000D01*
X139192000Y-131066000D01*
X138901161Y-131123852D01*
X138654599Y-131288599D01*
X134844599Y-135098599D01*
X134831100Y-135118802D01*
X134747000Y-135202755D01*
X134747000Y-132905500D01*
X135712200Y-132181600D01*
X135745725Y-132143949D01*
X135763000Y-132080000D01*
X135763000Y-127185167D01*
X147654838Y-127185167D01*
X147796883Y-127528943D01*
X148059673Y-127792192D01*
X148403201Y-127934838D01*
X148775167Y-127935162D01*
X149118943Y-127793117D01*
X149152118Y-127760000D01*
X155702000Y-127760000D01*
X155992839Y-127702148D01*
X156239401Y-127537401D01*
X158074968Y-125701834D01*
X168164543Y-125701834D01*
X168564853Y-126670658D01*
X169305443Y-127412542D01*
X170273567Y-127814542D01*
X171321834Y-127815457D01*
X172290658Y-127415147D01*
X172321868Y-127383991D01*
X176264735Y-127383991D01*
X176497932Y-127948371D01*
X176879182Y-128330288D01*
X176499449Y-128709357D01*
X176265267Y-129273330D01*
X176264735Y-129883991D01*
X176497932Y-130448371D01*
X176929357Y-130880551D01*
X176938372Y-130884294D01*
X176899446Y-130999841D01*
X177800000Y-131900395D01*
X178700554Y-130999841D01*
X178661793Y-130884786D01*
X178668371Y-130882068D01*
X179100551Y-130450643D01*
X179334733Y-129886670D01*
X179335265Y-129276009D01*
X179102068Y-128711629D01*
X178915599Y-128524833D01*
X182354887Y-128524833D01*
X182418916Y-128765696D01*
X182840524Y-129485870D01*
X183505638Y-129989882D01*
X184313000Y-130201000D01*
X184813000Y-130201000D01*
X184813000Y-128193000D01*
X185067000Y-128193000D01*
X185067000Y-130201000D01*
X185567000Y-130201000D01*
X186374362Y-129989882D01*
X187039476Y-129485870D01*
X187461084Y-128765696D01*
X187525113Y-128524833D01*
X187412165Y-128193000D01*
X185067000Y-128193000D01*
X184813000Y-128193000D01*
X182467835Y-128193000D01*
X182354887Y-128524833D01*
X178915599Y-128524833D01*
X178720818Y-128329712D01*
X178984991Y-128066000D01*
X198453377Y-128066000D01*
X198615894Y-128883029D01*
X199078704Y-129575673D01*
X199771348Y-130038483D01*
X200588377Y-130201000D01*
X201691623Y-130201000D01*
X202508652Y-130038483D01*
X203201296Y-129575673D01*
X203664106Y-128883029D01*
X203826623Y-128066000D01*
X203664106Y-127248971D01*
X203201296Y-126556327D01*
X202508652Y-126093517D01*
X201691623Y-125931000D01*
X200588377Y-125931000D01*
X199771348Y-126093517D01*
X199078704Y-126556327D01*
X198615894Y-127248971D01*
X198453377Y-128066000D01*
X178984991Y-128066000D01*
X179100551Y-127950643D01*
X179243174Y-127607167D01*
X182354887Y-127607167D01*
X182467835Y-127939000D01*
X184813000Y-127939000D01*
X184813000Y-125931000D01*
X185067000Y-125931000D01*
X185067000Y-127939000D01*
X187412165Y-127939000D01*
X187525113Y-127607167D01*
X187461084Y-127366304D01*
X187039476Y-126646130D01*
X186374362Y-126142118D01*
X185567000Y-125931000D01*
X185067000Y-125931000D01*
X184813000Y-125931000D01*
X184313000Y-125931000D01*
X183505638Y-126142118D01*
X182840524Y-126646130D01*
X182418916Y-127366304D01*
X182354887Y-127607167D01*
X179243174Y-127607167D01*
X179334733Y-127386670D01*
X179335265Y-126776009D01*
X179102068Y-126211629D01*
X178670643Y-125779449D01*
X178106670Y-125545267D01*
X177496009Y-125544735D01*
X176931629Y-125777932D01*
X176499449Y-126209357D01*
X176265267Y-126773330D01*
X176264735Y-127383991D01*
X172321868Y-127383991D01*
X173032542Y-126674557D01*
X173434542Y-125706433D01*
X173435457Y-124658166D01*
X173035147Y-123689342D01*
X172294557Y-122947458D01*
X171326433Y-122545458D01*
X170278166Y-122544543D01*
X169309342Y-122944853D01*
X168567458Y-123685443D01*
X168165458Y-124653567D01*
X168164543Y-125701834D01*
X158074968Y-125701834D01*
X158635680Y-125141122D01*
X158681167Y-125141162D01*
X159024943Y-124999117D01*
X159288192Y-124736327D01*
X159430838Y-124392799D01*
X159431162Y-124020833D01*
X159289117Y-123677057D01*
X159026327Y-123413808D01*
X158682799Y-123271162D01*
X158310833Y-123270838D01*
X157967057Y-123412883D01*
X157703808Y-123675673D01*
X157561162Y-124019201D01*
X157561121Y-124066077D01*
X155387198Y-126240000D01*
X149152463Y-126240000D01*
X149120327Y-126207808D01*
X148776799Y-126065162D01*
X148404833Y-126064838D01*
X148061057Y-126206883D01*
X147797808Y-126469673D01*
X147655162Y-126813201D01*
X147654838Y-127185167D01*
X135763000Y-127185167D01*
X135763000Y-122555000D01*
X162628198Y-122555000D01*
X163402878Y-123329680D01*
X163402838Y-123375167D01*
X163544883Y-123718943D01*
X163807673Y-123982192D01*
X164151201Y-124124838D01*
X164523167Y-124125162D01*
X164866943Y-123983117D01*
X165130192Y-123720327D01*
X165272838Y-123376799D01*
X165273162Y-123004833D01*
X165131117Y-122661057D01*
X164868327Y-122397808D01*
X164719000Y-122335802D01*
X164719000Y-116721834D01*
X168164543Y-116721834D01*
X168564853Y-117690658D01*
X169305443Y-118432542D01*
X170273567Y-118834542D01*
X171321834Y-118835457D01*
X172290658Y-118435147D01*
X173032542Y-117694557D01*
X173434542Y-116726433D01*
X173435457Y-115678166D01*
X173312323Y-115380159D01*
X176899446Y-115380159D01*
X176985852Y-115636643D01*
X177559336Y-115846458D01*
X178169460Y-115820839D01*
X178614148Y-115636643D01*
X178700554Y-115380159D01*
X177800000Y-114479605D01*
X176899446Y-115380159D01*
X173312323Y-115380159D01*
X173035147Y-114709342D01*
X172386275Y-114059336D01*
X176253542Y-114059336D01*
X176279161Y-114669460D01*
X176463357Y-115114148D01*
X176719841Y-115200554D01*
X177620395Y-114300000D01*
X177979605Y-114300000D01*
X178880159Y-115200554D01*
X179136643Y-115114148D01*
X179346458Y-114540664D01*
X179320839Y-113930540D01*
X179136643Y-113485852D01*
X178880159Y-113399446D01*
X177979605Y-114300000D01*
X177620395Y-114300000D01*
X176719841Y-113399446D01*
X176463357Y-113485852D01*
X176253542Y-114059336D01*
X172386275Y-114059336D01*
X172294557Y-113967458D01*
X171326433Y-113565458D01*
X170278166Y-113564543D01*
X169309342Y-113964853D01*
X168567458Y-114705443D01*
X168165458Y-115673567D01*
X168164543Y-116721834D01*
X164719000Y-116721834D01*
X164719000Y-107921834D01*
X168164543Y-107921834D01*
X168564853Y-108890658D01*
X169305443Y-109632542D01*
X170273567Y-110034542D01*
X171321834Y-110035457D01*
X172290658Y-109635147D01*
X172321868Y-109603991D01*
X176264735Y-109603991D01*
X176497932Y-110168371D01*
X176879182Y-110550288D01*
X176499449Y-110929357D01*
X176265267Y-111493330D01*
X176264735Y-112103991D01*
X176497932Y-112668371D01*
X176929357Y-113100551D01*
X176938372Y-113104294D01*
X176899446Y-113219841D01*
X177800000Y-114120395D01*
X178700554Y-113219841D01*
X178661793Y-113104786D01*
X178668371Y-113102068D01*
X179100551Y-112670643D01*
X179334733Y-112106670D01*
X179335265Y-111496009D01*
X179102068Y-110931629D01*
X178720818Y-110549712D01*
X179100551Y-110170643D01*
X179334733Y-109606670D01*
X179335265Y-108996009D01*
X179102068Y-108431629D01*
X178670643Y-107999449D01*
X178106670Y-107765267D01*
X177496009Y-107764735D01*
X176931629Y-107997932D01*
X176499449Y-108429357D01*
X176265267Y-108993330D01*
X176264735Y-109603991D01*
X172321868Y-109603991D01*
X173032542Y-108894557D01*
X173434542Y-107926433D01*
X173435457Y-106878166D01*
X173035147Y-105909342D01*
X172294557Y-105167458D01*
X171326433Y-104765458D01*
X170278166Y-104764543D01*
X169309342Y-105164853D01*
X168567458Y-105905443D01*
X168165458Y-106873567D01*
X168164543Y-107921834D01*
X164719000Y-107921834D01*
X164719000Y-98941834D01*
X168164543Y-98941834D01*
X168564853Y-99910658D01*
X169305443Y-100652542D01*
X170273567Y-101054542D01*
X171321834Y-101055457D01*
X172290658Y-100655147D01*
X173032542Y-99914557D01*
X173434542Y-98946433D01*
X173435457Y-97898166D01*
X173035147Y-96929342D01*
X172386275Y-96279336D01*
X176253542Y-96279336D01*
X176279161Y-96889460D01*
X176463357Y-97334148D01*
X176719841Y-97420554D01*
X177620395Y-96520000D01*
X176719841Y-95619446D01*
X176463357Y-95705852D01*
X176253542Y-96279336D01*
X172386275Y-96279336D01*
X172294557Y-96187458D01*
X171326433Y-95785458D01*
X170278166Y-95784543D01*
X169309342Y-96184853D01*
X168567458Y-96925443D01*
X168165458Y-97893567D01*
X168164543Y-98941834D01*
X164719000Y-98941834D01*
X164719000Y-91030475D01*
X168165531Y-90144224D01*
X168564853Y-91110658D01*
X169305443Y-91852542D01*
X170273567Y-92254542D01*
X171321834Y-92255457D01*
X172290658Y-91855147D01*
X172321868Y-91823991D01*
X176264735Y-91823991D01*
X176497932Y-92388371D01*
X176879182Y-92770288D01*
X176499449Y-93149357D01*
X176265267Y-93713330D01*
X176264735Y-94323991D01*
X176497932Y-94888371D01*
X176929357Y-95320551D01*
X176938372Y-95324294D01*
X176899446Y-95439841D01*
X177800000Y-96340395D01*
X178700554Y-95439841D01*
X178661793Y-95324786D01*
X178668371Y-95322068D01*
X179100551Y-94890643D01*
X179334733Y-94326670D01*
X179335265Y-93716009D01*
X179102068Y-93151629D01*
X178720818Y-92769712D01*
X179100551Y-92390643D01*
X179334733Y-91826670D01*
X179335265Y-91216009D01*
X179197600Y-90882833D01*
X182354887Y-90882833D01*
X182418916Y-91123696D01*
X182840524Y-91843870D01*
X183505638Y-92347882D01*
X184313000Y-92559000D01*
X184813000Y-92559000D01*
X184813000Y-90551000D01*
X185067000Y-90551000D01*
X185067000Y-92559000D01*
X185567000Y-92559000D01*
X186374362Y-92347882D01*
X187039476Y-91843870D01*
X187461084Y-91123696D01*
X187525113Y-90882833D01*
X198554887Y-90882833D01*
X198618916Y-91123696D01*
X199040524Y-91843870D01*
X199705638Y-92347882D01*
X200513000Y-92559000D01*
X201013000Y-92559000D01*
X201013000Y-90551000D01*
X201267000Y-90551000D01*
X201267000Y-92559000D01*
X201767000Y-92559000D01*
X202574362Y-92347882D01*
X203239476Y-91843870D01*
X203661084Y-91123696D01*
X203725113Y-90882833D01*
X203612165Y-90551000D01*
X201267000Y-90551000D01*
X201013000Y-90551000D01*
X198667835Y-90551000D01*
X198554887Y-90882833D01*
X187525113Y-90882833D01*
X187412165Y-90551000D01*
X185067000Y-90551000D01*
X184813000Y-90551000D01*
X182467835Y-90551000D01*
X182354887Y-90882833D01*
X179197600Y-90882833D01*
X179102068Y-90651629D01*
X178670643Y-90219449D01*
X178106670Y-89985267D01*
X177496009Y-89984735D01*
X176931629Y-90217932D01*
X176499449Y-90649357D01*
X176265267Y-91213330D01*
X176264735Y-91823991D01*
X172321868Y-91823991D01*
X173032542Y-91114557D01*
X173434542Y-90146433D01*
X173434700Y-89965167D01*
X182354887Y-89965167D01*
X182467835Y-90297000D01*
X184813000Y-90297000D01*
X184813000Y-88289000D01*
X185067000Y-88289000D01*
X185067000Y-90297000D01*
X187412165Y-90297000D01*
X187525113Y-89965167D01*
X198554887Y-89965167D01*
X198667835Y-90297000D01*
X201013000Y-90297000D01*
X201013000Y-88289000D01*
X201267000Y-88289000D01*
X201267000Y-90297000D01*
X203612165Y-90297000D01*
X203725113Y-89965167D01*
X203661084Y-89724304D01*
X203239476Y-89004130D01*
X202574362Y-88500118D01*
X201767000Y-88289000D01*
X201267000Y-88289000D01*
X201013000Y-88289000D01*
X200513000Y-88289000D01*
X199705638Y-88500118D01*
X199040524Y-89004130D01*
X198618916Y-89724304D01*
X198554887Y-89965167D01*
X187525113Y-89965167D01*
X187461084Y-89724304D01*
X187039476Y-89004130D01*
X186374362Y-88500118D01*
X185567000Y-88289000D01*
X185067000Y-88289000D01*
X184813000Y-88289000D01*
X184313000Y-88289000D01*
X183505638Y-88500118D01*
X182840524Y-89004130D01*
X182418916Y-89724304D01*
X182354887Y-89965167D01*
X173434700Y-89965167D01*
X173435457Y-89098166D01*
X173320019Y-88818784D01*
X182403628Y-86482999D01*
X182448990Y-86461003D01*
X182482220Y-86423092D01*
X182499000Y-86360000D01*
X182499000Y-86233000D01*
X182488994Y-86183590D01*
X182460553Y-86141965D01*
X182418159Y-86114685D01*
X182368491Y-86106048D01*
X182315204Y-86119408D01*
X182245000Y-86154510D01*
X182245000Y-84582833D01*
X182354887Y-84582833D01*
X182418916Y-84823696D01*
X182840524Y-85543870D01*
X183505638Y-86047882D01*
X184313000Y-86259000D01*
X184813000Y-86259000D01*
X184813000Y-84251000D01*
X185067000Y-84251000D01*
X185067000Y-86259000D01*
X185567000Y-86259000D01*
X186374362Y-86047882D01*
X187039476Y-85543870D01*
X187461084Y-84823696D01*
X187525113Y-84582833D01*
X187412165Y-84251000D01*
X185067000Y-84251000D01*
X184813000Y-84251000D01*
X182467835Y-84251000D01*
X182354887Y-84582833D01*
X182245000Y-84582833D01*
X182245000Y-82169000D01*
X183624640Y-82169000D01*
X183505638Y-82200118D01*
X183505638Y-82200118D01*
G37*
X183505638Y-82200118D02*
X182840524Y-82704130D01*
X182418916Y-83424304D01*
X182354887Y-83665167D01*
X182467835Y-83997000D01*
X184813000Y-83997000D01*
X184813000Y-83977000D01*
X185067000Y-83977000D01*
X185067000Y-83997000D01*
X187412165Y-83997000D01*
X187525113Y-83665167D01*
X187461084Y-83424304D01*
X187039476Y-82704130D01*
X186374362Y-82200118D01*
X186255360Y-82169000D01*
X198442198Y-82169000D01*
X198234320Y-82376878D01*
X198188833Y-82376838D01*
X197845057Y-82518883D01*
X197581808Y-82781673D01*
X197439162Y-83125201D01*
X197438838Y-83497167D01*
X197580883Y-83840943D01*
X197843673Y-84104192D01*
X198187201Y-84246838D01*
X198505000Y-84247115D01*
X198505000Y-84251002D01*
X198667834Y-84251002D01*
X198554887Y-84582833D01*
X198618916Y-84823696D01*
X199040524Y-85543870D01*
X199705638Y-86047882D01*
X200513000Y-86259000D01*
X201013000Y-86259000D01*
X201013000Y-84251000D01*
X201267000Y-84251000D01*
X201267000Y-86259000D01*
X201767000Y-86259000D01*
X202574362Y-86047882D01*
X203239476Y-85543870D01*
X203661084Y-84823696D01*
X203725113Y-84582833D01*
X203612165Y-84251000D01*
X201267000Y-84251000D01*
X201013000Y-84251000D01*
X200993000Y-84251000D01*
X200993000Y-83997000D01*
X201013000Y-83997000D01*
X201013000Y-83977000D01*
X201267000Y-83977000D01*
X201267000Y-83997000D01*
X203612165Y-83997000D01*
X203725113Y-83665167D01*
X203661084Y-83424304D01*
X203296772Y-82802000D01*
X204089000Y-82802000D01*
X204089000Y-96901000D01*
X203629184Y-96901000D01*
X203612165Y-96851000D01*
X201267000Y-96851000D01*
X201267000Y-96871000D01*
X201013000Y-96871000D01*
X201013000Y-96851000D01*
X198667835Y-96851000D01*
X198650816Y-96901000D01*
X197485000Y-96901000D01*
X197485000Y-96265167D01*
X198554887Y-96265167D01*
X198667835Y-96597000D01*
X201013000Y-96597000D01*
X201013000Y-94589000D01*
X201267000Y-94589000D01*
X201267000Y-96597000D01*
X203612165Y-96597000D01*
X203725113Y-96265167D01*
X203661084Y-96024304D01*
X203239476Y-95304130D01*
X202574362Y-94800118D01*
X201767000Y-94589000D01*
X201267000Y-94589000D01*
X201013000Y-94589000D01*
X200513000Y-94589000D01*
X199705638Y-94800118D01*
X199040524Y-95304130D01*
X198618916Y-96024304D01*
X198554887Y-96265167D01*
X197485000Y-96265167D01*
X197485000Y-93218000D01*
X197474994Y-93168590D01*
X197446553Y-93126965D01*
X197404159Y-93099685D01*
X197358000Y-93091000D01*
X183134000Y-93091000D01*
X183084590Y-93101006D01*
X183041519Y-93130959D01*
X179169118Y-97245385D01*
X179346458Y-96760664D01*
X179320839Y-96150540D01*
X179136643Y-95705852D01*
X178880159Y-95619446D01*
X177979605Y-96520000D01*
X177993748Y-96534143D01*
X177814143Y-96713748D01*
X177800000Y-96699605D01*
X176899446Y-97600159D01*
X176985852Y-97856643D01*
X177559336Y-98066458D01*
X178169460Y-98040839D01*
X178580826Y-97870446D01*
X174914863Y-101765531D01*
X173900197Y-102780197D01*
X173872334Y-102822211D01*
X173863000Y-102870000D01*
X173863000Y-106934000D01*
X173873006Y-106983410D01*
X173901447Y-107025035D01*
X173943841Y-107052315D01*
X173990000Y-107061000D01*
X179705000Y-107061000D01*
X179705000Y-113866755D01*
X179547808Y-114023673D01*
X179405162Y-114367201D01*
X179404838Y-114739167D01*
X179546883Y-115082943D01*
X179580000Y-115116118D01*
X179580000Y-121103537D01*
X179547808Y-121135673D01*
X179405162Y-121479201D01*
X179404838Y-121851167D01*
X179546883Y-122194943D01*
X179705000Y-122353336D01*
X179705000Y-125222000D01*
X179715006Y-125271410D01*
X179743447Y-125313035D01*
X179785841Y-125340315D01*
X179832000Y-125349000D01*
X207772000Y-125349000D01*
X207821410Y-125338994D01*
X207866206Y-125307172D01*
X216974253Y-115233120D01*
X217642905Y-115233120D01*
X218129364Y-115454237D01*
X218388332Y-115512207D01*
X218640903Y-115464683D01*
X218855085Y-115322638D01*
X218942059Y-115235664D01*
X218291210Y-114584815D01*
X217642905Y-115233120D01*
X216974253Y-115233120D01*
X217195855Y-114988015D01*
X217351547Y-115100684D01*
X217415967Y-115129966D01*
X217401408Y-115115407D01*
X217523207Y-114993608D01*
X217710351Y-114958395D01*
X217924533Y-114816350D01*
X218335673Y-114405210D01*
X218470815Y-114405210D01*
X219121664Y-115056059D01*
X219208638Y-114969085D01*
X219353848Y-114746960D01*
X219398033Y-114493784D01*
X219340237Y-114243364D01*
X219119120Y-113756905D01*
X218470815Y-114405210D01*
X218335673Y-114405210D01*
X218702350Y-114038533D01*
X218826322Y-113864818D01*
X218887600Y-113629215D01*
X219001407Y-113515408D01*
X219015966Y-113529967D01*
X218986684Y-113465547D01*
X218867558Y-113288472D01*
X218784973Y-113230354D01*
X221607638Y-110108315D01*
X221712599Y-110265401D01*
X223092878Y-111645680D01*
X223092838Y-111691167D01*
X223234883Y-112034943D01*
X223497673Y-112298192D01*
X223841201Y-112440838D01*
X224213167Y-112441162D01*
X224556943Y-112299117D01*
X224820192Y-112036327D01*
X224962838Y-111692799D01*
X224963162Y-111320833D01*
X224821117Y-110977057D01*
X224558327Y-110713808D01*
X224214799Y-110571162D01*
X224167923Y-110571121D01*
X223010000Y-109413198D01*
X223010000Y-108557218D01*
X224030000Y-107429036D01*
X224030000Y-109220000D01*
X224087852Y-109510839D01*
X224252599Y-109757401D01*
X225378878Y-110883680D01*
X225378838Y-110929167D01*
X225520883Y-111272943D01*
X225783673Y-111536192D01*
X226127201Y-111678838D01*
X226499167Y-111679162D01*
X226842943Y-111537117D01*
X227106192Y-111274327D01*
X227248838Y-110930799D01*
X227249162Y-110558833D01*
X227107117Y-110215057D01*
X226844327Y-109951808D01*
X226500799Y-109809162D01*
X226453923Y-109809121D01*
X225550000Y-108905198D01*
X225550000Y-106807000D01*
X227167391Y-106807000D01*
X227330000Y-106839345D01*
X227492609Y-106807000D01*
X229707391Y-106807000D01*
X229870000Y-106839345D01*
X230443489Y-106725271D01*
X230929670Y-106400415D01*
X231140000Y-106085634D01*
X231350330Y-106400415D01*
X231836511Y-106725271D01*
X232410000Y-106839345D01*
X232983489Y-106725271D01*
X233469670Y-106400415D01*
X233680000Y-106085634D01*
X233890330Y-106400415D01*
X234376511Y-106725271D01*
X234950000Y-106839345D01*
X235523489Y-106725271D01*
X236009670Y-106400415D01*
X236220000Y-106085634D01*
X236430330Y-106400415D01*
X236916511Y-106725271D01*
X237490000Y-106839345D01*
X238063489Y-106725271D01*
X238549670Y-106400415D01*
X238756461Y-106090931D01*
X239127964Y-106506732D01*
X239655209Y-106760709D01*
X239670974Y-106763358D01*
X239903000Y-106642217D01*
X239903000Y-105283000D01*
X239883000Y-105283000D01*
X239883000Y-105029000D01*
X239903000Y-105029000D01*
X239903000Y-103669783D01*
X239670974Y-103548642D01*
X239655209Y-103551291D01*
X239127964Y-103805268D01*
X238756461Y-104221069D01*
X238549670Y-103911585D01*
X238063489Y-103586729D01*
X237490000Y-103472655D01*
X236916511Y-103586729D01*
X236430330Y-103911585D01*
X236220000Y-104226366D01*
X236009670Y-103911585D01*
X235523489Y-103586729D01*
X234950000Y-103472655D01*
X234376511Y-103586729D01*
X234106883Y-103766889D01*
X234107162Y-103446833D01*
X234014411Y-103222357D01*
X234016923Y-103220191D01*
X234047814Y-103180351D01*
X234060771Y-103131631D01*
X234053752Y-103081709D01*
X234027863Y-103038451D01*
X233987185Y-103008673D01*
X233934000Y-102997000D01*
X233859245Y-102997000D01*
X233702327Y-102839808D01*
X233358799Y-102697162D01*
X232986833Y-102696838D01*
X232643057Y-102838883D01*
X232609882Y-102872000D01*
X226872111Y-102872000D01*
X227106192Y-102638327D01*
X227248838Y-102294799D01*
X227248879Y-102247923D01*
X227627052Y-101869750D01*
X234452000Y-101869750D01*
X234452000Y-102210309D01*
X234548673Y-102443698D01*
X234727301Y-102622327D01*
X234960690Y-102719000D01*
X235426250Y-102719000D01*
X235585000Y-102560250D01*
X235585000Y-101711000D01*
X235839000Y-101711000D01*
X235839000Y-102560250D01*
X235997750Y-102719000D01*
X236463310Y-102719000D01*
X236696699Y-102622327D01*
X236875327Y-102443698D01*
X236972000Y-102210309D01*
X236972000Y-101869750D01*
X236813250Y-101711000D01*
X235839000Y-101711000D01*
X235585000Y-101711000D01*
X234610750Y-101711000D01*
X234452000Y-101869750D01*
X227627052Y-101869750D01*
X229111341Y-100385461D01*
X229339673Y-100614192D01*
X229683201Y-100756838D01*
X230055167Y-100757162D01*
X230398943Y-100615117D01*
X230432118Y-100582000D01*
X233934000Y-100582000D01*
X234224839Y-100524148D01*
X234471401Y-100359401D01*
X234486802Y-100344000D01*
X234499721Y-100344000D01*
X234622910Y-100535441D01*
X234691006Y-100581969D01*
X234548673Y-100724302D01*
X234452000Y-100957691D01*
X234452000Y-101298250D01*
X234610750Y-101457000D01*
X235585000Y-101457000D01*
X235585000Y-101437000D01*
X235839000Y-101437000D01*
X235839000Y-101457000D01*
X236813250Y-101457000D01*
X236926894Y-101343356D01*
X236959673Y-101376192D01*
X237303201Y-101518838D01*
X237675167Y-101519162D01*
X237696858Y-101510200D01*
X238699193Y-101746043D01*
X238786110Y-101805431D01*
X239038000Y-101856440D01*
X239168380Y-101856440D01*
X240665000Y-102208586D01*
X240665000Y-102224667D01*
X240597852Y-102325161D01*
X240540000Y-102616000D01*
X240540000Y-103616422D01*
X240404791Y-103551291D01*
X240389026Y-103548642D01*
X240157000Y-103669783D01*
X240157000Y-105029000D01*
X240177000Y-105029000D01*
X240177000Y-105283000D01*
X240157000Y-105283000D01*
X240157000Y-106642217D01*
X240211238Y-106670535D01*
X239424436Y-107614697D01*
X239400491Y-107659060D01*
X239395062Y-107692033D01*
X239290921Y-111024560D01*
X238418000Y-111024560D01*
X238182683Y-111068838D01*
X237966559Y-111207910D01*
X237821569Y-111420110D01*
X237770560Y-111672000D01*
X237770560Y-113372000D01*
X237814838Y-113607317D01*
X237953910Y-113823441D01*
X238166110Y-113968431D01*
X238233541Y-113982086D01*
X238188853Y-114011946D01*
X237866946Y-114493715D01*
X237753907Y-115062000D01*
X237866946Y-115630285D01*
X237911523Y-115697000D01*
X226314000Y-115697000D01*
X226264590Y-115707006D01*
X226217702Y-115741201D01*
X202887707Y-142875000D01*
X181229000Y-142875000D01*
X181229000Y-141124833D01*
X182354887Y-141124833D01*
X182418916Y-141365696D01*
X182840524Y-142085870D01*
X183505638Y-142589882D01*
X184313000Y-142801000D01*
X184813000Y-142801000D01*
X184813000Y-140793000D01*
X185067000Y-140793000D01*
X185067000Y-142801000D01*
X185567000Y-142801000D01*
X186374362Y-142589882D01*
X187039476Y-142085870D01*
X187461084Y-141365696D01*
X187525113Y-141124833D01*
X198554887Y-141124833D01*
X198618916Y-141365696D01*
X199040524Y-142085870D01*
X199705638Y-142589882D01*
X200513000Y-142801000D01*
X201013000Y-142801000D01*
X201013000Y-140793000D01*
X201267000Y-140793000D01*
X201267000Y-142801000D01*
X201767000Y-142801000D01*
X202574362Y-142589882D01*
X203239476Y-142085870D01*
X203661084Y-141365696D01*
X203725113Y-141124833D01*
X203612165Y-140793000D01*
X201267000Y-140793000D01*
X201013000Y-140793000D01*
X198667835Y-140793000D01*
X198554887Y-141124833D01*
X187525113Y-141124833D01*
X187412165Y-140793000D01*
X185067000Y-140793000D01*
X184813000Y-140793000D01*
X182467835Y-140793000D01*
X182354887Y-141124833D01*
X181229000Y-141124833D01*
X181229000Y-140207167D01*
X182354887Y-140207167D01*
X182467835Y-140539000D01*
X184813000Y-140539000D01*
X184813000Y-138531000D01*
X185067000Y-138531000D01*
X185067000Y-140539000D01*
X187412165Y-140539000D01*
X187525113Y-140207167D01*
X198554887Y-140207167D01*
X198667835Y-140539000D01*
X201013000Y-140539000D01*
X201013000Y-138531000D01*
X201267000Y-138531000D01*
X201267000Y-140539000D01*
X203612165Y-140539000D01*
X203725113Y-140207167D01*
X203661084Y-139966304D01*
X203239476Y-139246130D01*
X202574362Y-138742118D01*
X201767000Y-138531000D01*
X201267000Y-138531000D01*
X201013000Y-138531000D01*
X200513000Y-138531000D01*
X199705638Y-138742118D01*
X199040524Y-139246130D01*
X198618916Y-139966304D01*
X198554887Y-140207167D01*
X187525113Y-140207167D01*
X187461084Y-139966304D01*
X187039476Y-139246130D01*
X186374362Y-138742118D01*
X185567000Y-138531000D01*
X185067000Y-138531000D01*
X184813000Y-138531000D01*
X184313000Y-138531000D01*
X183505638Y-138742118D01*
X182840524Y-139246130D01*
X182418916Y-139966304D01*
X182354887Y-140207167D01*
X181229000Y-140207167D01*
X181229000Y-136652000D01*
X181218994Y-136602590D01*
X181190553Y-136560965D01*
X181148159Y-136533685D01*
X181102000Y-136525000D01*
X171540757Y-136525000D01*
X172290658Y-136215147D01*
X173032542Y-135474557D01*
X173302330Y-134824833D01*
X182354887Y-134824833D01*
X182418916Y-135065696D01*
X182840524Y-135785870D01*
X183505638Y-136289882D01*
X184313000Y-136501000D01*
X184813000Y-136501000D01*
X184813000Y-134493000D01*
X185067000Y-134493000D01*
X185067000Y-136501000D01*
X185567000Y-136501000D01*
X186374362Y-136289882D01*
X187039476Y-135785870D01*
X187461084Y-135065696D01*
X187525113Y-134824833D01*
X198554887Y-134824833D01*
X198618916Y-135065696D01*
X199040524Y-135785870D01*
X199705638Y-136289882D01*
X200513000Y-136501000D01*
X201013000Y-136501000D01*
X201013000Y-134493000D01*
X201267000Y-134493000D01*
X201267000Y-136501000D01*
X201767000Y-136501000D01*
X202574362Y-136289882D01*
X203239476Y-135785870D01*
X203661084Y-135065696D01*
X203725113Y-134824833D01*
X203612165Y-134493000D01*
X201267000Y-134493000D01*
X201013000Y-134493000D01*
X198667835Y-134493000D01*
X198554887Y-134824833D01*
X187525113Y-134824833D01*
X187412165Y-134493000D01*
X185067000Y-134493000D01*
X184813000Y-134493000D01*
X182467835Y-134493000D01*
X182354887Y-134824833D01*
X173302330Y-134824833D01*
X173434542Y-134506433D01*
X173435065Y-133907167D01*
X182354887Y-133907167D01*
X182467835Y-134239000D01*
X184813000Y-134239000D01*
X184813000Y-132231000D01*
X185067000Y-132231000D01*
X185067000Y-134239000D01*
X187412165Y-134239000D01*
X187525113Y-133907167D01*
X198554887Y-133907167D01*
X198667835Y-134239000D01*
X201013000Y-134239000D01*
X201013000Y-132231000D01*
X201267000Y-132231000D01*
X201267000Y-134239000D01*
X203612165Y-134239000D01*
X203725113Y-133907167D01*
X203661084Y-133666304D01*
X203239476Y-132946130D01*
X202574362Y-132442118D01*
X201767000Y-132231000D01*
X201267000Y-132231000D01*
X201013000Y-132231000D01*
X200513000Y-132231000D01*
X199705638Y-132442118D01*
X199040524Y-132946130D01*
X198618916Y-133666304D01*
X198554887Y-133907167D01*
X187525113Y-133907167D01*
X187461084Y-133666304D01*
X187039476Y-132946130D01*
X186374362Y-132442118D01*
X185567000Y-132231000D01*
X185067000Y-132231000D01*
X184813000Y-132231000D01*
X184313000Y-132231000D01*
X183505638Y-132442118D01*
X182840524Y-132946130D01*
X182418916Y-133666304D01*
X182354887Y-133907167D01*
X173435065Y-133907167D01*
X173435457Y-133458166D01*
X173312323Y-133160159D01*
X176899446Y-133160159D01*
X176985852Y-133416643D01*
X177559336Y-133626458D01*
X178169460Y-133600839D01*
X178614148Y-133416643D01*
X178700554Y-133160159D01*
X177800000Y-132259605D01*
X176899446Y-133160159D01*
X173312323Y-133160159D01*
X173035147Y-132489342D01*
X172386275Y-131839336D01*
X176253542Y-131839336D01*
X176279161Y-132449460D01*
X176463357Y-132894148D01*
X176719841Y-132980554D01*
X177620395Y-132080000D01*
X177979605Y-132080000D01*
X178880159Y-132980554D01*
X179136643Y-132894148D01*
X179346458Y-132320664D01*
X179320839Y-131710540D01*
X179136643Y-131265852D01*
X178880159Y-131179446D01*
X177979605Y-132080000D01*
X177620395Y-132080000D01*
X176719841Y-131179446D01*
X176463357Y-131265852D01*
X176253542Y-131839336D01*
X172386275Y-131839336D01*
X172294557Y-131747458D01*
X171326433Y-131345458D01*
X170278166Y-131344543D01*
X169309342Y-131744853D01*
X168567458Y-132485443D01*
X168165458Y-133453567D01*
X168164543Y-134501834D01*
X168564853Y-135470658D01*
X169305443Y-136212542D01*
X170057926Y-136525000D01*
X146092333Y-136525000D01*
X146042923Y-136535006D01*
X145994769Y-136570697D01*
X142434517Y-140843000D01*
X134747000Y-140843000D01*
X134747000Y-136577336D01*
X134851673Y-136682192D01*
X135195201Y-136824838D01*
X135567167Y-136825162D01*
X135910943Y-136683117D01*
X136174192Y-136420327D01*
X136316838Y-136076799D01*
X136317100Y-135775702D01*
X139506802Y-132586000D01*
X144725537Y-132586000D01*
X144757673Y-132618192D01*
X145101201Y-132760838D01*
X145473167Y-132761162D01*
X145816943Y-132619117D01*
X146080192Y-132356327D01*
X146222838Y-132012799D01*
X146223162Y-131640833D01*
X146081117Y-131297057D01*
X145818327Y-131033808D01*
X145474799Y-130891162D01*
X145102833Y-130890838D01*
X144759057Y-131032883D01*
X144725882Y-131066000D01*
X139192000Y-131066000D01*
X138901161Y-131123852D01*
X138654599Y-131288599D01*
X134844599Y-135098599D01*
X134831100Y-135118802D01*
X134747000Y-135202755D01*
X134747000Y-132905500D01*
X135712200Y-132181600D01*
X135745725Y-132143949D01*
X135763000Y-132080000D01*
X135763000Y-127185167D01*
X147654838Y-127185167D01*
X147796883Y-127528943D01*
X148059673Y-127792192D01*
X148403201Y-127934838D01*
X148775167Y-127935162D01*
X149118943Y-127793117D01*
X149152118Y-127760000D01*
X155702000Y-127760000D01*
X155992839Y-127702148D01*
X156239401Y-127537401D01*
X158074968Y-125701834D01*
X168164543Y-125701834D01*
X168564853Y-126670658D01*
X169305443Y-127412542D01*
X170273567Y-127814542D01*
X171321834Y-127815457D01*
X172290658Y-127415147D01*
X172321868Y-127383991D01*
X176264735Y-127383991D01*
X176497932Y-127948371D01*
X176879182Y-128330288D01*
X176499449Y-128709357D01*
X176265267Y-129273330D01*
X176264735Y-129883991D01*
X176497932Y-130448371D01*
X176929357Y-130880551D01*
X176938372Y-130884294D01*
X176899446Y-130999841D01*
X177800000Y-131900395D01*
X178700554Y-130999841D01*
X178661793Y-130884786D01*
X178668371Y-130882068D01*
X179100551Y-130450643D01*
X179334733Y-129886670D01*
X179335265Y-129276009D01*
X179102068Y-128711629D01*
X178915599Y-128524833D01*
X182354887Y-128524833D01*
X182418916Y-128765696D01*
X182840524Y-129485870D01*
X183505638Y-129989882D01*
X184313000Y-130201000D01*
X184813000Y-130201000D01*
X184813000Y-128193000D01*
X185067000Y-128193000D01*
X185067000Y-130201000D01*
X185567000Y-130201000D01*
X186374362Y-129989882D01*
X187039476Y-129485870D01*
X187461084Y-128765696D01*
X187525113Y-128524833D01*
X187412165Y-128193000D01*
X185067000Y-128193000D01*
X184813000Y-128193000D01*
X182467835Y-128193000D01*
X182354887Y-128524833D01*
X178915599Y-128524833D01*
X178720818Y-128329712D01*
X178984991Y-128066000D01*
X198453377Y-128066000D01*
X198615894Y-128883029D01*
X199078704Y-129575673D01*
X199771348Y-130038483D01*
X200588377Y-130201000D01*
X201691623Y-130201000D01*
X202508652Y-130038483D01*
X203201296Y-129575673D01*
X203664106Y-128883029D01*
X203826623Y-128066000D01*
X203664106Y-127248971D01*
X203201296Y-126556327D01*
X202508652Y-126093517D01*
X201691623Y-125931000D01*
X200588377Y-125931000D01*
X199771348Y-126093517D01*
X199078704Y-126556327D01*
X198615894Y-127248971D01*
X198453377Y-128066000D01*
X178984991Y-128066000D01*
X179100551Y-127950643D01*
X179243174Y-127607167D01*
X182354887Y-127607167D01*
X182467835Y-127939000D01*
X184813000Y-127939000D01*
X184813000Y-125931000D01*
X185067000Y-125931000D01*
X185067000Y-127939000D01*
X187412165Y-127939000D01*
X187525113Y-127607167D01*
X187461084Y-127366304D01*
X187039476Y-126646130D01*
X186374362Y-126142118D01*
X185567000Y-125931000D01*
X185067000Y-125931000D01*
X184813000Y-125931000D01*
X184313000Y-125931000D01*
X183505638Y-126142118D01*
X182840524Y-126646130D01*
X182418916Y-127366304D01*
X182354887Y-127607167D01*
X179243174Y-127607167D01*
X179334733Y-127386670D01*
X179335265Y-126776009D01*
X179102068Y-126211629D01*
X178670643Y-125779449D01*
X178106670Y-125545267D01*
X177496009Y-125544735D01*
X176931629Y-125777932D01*
X176499449Y-126209357D01*
X176265267Y-126773330D01*
X176264735Y-127383991D01*
X172321868Y-127383991D01*
X173032542Y-126674557D01*
X173434542Y-125706433D01*
X173435457Y-124658166D01*
X173035147Y-123689342D01*
X172294557Y-122947458D01*
X171326433Y-122545458D01*
X170278166Y-122544543D01*
X169309342Y-122944853D01*
X168567458Y-123685443D01*
X168165458Y-124653567D01*
X168164543Y-125701834D01*
X158074968Y-125701834D01*
X158635680Y-125141122D01*
X158681167Y-125141162D01*
X159024943Y-124999117D01*
X159288192Y-124736327D01*
X159430838Y-124392799D01*
X159431162Y-124020833D01*
X159289117Y-123677057D01*
X159026327Y-123413808D01*
X158682799Y-123271162D01*
X158310833Y-123270838D01*
X157967057Y-123412883D01*
X157703808Y-123675673D01*
X157561162Y-124019201D01*
X157561121Y-124066077D01*
X155387198Y-126240000D01*
X149152463Y-126240000D01*
X149120327Y-126207808D01*
X148776799Y-126065162D01*
X148404833Y-126064838D01*
X148061057Y-126206883D01*
X147797808Y-126469673D01*
X147655162Y-126813201D01*
X147654838Y-127185167D01*
X135763000Y-127185167D01*
X135763000Y-122555000D01*
X162628198Y-122555000D01*
X163402878Y-123329680D01*
X163402838Y-123375167D01*
X163544883Y-123718943D01*
X163807673Y-123982192D01*
X164151201Y-124124838D01*
X164523167Y-124125162D01*
X164866943Y-123983117D01*
X165130192Y-123720327D01*
X165272838Y-123376799D01*
X165273162Y-123004833D01*
X165131117Y-122661057D01*
X164868327Y-122397808D01*
X164719000Y-122335802D01*
X164719000Y-116721834D01*
X168164543Y-116721834D01*
X168564853Y-117690658D01*
X169305443Y-118432542D01*
X170273567Y-118834542D01*
X171321834Y-118835457D01*
X172290658Y-118435147D01*
X173032542Y-117694557D01*
X173434542Y-116726433D01*
X173435457Y-115678166D01*
X173312323Y-115380159D01*
X176899446Y-115380159D01*
X176985852Y-115636643D01*
X177559336Y-115846458D01*
X178169460Y-115820839D01*
X178614148Y-115636643D01*
X178700554Y-115380159D01*
X177800000Y-114479605D01*
X176899446Y-115380159D01*
X173312323Y-115380159D01*
X173035147Y-114709342D01*
X172386275Y-114059336D01*
X176253542Y-114059336D01*
X176279161Y-114669460D01*
X176463357Y-115114148D01*
X176719841Y-115200554D01*
X177620395Y-114300000D01*
X177979605Y-114300000D01*
X178880159Y-115200554D01*
X179136643Y-115114148D01*
X179346458Y-114540664D01*
X179320839Y-113930540D01*
X179136643Y-113485852D01*
X178880159Y-113399446D01*
X177979605Y-114300000D01*
X177620395Y-114300000D01*
X176719841Y-113399446D01*
X176463357Y-113485852D01*
X176253542Y-114059336D01*
X172386275Y-114059336D01*
X172294557Y-113967458D01*
X171326433Y-113565458D01*
X170278166Y-113564543D01*
X169309342Y-113964853D01*
X168567458Y-114705443D01*
X168165458Y-115673567D01*
X168164543Y-116721834D01*
X164719000Y-116721834D01*
X164719000Y-107921834D01*
X168164543Y-107921834D01*
X168564853Y-108890658D01*
X169305443Y-109632542D01*
X170273567Y-110034542D01*
X171321834Y-110035457D01*
X172290658Y-109635147D01*
X172321868Y-109603991D01*
X176264735Y-109603991D01*
X176497932Y-110168371D01*
X176879182Y-110550288D01*
X176499449Y-110929357D01*
X176265267Y-111493330D01*
X176264735Y-112103991D01*
X176497932Y-112668371D01*
X176929357Y-113100551D01*
X176938372Y-113104294D01*
X176899446Y-113219841D01*
X177800000Y-114120395D01*
X178700554Y-113219841D01*
X178661793Y-113104786D01*
X178668371Y-113102068D01*
X179100551Y-112670643D01*
X179334733Y-112106670D01*
X179335265Y-111496009D01*
X179102068Y-110931629D01*
X178720818Y-110549712D01*
X179100551Y-110170643D01*
X179334733Y-109606670D01*
X179335265Y-108996009D01*
X179102068Y-108431629D01*
X178670643Y-107999449D01*
X178106670Y-107765267D01*
X177496009Y-107764735D01*
X176931629Y-107997932D01*
X176499449Y-108429357D01*
X176265267Y-108993330D01*
X176264735Y-109603991D01*
X172321868Y-109603991D01*
X173032542Y-108894557D01*
X173434542Y-107926433D01*
X173435457Y-106878166D01*
X173035147Y-105909342D01*
X172294557Y-105167458D01*
X171326433Y-104765458D01*
X170278166Y-104764543D01*
X169309342Y-105164853D01*
X168567458Y-105905443D01*
X168165458Y-106873567D01*
X168164543Y-107921834D01*
X164719000Y-107921834D01*
X164719000Y-98941834D01*
X168164543Y-98941834D01*
X168564853Y-99910658D01*
X169305443Y-100652542D01*
X170273567Y-101054542D01*
X171321834Y-101055457D01*
X172290658Y-100655147D01*
X173032542Y-99914557D01*
X173434542Y-98946433D01*
X173435457Y-97898166D01*
X173035147Y-96929342D01*
X172386275Y-96279336D01*
X176253542Y-96279336D01*
X176279161Y-96889460D01*
X176463357Y-97334148D01*
X176719841Y-97420554D01*
X177620395Y-96520000D01*
X176719841Y-95619446D01*
X176463357Y-95705852D01*
X176253542Y-96279336D01*
X172386275Y-96279336D01*
X172294557Y-96187458D01*
X171326433Y-95785458D01*
X170278166Y-95784543D01*
X169309342Y-96184853D01*
X168567458Y-96925443D01*
X168165458Y-97893567D01*
X168164543Y-98941834D01*
X164719000Y-98941834D01*
X164719000Y-91030475D01*
X168165531Y-90144224D01*
X168564853Y-91110658D01*
X169305443Y-91852542D01*
X170273567Y-92254542D01*
X171321834Y-92255457D01*
X172290658Y-91855147D01*
X172321868Y-91823991D01*
X176264735Y-91823991D01*
X176497932Y-92388371D01*
X176879182Y-92770288D01*
X176499449Y-93149357D01*
X176265267Y-93713330D01*
X176264735Y-94323991D01*
X176497932Y-94888371D01*
X176929357Y-95320551D01*
X176938372Y-95324294D01*
X176899446Y-95439841D01*
X177800000Y-96340395D01*
X178700554Y-95439841D01*
X178661793Y-95324786D01*
X178668371Y-95322068D01*
X179100551Y-94890643D01*
X179334733Y-94326670D01*
X179335265Y-93716009D01*
X179102068Y-93151629D01*
X178720818Y-92769712D01*
X179100551Y-92390643D01*
X179334733Y-91826670D01*
X179335265Y-91216009D01*
X179197600Y-90882833D01*
X182354887Y-90882833D01*
X182418916Y-91123696D01*
X182840524Y-91843870D01*
X183505638Y-92347882D01*
X184313000Y-92559000D01*
X184813000Y-92559000D01*
X184813000Y-90551000D01*
X185067000Y-90551000D01*
X185067000Y-92559000D01*
X185567000Y-92559000D01*
X186374362Y-92347882D01*
X187039476Y-91843870D01*
X187461084Y-91123696D01*
X187525113Y-90882833D01*
X198554887Y-90882833D01*
X198618916Y-91123696D01*
X199040524Y-91843870D01*
X199705638Y-92347882D01*
X200513000Y-92559000D01*
X201013000Y-92559000D01*
X201013000Y-90551000D01*
X201267000Y-90551000D01*
X201267000Y-92559000D01*
X201767000Y-92559000D01*
X202574362Y-92347882D01*
X203239476Y-91843870D01*
X203661084Y-91123696D01*
X203725113Y-90882833D01*
X203612165Y-90551000D01*
X201267000Y-90551000D01*
X201013000Y-90551000D01*
X198667835Y-90551000D01*
X198554887Y-90882833D01*
X187525113Y-90882833D01*
X187412165Y-90551000D01*
X185067000Y-90551000D01*
X184813000Y-90551000D01*
X182467835Y-90551000D01*
X182354887Y-90882833D01*
X179197600Y-90882833D01*
X179102068Y-90651629D01*
X178670643Y-90219449D01*
X178106670Y-89985267D01*
X177496009Y-89984735D01*
X176931629Y-90217932D01*
X176499449Y-90649357D01*
X176265267Y-91213330D01*
X176264735Y-91823991D01*
X172321868Y-91823991D01*
X173032542Y-91114557D01*
X173434542Y-90146433D01*
X173434700Y-89965167D01*
X182354887Y-89965167D01*
X182467835Y-90297000D01*
X184813000Y-90297000D01*
X184813000Y-88289000D01*
X185067000Y-88289000D01*
X185067000Y-90297000D01*
X187412165Y-90297000D01*
X187525113Y-89965167D01*
X198554887Y-89965167D01*
X198667835Y-90297000D01*
X201013000Y-90297000D01*
X201013000Y-88289000D01*
X201267000Y-88289000D01*
X201267000Y-90297000D01*
X203612165Y-90297000D01*
X203725113Y-89965167D01*
X203661084Y-89724304D01*
X203239476Y-89004130D01*
X202574362Y-88500118D01*
X201767000Y-88289000D01*
X201267000Y-88289000D01*
X201013000Y-88289000D01*
X200513000Y-88289000D01*
X199705638Y-88500118D01*
X199040524Y-89004130D01*
X198618916Y-89724304D01*
X198554887Y-89965167D01*
X187525113Y-89965167D01*
X187461084Y-89724304D01*
X187039476Y-89004130D01*
X186374362Y-88500118D01*
X185567000Y-88289000D01*
X185067000Y-88289000D01*
X184813000Y-88289000D01*
X184313000Y-88289000D01*
X183505638Y-88500118D01*
X182840524Y-89004130D01*
X182418916Y-89724304D01*
X182354887Y-89965167D01*
X173434700Y-89965167D01*
X173435457Y-89098166D01*
X173320019Y-88818784D01*
X182403628Y-86482999D01*
X182448990Y-86461003D01*
X182482220Y-86423092D01*
X182499000Y-86360000D01*
X182499000Y-86233000D01*
X182488994Y-86183590D01*
X182460553Y-86141965D01*
X182418159Y-86114685D01*
X182368491Y-86106048D01*
X182315204Y-86119408D01*
X182245000Y-86154510D01*
X182245000Y-84582833D01*
X182354887Y-84582833D01*
X182418916Y-84823696D01*
X182840524Y-85543870D01*
X183505638Y-86047882D01*
X184313000Y-86259000D01*
X184813000Y-86259000D01*
X184813000Y-84251000D01*
X185067000Y-84251000D01*
X185067000Y-86259000D01*
X185567000Y-86259000D01*
X186374362Y-86047882D01*
X187039476Y-85543870D01*
X187461084Y-84823696D01*
X187525113Y-84582833D01*
X187412165Y-84251000D01*
X185067000Y-84251000D01*
X184813000Y-84251000D01*
X182467835Y-84251000D01*
X182354887Y-84582833D01*
X182245000Y-84582833D01*
X182245000Y-82169000D01*
X183624640Y-82169000D01*
X183505638Y-82200118D01*
M02*
