M48
;DRILL file {KiCad 4.0.7-e2-6376~58~ubuntu14.04.1} date Wed Apr 11 20:24:56 2018
;FORMAT={3:3/ absolute / metric / suppress leading zeros}
FMAT,2
METRIC,TZ
T1C0.400
T2C0.900
T3C1.000
T4C1.016
T5C1.100
T6C1.600
T7C2.100
T8C2.000
T9C3.500
%
G90
G05
M71
T1
X135382Y-135890
X135636Y-119634
X138176Y-125476
X140970Y-114300
X143256Y-133350
X145288Y-131826
X146177Y-132969
X148590Y-127000
X158496Y-124206
X161036Y-119888
X164338Y-123190
X165354Y-101854
X165608Y-85090
X174498Y-85090
X176530Y-103378
X179324Y-103378
X180340Y-114554
X180340Y-121666
X185420Y-100584
X197104Y-100584
X198374Y-83312
X201422Y-102108
X202692Y-101346
X202692Y-103124
X211328Y-98028
X212344Y-93980
X214376Y-93726
X214376Y-98298
X215138Y-85344
X215900Y-91948
X215900Y-95250
X217424Y-87630
X217678Y-85344
X218186Y-98806
X218440Y-83566
X219964Y-87630
X220726Y-96520
X220726Y-98552
X220980Y-91948
X221234Y-86360
X222250Y-83058
X222758Y-96520
X222758Y-98552
X224028Y-82296
X224028Y-111506
X225552Y-86360
X225806Y-97282
X226060Y-82296
X226314Y-98298
X226314Y-99314
X226314Y-102108
X226314Y-110744
X227076Y-85344
X227838Y-84074
X229870Y-99822
X229870Y-101346
X231902Y-82042
X233172Y-103632
X237490Y-93726
X237490Y-97028
X237490Y-100584
X240284Y-82550
X240284Y-86106
X241808Y-128016
X243078Y-134366
T2
X186182Y-106934
X186182Y-113030
X186182Y-119126
X188722Y-106934
X188722Y-113030
X188722Y-119126
T3
X137922Y-110490
X137922Y-113030
X158750Y-142240
X161290Y-142240
X171704Y-142240
X174244Y-142240
X177800Y-91520
X177800Y-94020
X177800Y-96520
X177800Y-109300
X177800Y-111800
X177800Y-114300
X177800Y-127080
X177800Y-129580
X177800Y-132080
X229870Y-136144
X229870Y-138684
X229870Y-141224
X236220Y-139954
X238760Y-139954
X239268Y-112522
X239268Y-115062
X239268Y-117602
X239268Y-120142
T4
X209550Y-89916
X209550Y-105156
X212090Y-89916
X212090Y-105156
X214630Y-89916
X214630Y-105156
X217170Y-89916
X217170Y-105156
X219710Y-89916
X219710Y-105156
X222250Y-89916
X222250Y-105156
X224790Y-89916
X224790Y-105156
X227330Y-89916
X227330Y-105156
X229870Y-89916
X229870Y-105156
X232410Y-89916
X232410Y-105156
X234950Y-89916
X234950Y-105156
X237490Y-89916
X237490Y-105156
X240030Y-89916
X240030Y-105156
X242570Y-89916
X242570Y-105156
T5
X134692Y-86210
X134692Y-92710
X139192Y-86210
X139192Y-92710
X145360Y-86210
X145360Y-92710
X149860Y-86210
X149860Y-92710
X155774Y-86210
X155774Y-92710
X160274Y-86210
X160274Y-92710
T6
X233680Y-131064
X236680Y-126364
X239680Y-131064
T7
X184940Y-84124
X184940Y-90424
X184940Y-96724
X184940Y-128066
X184940Y-134366
X184940Y-140666
X201140Y-84124
X201140Y-90424
X201140Y-96724
X201140Y-128066
X201140Y-134366
X201140Y-140666
T8
X170800Y-89620
X170800Y-98420
X170800Y-107400
X170800Y-116200
X170800Y-125180
X170800Y-133980
T9
X213210Y-138684
T3
X143590Y-106010G85X143590Y-107510
G05
X143590Y-111010G85X143590Y-112510
G05
X143590Y-116010G85X143590Y-117510
G05
X148590Y-106010G85X148590Y-107510
G05
X148590Y-111010G85X148590Y-112510
G05
X148590Y-116010G85X148590Y-117510
G05
X153590Y-106010G85X153590Y-107510
G05
X153590Y-111010G85X153590Y-112510
G05
X153590Y-116010G85X153590Y-117510
G05
T0
M30
