G04 #@! TF.FileFunction,Paste,Top*
%FSLAX46Y46*%
G04 Gerber Fmt 4.6, Leading zero omitted, Abs format (unit mm)*
G04 Created by KiCad (PCBNEW 4.0.7) date 04/13/18 12:18:04*
%MOMM*%
%LPD*%
G01*
G04 APERTURE LIST*
%ADD10C,0.100000*%
%ADD11R,1.250000X1.000000*%
%ADD12R,1.000000X1.250000*%
%ADD13R,1.300000X0.700000*%
%ADD14R,0.700000X1.300000*%
%ADD15R,0.700000X0.250000*%
%ADD16R,0.250000X0.700000*%
%ADD17R,1.035000X1.035000*%
%ADD18R,1.550000X0.600000*%
G04 APERTURE END LIST*
D10*
D11*
X135382000Y-126984000D03*
X135382000Y-124984000D03*
X211328000Y-96028000D03*
X211328000Y-98028000D03*
D12*
X235728000Y-82550000D03*
X237728000Y-82550000D03*
X235728000Y-86106000D03*
X237728000Y-86106000D03*
D13*
X231394000Y-83378000D03*
X231394000Y-85278000D03*
D10*
G36*
X157118000Y-98048000D02*
X157118000Y-98548000D01*
X156318000Y-98848000D01*
X156318000Y-97748000D01*
X157118000Y-98048000D01*
X157118000Y-98048000D01*
G37*
G36*
X156102000Y-97748000D02*
X156102000Y-98848000D01*
X155302000Y-98548000D01*
X155302000Y-98048000D01*
X156102000Y-97748000D01*
X156102000Y-97748000D01*
G37*
D14*
X194498000Y-119126000D03*
X192598000Y-119126000D03*
X194752000Y-113030000D03*
X192852000Y-113030000D03*
X194752000Y-106934000D03*
X192852000Y-106934000D03*
X142428000Y-138684000D03*
X140528000Y-138684000D03*
D13*
X140970000Y-135570000D03*
X140970000Y-133670000D03*
X140970000Y-130114000D03*
X140970000Y-132014000D03*
D14*
X142428000Y-127000000D03*
X140528000Y-127000000D03*
X231836000Y-116078000D03*
X229936000Y-116078000D03*
X231582000Y-110744000D03*
X229682000Y-110744000D03*
D13*
X162306000Y-97856000D03*
X162306000Y-99756000D03*
D15*
X224142000Y-99286000D03*
X224142000Y-98786000D03*
X224142000Y-98286000D03*
X224142000Y-97786000D03*
X224142000Y-97286000D03*
X224142000Y-96786000D03*
X224142000Y-96286000D03*
X224142000Y-95786000D03*
D16*
X223492000Y-95136000D03*
X222992000Y-95136000D03*
X222492000Y-95136000D03*
X221992000Y-95136000D03*
X221492000Y-95136000D03*
X220992000Y-95136000D03*
X220492000Y-95136000D03*
X219992000Y-95136000D03*
D15*
X219342000Y-95786000D03*
X219342000Y-96286000D03*
X219342000Y-96786000D03*
X219342000Y-97286000D03*
X219342000Y-97786000D03*
X219342000Y-98286000D03*
X219342000Y-98786000D03*
X219342000Y-99286000D03*
D16*
X219992000Y-99936000D03*
X220492000Y-99936000D03*
X220992000Y-99936000D03*
X221492000Y-99936000D03*
X221992000Y-99936000D03*
X222492000Y-99936000D03*
X222992000Y-99936000D03*
X223492000Y-99936000D03*
D17*
X220879500Y-96673500D03*
X220879500Y-98398500D03*
X222604500Y-96673500D03*
X222604500Y-98398500D03*
D18*
X148430000Y-129159000D03*
X148430000Y-130429000D03*
X148430000Y-131699000D03*
X148430000Y-132969000D03*
X153830000Y-132969000D03*
X153830000Y-131699000D03*
X153830000Y-130429000D03*
X153830000Y-129159000D03*
M02*
