M48
INCH,TZ
T1C0.016
T2C0.035
T3C0.039
T4C0.040
T5C0.043
T6C0.063
T7C0.083
T8C0.079
T9C0.138
%
G90
G05
T1
X53300Y-53500
X53400Y-47100
X54400Y-49400
X55500Y-45000
X56400Y-52500
X57200Y-51900
X57550Y-52350
X58500Y-50000
X62400Y-48900
X63400Y-47200
X64700Y-48500
X65100Y-40100
X65200Y-33500
X68700Y-33500
X69500Y-40700
X70600Y-40700
X71000Y-45100
X71000Y-47900
X73000Y-39600
X77600Y-39600
X78100Y-32800
X79300Y-40200
X79800Y-39900
X79800Y-40600
X83200Y-38594
X83600Y-37000
X84400Y-36900
X84400Y-38700
X84700Y-33600
X85000Y-36200
X85000Y-37500
X85600Y-34500
X85700Y-33600
X85900Y-38900
X86000Y-32900
X86600Y-34500
X86900Y-38000
X86900Y-38800
X87000Y-36200
X87100Y-34000
X87500Y-32700
X87700Y-38000
X87700Y-38800
X88200Y-32400
X88200Y-43900
X88800Y-34000
X88900Y-38300
X89000Y-32400
X89100Y-38700
X89100Y-39100
X89100Y-40200
X89100Y-43600
X89400Y-33600
X89700Y-33100
X90500Y-39300
X90500Y-39900
X91300Y-32300
X91800Y-40800
X93500Y-36900
X93500Y-38200
X93500Y-39600
X94600Y-32500
X94600Y-33900
X95200Y-50400
X95200Y-52900
T2
X73300Y-42100
X73300Y-44500
X73300Y-46900
X74300Y-42100
X74300Y-44500
X74300Y-46900
T3
X54300Y-43500
X54300Y-44500
X62500Y-56000
X63500Y-56000
X67600Y-56000
X68600Y-56000
X70000Y-36031
X70000Y-37016
X70000Y-38000
X70000Y-43031
X70000Y-44016
X70000Y-45000
X70000Y-50031
X70000Y-51016
X70000Y-52000
X90500Y-53600
X90500Y-54600
X90500Y-55600
X93000Y-55100
X94000Y-55100
X94200Y-44300
X94200Y-45300
X94200Y-46300
X94200Y-47300
T4
X82500Y-35400
X82500Y-41400
X83500Y-35400
X83500Y-41400
X84500Y-35400
X84500Y-41400
X85500Y-35400
X85500Y-41400
X86500Y-35400
X86500Y-41400
X87500Y-35400
X87500Y-41400
X88500Y-35400
X88500Y-41400
X89500Y-35400
X89500Y-41400
X90500Y-35400
X90500Y-41400
X91500Y-35400
X91500Y-41400
X92500Y-35400
X92500Y-41400
X93500Y-35400
X93500Y-41400
X94500Y-35400
X94500Y-41400
X95500Y-35400
X95500Y-41400
T5
X53028Y-33941
X53028Y-36500
X54800Y-33941
X54800Y-36500
X57228Y-33941
X57228Y-36500
X59000Y-33941
X59000Y-36500
X61328Y-33941
X61328Y-36500
X63100Y-33941
X63100Y-36500
T6
X92000Y-51600
X93181Y-49750
X94362Y-51600
T7
X72811Y-33120
X72811Y-35600
X72811Y-38080
X72811Y-50420
X72811Y-52900
X72811Y-55380
X79189Y-33120
X79189Y-35600
X79189Y-38080
X79189Y-50420
X79189Y-52900
X79189Y-55380
T8
X67244Y-35283
X67244Y-38748
X67244Y-42283
X67244Y-45748
X67244Y-49283
X67244Y-52748
T9
X83941Y-54600
T3
X56531Y-41736G85X56531Y-42327
G05
X56531Y-43705G85X56531Y-44295
G05
X56531Y-45673G85X56531Y-46264
G05
X58500Y-41736G85X58500Y-42327
G05
X58500Y-43705G85X58500Y-44295
G05
X58500Y-45673G85X58500Y-46264
G05
X60469Y-41736G85X60469Y-42327
G05
X60469Y-43705G85X60469Y-44295
G05
X60469Y-45673G85X60469Y-46264
G05
T0
M30
