G04 #@! TF.FileFunction,Soldermask,Top*
%FSLAX46Y46*%
G04 Gerber Fmt 4.6, Leading zero omitted, Abs format (unit mm)*
G04 Created by KiCad (PCBNEW 4.0.7) date 04/13/18 12:18:05*
%MOMM*%
%LPD*%
G01*
G04 APERTURE LIST*
%ADD10C,0.100000*%
%ADD11R,2.432000X2.432000*%
%ADD12O,2.127200X2.432000*%
%ADD13R,2.100000X2.100000*%
%ADD14O,2.100000X2.100000*%
%ADD15R,1.650000X1.400000*%
%ADD16R,1.400000X1.650000*%
%ADD17R,1.700000X1.100000*%
%ADD18R,3.000000X3.000000*%
%ADD19C,3.000000*%
%ADD20R,1.100000X1.700000*%
%ADD21C,2.200000*%
%ADD22C,4.400000*%
%ADD23C,2.400000*%
%ADD24R,1.100000X0.650000*%
%ADD25R,0.650000X1.100000*%
%ADD26R,2.125000X2.125000*%
%ADD27O,3.900000X3.900000*%
%ADD28R,2.200000X2.200000*%
%ADD29O,2.200000X2.200000*%
%ADD30O,4.400000X3.400000*%
%ADD31O,3.400000X2.900000*%
%ADD32R,1.950000X1.000000*%
G04 APERTURE END LIST*
D10*
D11*
X242570000Y-89916000D03*
D12*
X240030000Y-89916000D03*
X237490000Y-89916000D03*
X234950000Y-89916000D03*
X232410000Y-89916000D03*
X229870000Y-89916000D03*
X227330000Y-89916000D03*
X224790000Y-89916000D03*
X222250000Y-89916000D03*
X219710000Y-89916000D03*
X217170000Y-89916000D03*
X214630000Y-89916000D03*
X212090000Y-89916000D03*
X209550000Y-89916000D03*
X209550000Y-105156000D03*
X212090000Y-105156000D03*
X214630000Y-105156000D03*
X217170000Y-105156000D03*
X219710000Y-105156000D03*
X222250000Y-105156000D03*
X224790000Y-105156000D03*
X227330000Y-105156000D03*
X229870000Y-105156000D03*
X232410000Y-105156000D03*
X234950000Y-105156000D03*
X237490000Y-105156000D03*
X240030000Y-105156000D03*
X242570000Y-105156000D03*
D13*
X238760000Y-139954000D03*
D14*
X236220000Y-139954000D03*
D15*
X135382000Y-126984000D03*
X135382000Y-124984000D03*
X211328000Y-96028000D03*
X211328000Y-98028000D03*
D16*
X235728000Y-82550000D03*
X237728000Y-82550000D03*
X235728000Y-86106000D03*
X237728000Y-86106000D03*
D17*
X231394000Y-83378000D03*
X231394000Y-85278000D03*
D18*
X233680000Y-131064000D03*
D19*
X239680000Y-131064000D03*
X236680000Y-126364000D03*
D10*
G36*
X157218000Y-97948000D02*
X157218000Y-98648000D01*
X156218000Y-98948000D01*
X156218000Y-97648000D01*
X157218000Y-97948000D01*
X157218000Y-97948000D01*
G37*
G36*
X156202000Y-97648000D02*
X156202000Y-98948000D01*
X155202000Y-98648000D01*
X155202000Y-97948000D01*
X156202000Y-97648000D01*
X156202000Y-97648000D01*
G37*
D20*
X194498000Y-119126000D03*
X192598000Y-119126000D03*
X194752000Y-113030000D03*
X192852000Y-113030000D03*
X194752000Y-106934000D03*
X192852000Y-106934000D03*
X142428000Y-138684000D03*
X140528000Y-138684000D03*
D17*
X140970000Y-135570000D03*
X140970000Y-133670000D03*
X140970000Y-130114000D03*
X140970000Y-132014000D03*
D20*
X142428000Y-127000000D03*
X140528000Y-127000000D03*
X231836000Y-116078000D03*
X229936000Y-116078000D03*
X231582000Y-110744000D03*
X229682000Y-110744000D03*
D17*
X162306000Y-97856000D03*
X162306000Y-99756000D03*
D21*
X177800000Y-91520000D03*
X177800000Y-94020000D03*
X177800000Y-96520000D03*
D22*
X170800000Y-89620000D03*
X170800000Y-98420000D03*
D21*
X177800000Y-109300000D03*
X177800000Y-111800000D03*
X177800000Y-114300000D03*
D22*
X170800000Y-107400000D03*
X170800000Y-116200000D03*
D21*
X177800000Y-127080000D03*
X177800000Y-129580000D03*
X177800000Y-132080000D03*
D22*
X170800000Y-125180000D03*
X170800000Y-133980000D03*
D23*
X134692000Y-92710000D03*
X139192000Y-92710000D03*
X134692000Y-86210000D03*
X139192000Y-86210000D03*
X145360000Y-92710000D03*
X149860000Y-92710000D03*
X145360000Y-86210000D03*
X149860000Y-86210000D03*
X155774000Y-92710000D03*
X160274000Y-92710000D03*
X155774000Y-86210000D03*
X160274000Y-86210000D03*
D24*
X224142000Y-99286000D03*
X224142000Y-98786000D03*
X224142000Y-98286000D03*
X224142000Y-97786000D03*
X224142000Y-97286000D03*
X224142000Y-96786000D03*
X224142000Y-96286000D03*
X224142000Y-95786000D03*
D25*
X223492000Y-95136000D03*
X222992000Y-95136000D03*
X222492000Y-95136000D03*
X221992000Y-95136000D03*
X221492000Y-95136000D03*
X220992000Y-95136000D03*
X220492000Y-95136000D03*
X219992000Y-95136000D03*
D24*
X219342000Y-95786000D03*
X219342000Y-96286000D03*
X219342000Y-96786000D03*
X219342000Y-97286000D03*
X219342000Y-97786000D03*
X219342000Y-98286000D03*
X219342000Y-98786000D03*
X219342000Y-99286000D03*
D25*
X219992000Y-99936000D03*
X220492000Y-99936000D03*
X220992000Y-99936000D03*
X221492000Y-99936000D03*
X221992000Y-99936000D03*
X222492000Y-99936000D03*
X222992000Y-99936000D03*
X223492000Y-99936000D03*
D26*
X220879500Y-96673500D03*
X220879500Y-98398500D03*
X222604500Y-96673500D03*
X222604500Y-98398500D03*
D27*
X213210000Y-138684000D03*
D28*
X229870000Y-141224000D03*
D29*
X229870000Y-138684000D03*
X229870000Y-136144000D03*
D30*
X201140000Y-140666000D03*
X201140000Y-134366000D03*
X201140000Y-128066000D03*
X184940000Y-140666000D03*
X184940000Y-134366000D03*
X184940000Y-128066000D03*
X184940000Y-84124000D03*
X184940000Y-90424000D03*
X184940000Y-96724000D03*
X201140000Y-84124000D03*
X201140000Y-90424000D03*
X201140000Y-96724000D03*
D31*
X143590000Y-111760000D03*
X153590000Y-111760000D03*
X153590000Y-116760000D03*
X143590000Y-116760000D03*
X143590000Y-106760000D03*
X153590000Y-106760000D03*
X148590000Y-106760000D03*
X148590000Y-111760000D03*
X148590000Y-116760000D03*
D13*
X161290000Y-142240000D03*
D14*
X158750000Y-142240000D03*
D13*
X174244000Y-142240000D03*
D14*
X171704000Y-142240000D03*
D13*
X239268000Y-112522000D03*
D14*
X239268000Y-115062000D03*
X239268000Y-117602000D03*
X239268000Y-120142000D03*
D13*
X137922000Y-110490000D03*
D14*
X137922000Y-113030000D03*
D32*
X148430000Y-129159000D03*
X148430000Y-130429000D03*
X148430000Y-131699000D03*
X148430000Y-132969000D03*
X153830000Y-132969000D03*
X153830000Y-131699000D03*
X153830000Y-130429000D03*
X153830000Y-129159000D03*
D28*
X186182000Y-106934000D03*
D21*
X188722000Y-106934000D03*
D28*
X186182000Y-113030000D03*
D21*
X188722000Y-113030000D03*
D28*
X186182000Y-119126000D03*
D21*
X188722000Y-119126000D03*
M02*
